<ttFont>
    <TTGlyph name="A" xMin="-65" yMin="0" xMax="1003" yMax="1456">
      <contour>
        <pt x="706" y="309" on="1"/>
        <pt x="355" y="309" on="1"/>
        <pt x="219" y="0" on="1"/>
        <pt x="-65" y="0" on="1"/>
        <pt x="614" y="1456" on="1"/>
        <pt x="907" y="1456" on="1"/>
        <pt x="1003" y="0" on="1"/>
        <pt x="719" y="0" on="1"/>
      </contour>
      <contour>
        <pt x="455" y="538" on="1"/>
        <pt x="697" y="538" on="1"/>
        <pt x="678" y="1029" on="1"/>
        <pt x="672" y="1030" on="1"/>
      </contour>
    </TTGlyph>
    <TTGlyph name="A.smcp" xMin="-71" yMin="0" xMax="953" yMax="1165">
      <contour>
        <pt x="638" y="203" on="1"/>
        <pt x="325" y="203" on="1"/>
        <pt x="228" y="0" on="1"/>
        <pt x="-71" y="0" on="1"/>
        <pt x="520" y="1165" on="1"/>
        <pt x="830" y="1165" on="1"/>
        <pt x="953" y="0" on="1"/>
        <pt x="655" y="0" on="1"/>
      </contour>
      <contour>
        <pt x="433" y="429" on="1"/>
        <pt x="620" y="429" on="1"/>
        <pt x="594" y="752" on="1"/>
        <pt x="588" y="753" on="1"/>
      </contour>
    </TTGlyph>
    <TTGlyph name="AE" xMin="-73" yMin="0" xMax="1682" yMax="1456">
      <contour>
        <pt x="1440" y="0" on="1"/>
        <pt x="696" y="0" on="1"/>
        <pt x="752" y="339" on="1"/>
        <pt x="451" y="339" on="1"/>
        <pt x="255" y="0" on="1"/>
        <pt x="-73" y="0" on="1"/>
        <pt x="822" y="1456" on="1"/>
        <pt x="1682" y="1456" on="1"/>
        <pt x="1636" y="1225" on="1"/>
        <pt x="1182" y="1225" on="1"/>
        <pt x="1122" y="862" on="1"/>
        <pt x="1497" y="862" on="1"/>
        <pt x="1451" y="632" on="1"/>
        <pt x="1083" y="632" on="1"/>
        <pt x="1016" y="230" on="1"/>
        <pt x="1486" y="230" on="1"/>
      </contour>
      <contour>
        <pt x="792" y="578" on="1"/>
        <pt x="871" y="1052" on="1"/>
        <pt x="866" y="1054" on="1"/>
        <pt x="590" y="578" on="1"/>
      </contour>
    </TTGlyph>
    <TTGlyph name="AEacute" xMin="-73" yMin="0" xMax="1682" yMax="1826">
      <component glyphName="AE" x="0" y="0" flags="0x204"/>
      <component glyphName="acute" x="623" y="348" flags="0x4"/>
    </TTGlyph>
    <TTGlyph name="Aacute" xMin="-65" yMin="0" xMax="1148" yMax="1826">
      <component glyphName="A" x="0" y="0" flags="0x204"/>
      <component glyphName="acute" x="417" y="348" flags="0x4"/>
    </TTGlyph>
    <TTGlyph name="Aacute.smcp" xMin="-71" yMin="0" xMax="1050" yMax="1503">
      <component glyphName="A.smcp" x="0" y="0" flags="0x204"/>
      <component glyphName="acute" x="319" y="25" flags="0x4"/>
    </TTGlyph>
    <TTGlyph name="Abreve" xMin="-65" yMin="0" xMax="1138" yMax="1897">
      <component glyphName="A" x="0" y="0" flags="0x204"/>
      <component glyphName="breve" x="274" y="441" flags="0x4"/>
    </TTGlyph>
    <TTGlyph name="Abreve.smcp" xMin="-71" yMin="0" xMax="1040" yMax="1574">
      <component glyphName="A.smcp" x="0" y="0" flags="0x204"/>
      <component glyphName="breve" x="176" y="118" flags="0x4"/>
    </TTGlyph>
    <TTGlyph name="Acircumflex" xMin="-65" yMin="0" xMax="1117" yMax="1853">
      <component glyphName="A" x="0" y="0" flags="0x204"/>
      <component glyphName="circumflex" x="185" y="339" flags="0x4"/>
    </TTGlyph>
    <TTGlyph name="Acircumflex.smcp" xMin="-71" yMin="0" xMax="1019" yMax="1530">
      <component glyphName="A.smcp" x="0" y="0" flags="0x204"/>
      <component glyphName="circumflex" x="87" y="16" flags="0x4"/>
    </TTGlyph>
    <TTGlyph name="Adieresis" xMin="-65" yMin="0" xMax="1160" yMax="1804">
      <component glyphName="A" x="0" y="0" flags="0x204"/>
      <component glyphName="dieresis" x="180" y="348" flags="0x4"/>
    </TTGlyph>
    <TTGlyph name="Adieresis.smcp" xMin="-71" yMin="0" xMax="1062" yMax="1481">
      <component glyphName="A.smcp" x="0" y="0" flags="0x204"/>
      <component glyphName="dieresis" x="82" y="25" flags="0x4"/>
    </TTGlyph>
    <TTGlyph name="Agrave" xMin="-65" yMin="0" xMax="1003" yMax="1825">
      <component glyphName="A" x="0" y="0" flags="0x204"/>
      <component glyphName="grave" x="265" y="348" flags="0x4"/>
    </TTGlyph>
    <TTGlyph name="Agrave.smcp" xMin="-71" yMin="0" xMax="953" yMax="1502">
      <component glyphName="A.smcp" x="0" y="0" flags="0x204"/>
      <component glyphName="grave" x="167" y="25" flags="0x4"/>
    </TTGlyph>
    <TTGlyph name="Alpha" xMin="-65" yMin="0" xMax="1003" yMax="1456">
      <component glyphName="A" x="0" y="0" flags="0x204"/>
    </TTGlyph>
    <TTGlyph name="Alphatonos" xMin="-65" yMin="0" xMax="1003" yMax="1623">
      <component glyphName="A" x="0" y="0" flags="0x204"/>
      <component glyphName="tonos" x="-145" y="0" flags="0x4"/>
    </TTGlyph>
    <TTGlyph name="Amacron" xMin="-65" yMin="0" xMax="1134" yMax="1777">
      <component glyphName="A" x="0" y="0" flags="0x204"/>
      <component glyphName="macron" x="195" y="320" flags="0x4"/>
    </TTGlyph>
    <TTGlyph name="Amacron.smcp" xMin="-71" yMin="0" xMax="1036" yMax="1456">
      <component glyphName="A.smcp" x="0" y="0" flags="0x204"/>
      <component glyphName="macron" x="97" y="-1" flags="0x4"/>
    </TTGlyph>
    <TTGlyph name="Aogonek" xMin="-65" yMin="-415" xMax="1003" yMax="1456">
      <component glyphName="A" x="0" y="0" flags="0x204"/>
      <component glyphName="ogonek" x="647" y="0" flags="0x4"/>
    </TTGlyph>
    <TTGlyph name="Aogonek.smcp" xMin="-71" yMin="-415" xMax="953" yMax="1165">
      <component glyphName="A.smcp" x="0" y="0" flags="0x204"/>
      <component glyphName="ogonek" x="596" y="0" flags="0x4"/>
    </TTGlyph>
    <TTGlyph name="Aring" xMin="-65" yMin="0" xMax="1019" yMax="1929">
      <component glyphName="A" x="0" y="0" flags="0x204"/>
      <component glyphName="ring" x="342" y="440" flags="0x4"/>
    </TTGlyph>
    <TTGlyph name="Aring.smcp" xMin="-71" yMin="0" xMax="953" yMax="1606">
      <component glyphName="A.smcp" x="0" y="0" flags="0x204"/>
      <component glyphName="ring" x="244" y="117" flags="0x4"/>
    </TTGlyph>
    <TTGlyph name="Aringacute" xMin="-65" yMin="0" xMax="1216" yMax="2148">
      <component glyphName="A" x="0" y="0" flags="0x204"/>
      <component glyphName="ringacute" x="336" y="394" flags="0x4"/>
    </TTGlyph>
    <TTGlyph name="Aringacute.smcp" xMin="-71" yMin="0" xMax="1118" yMax="1825">
      <component glyphName="A.smcp" x="0" y="0" flags="0x204"/>
      <component glyphName="ringacute" x="238" y="71" flags="0x4"/>
    </TTGlyph>
    <TTGlyph name="Atilde" xMin="-65" yMin="0" xMax="1146" yMax="1899">
      <component glyphName="A" x="0" y="0" flags="0x204"/>
      <component glyphName="tilde" x="240" y="373" flags="0x4"/>
    </TTGlyph>
    <TTGlyph name="Atilde.smcp" xMin="-71" yMin="0" xMax="1048" yMax="1576">
      <component glyphName="A.smcp" x="0" y="0" flags="0x204"/>
      <component glyphName="tilde" x="142" y="50" flags="0x4"/>
    </TTGlyph>
    <TTGlyph name="B" xMin="22" yMin="0" xMax="1145" yMax="1456">
      <contour>
        <pt x="22" y="0" on="1"/>
        <pt x="313" y="1456" on="1"/>
        <pt x="727" y="1456" on="1"/>
        <pt x="930" y="1456" on="0"/>
        <pt x="1145" y="1252" on="0"/>
        <pt x="1107" y="1058" on="1"/>
        <pt x="1084" y="948" on="0"/>
        <pt x="967" y="791" on="0"/>
        <pt x="872" y="753" on="1"/>
        <pt x="976" y="725" on="0"/>
        <pt x="1041" y="546" on="0"/>
        <pt x="1018" y="425" on="1"/>
        <pt x="973" y="202" on="0"/>
        <pt x="708" y="0" on="0"/>
        <pt x="489" y="0" on="1"/>
      </contour>
      <contour>
        <pt x="433" y="642" on="1"/>
        <pt x="350" y="227" on="1"/>
        <pt x="534" y="227" on="1"/>
        <pt x="611" y="227" on="0"/>
        <pt x="717" y="328" on="0"/>
        <pt x="737" y="426" on="1"/>
        <pt x="759" y="537" on="0"/>
        <pt x="714" y="642" on="0"/>
        <pt x="636" y="642" on="1"/>
      </contour>
      <contour>
        <pt x="473" y="841" on="1"/>
        <pt x="614" y="841" on="1"/>
        <pt x="690" y="843" on="0"/>
        <pt x="799" y="942" on="0"/>
        <pt x="818" y="1031" on="1"/>
        <pt x="839" y="1140" on="0"/>
        <pt x="773" y="1228" on="0"/>
        <pt x="682" y="1228" on="1"/>
        <pt x="551" y="1228" on="1"/>
      </contour>
    </TTGlyph>
    <TTGlyph name="B.smcp" xMin="22" yMin="0" xMax="998" yMax="1165">
      <contour>
        <pt x="22" y="0" on="1"/>
        <pt x="255" y="1165" on="1"/>
        <pt x="655" y="1165" on="1"/>
        <pt x="821" y="1165" on="0"/>
        <pt x="998" y="1000" on="0"/>
        <pt x="967" y="843" on="1"/>
        <pt x="948" y="755" on="0"/>
        <pt x="834" y="627" on="0"/>
        <pt x="745" y="595" on="1"/>
        <pt x="850" y="570" on="0"/>
        <pt x="931" y="427" on="0"/>
        <pt x="912" y="328" on="1"/>
        <pt x="876" y="154" on="0"/>
        <pt x="663" y="0" on="0"/>
        <pt x="478" y="0" on="1"/>
      </contour>
      <contour>
        <pt x="403" y="495" on="1"/>
        <pt x="349" y="225" on="1"/>
        <pt x="523" y="225" on="1"/>
        <pt x="570" y="225" on="0"/>
        <pt x="622" y="286" on="0"/>
        <pt x="635" y="351" on="1"/>
        <pt x="650" y="430" on="0"/>
        <pt x="628" y="495" on="0"/>
        <pt x="577" y="495" on="1"/>
      </contour>
      <contour>
        <pt x="440" y="680" on="1"/>
        <pt x="562" y="680" on="1"/>
        <pt x="604" y="681" on="0"/>
        <pt x="665" y="745" on="0"/>
        <pt x="677" y="802" on="1"/>
        <pt x="692" y="877" on="0"/>
        <pt x="658" y="936" on="0"/>
        <pt x="609" y="936" on="1"/>
        <pt x="491" y="936" on="1"/>
      </contour>
    </TTGlyph>
    <TTGlyph name="Beta" xMin="22" yMin="0" xMax="1145" yMax="1456">
      <component glyphName="B" x="0" y="0" flags="0x204"/>
    </TTGlyph>
    <TTGlyph name="C" xMin="57" yMin="-21" xMax="1163" yMax="1477">
      <contour>
        <pt x="1032" y="495" on="1"/>
        <pt x="1034" y="489" on="1"/>
        <pt x="974" y="238" on="0"/>
        <pt x="718" y="-21" on="0"/>
        <pt x="504" y="-21" on="1"/>
        <pt x="298" y="-21" on="0"/>
        <pt x="57" y="325" on="0"/>
        <pt x="109" y="584" on="1"/>
        <pt x="167" y="874" on="1"/>
        <pt x="224" y="1163" on="0"/>
        <pt x="516" y="1477" on="0"/>
        <pt x="726" y="1477" on="1"/>
        <pt x="939" y="1477" on="0"/>
        <pt x="1163" y="1194" on="0"/>
        <pt x="1132" y="950" on="1"/>
        <pt x="851" y="950" on="1"/>
        <pt x="875" y="1098" on="0"/>
        <pt x="806" y="1249" on="0"/>
        <pt x="699" y="1249" on="1"/>
        <pt x="617" y="1249" on="0"/>
        <pt x="481" y="1043" on="0"/>
        <pt x="448" y="876" on="1"/>
        <pt x="390" y="584" on="1"/>
        <pt x="353" y="405" on="0"/>
        <pt x="423" y="206" on="0"/>
        <pt x="523" y="206" on="1"/>
        <pt x="612" y="206" on="0"/>
        <pt x="722" y="345" on="0"/>
        <pt x="759" y="495" on="1"/>
      </contour>
    </TTGlyph>
    <TTGlyph name="C.smcp" xMin="45" yMin="-17" xMax="1008" yMax="1181">
      <contour>
        <pt x="883" y="398" on="1"/>
        <pt x="885" y="392" on="1"/>
        <pt x="845" y="176" on="0"/>
        <pt x="608" y="-17" on="0"/>
        <pt x="409" y="-17" on="1"/>
        <pt x="234" y="-17" on="0"/>
        <pt x="45" y="252" on="0"/>
        <pt x="87" y="461" on="1"/>
        <pt x="136" y="704" on="1"/>
        <pt x="180" y="930" on="0"/>
        <pt x="457" y="1181" on="0"/>
        <pt x="648" y="1181" on="1"/>
        <pt x="831" y="1181" on="0"/>
        <pt x="1008" y="969" on="0"/>
        <pt x="968" y="768" on="1"/>
        <pt x="688" y="768" on="1"/>
        <pt x="709" y="877" on="0"/>
        <pt x="676" y="956" on="0"/>
        <pt x="603" y="956" on="1"/>
        <pt x="540" y="956" on="0"/>
        <pt x="440" y="817" on="0"/>
        <pt x="418" y="705" on="1"/>
        <pt x="369" y="461" on="1"/>
        <pt x="344" y="339" on="0"/>
        <pt x="385" y="208" on="0"/>
        <pt x="454" y="208" on="1"/>
        <pt x="519" y="208" on="0"/>
        <pt x="590" y="295" on="0"/>
        <pt x="611" y="398" on="1"/>
      </contour>
    </TTGlyph>
    <TTGlyph name="Cacute" xMin="57" yMin="-21" xMax="1163" yMax="1847">
      <component glyphName="C" x="0" y="0" flags="0x4"/>
      <component glyphName="acute" x="404" y="369" flags="0x4"/>
    </TTGlyph>
    <TTGlyph name="Cacute.smcp" xMin="45" yMin="-17" xMax="1022" yMax="1519">
      <component glyphName="C.smcp" x="0" y="0" flags="0x204"/>
      <component glyphName="acute" x="291" y="41" flags="0x4"/>
    </TTGlyph>
    <TTGlyph name="Ccaron" xMin="57" yMin="-21" xMax="1164" yMax="1893">
      <component glyphName="C" x="0" y="0" flags="0x4"/>
      <component glyphName="caron" x="195" y="371" flags="0x4"/>
    </TTGlyph>
    <TTGlyph name="Ccaron.smcp" xMin="45" yMin="-17" xMax="1051" yMax="1565">
      <component glyphName="C.smcp" x="0" y="0" flags="0x204"/>
      <component glyphName="caron" x="82" y="43" flags="0x4"/>
    </TTGlyph>
    <TTGlyph name="Ccedilla" xMin="57" yMin="-460" xMax="1163" yMax="1477">
      <component glyphName="C" x="0" y="0" flags="0x4"/>
      <component glyphName="cedilla" x="311" y="0" flags="0x4"/>
    </TTGlyph>
    <TTGlyph name="Ccedilla.smcp" xMin="45" yMin="-460" xMax="1008" yMax="1181">
      <component glyphName="C.smcp" x="0" y="0" flags="0x204"/>
      <component glyphName="cedilla" x="266" y="0" flags="0x4"/>
    </TTGlyph>
    <TTGlyph name="Ccircumflex" xMin="57" yMin="-21" xMax="1163" yMax="1874">
      <component glyphName="C" x="0" y="0" flags="0x4"/>
      <component glyphName="circumflex" x="172" y="360" flags="0x4"/>
    </TTGlyph>
    <TTGlyph name="Ccircumflex.smcp" xMin="45" yMin="-17" xMax="1008" yMax="1546">
      <component glyphName="C.smcp" x="0" y="0" flags="0x204"/>
      <component glyphName="circumflex" x="59" y="32" flags="0x4"/>
    </TTGlyph>
    <TTGlyph name="Chi" xMin="-40" yMin="0" xMax="1213" yMax="1456">
      <component glyphName="X" x="0" y="0" flags="0x204"/>
    </TTGlyph>
    <TTGlyph name="D" xMin="22" yMin="0" xMax="1158" yMax="1456">
      <contour>
        <pt x="22" y="0" on="1"/>
        <pt x="313" y="1456" on="1"/>
        <pt x="704" y="1456" on="1"/>
        <pt x="908" y="1456" on="0"/>
        <pt x="1158" y="1100" on="0"/>
        <pt x="1106" y="841" on="1"/>
        <pt x="1057" y="596" on="1"/>
        <pt x="999" y="308" on="0"/>
        <pt x="694" y="0" on="0"/>
        <pt x="478" y="0" on="1"/>
      </contour>
      <contour>
        <pt x="550" y="1228" on="1"/>
        <pt x="350" y="227" on="1"/>
        <pt x="507" y="227" on="1"/>
        <pt x="607" y="227" on="0"/>
        <pt x="740" y="421" on="0"/>
        <pt x="775" y="596" on="1"/>
        <pt x="825" y="843" on="1"/>
        <pt x="859" y="1020" on="0"/>
        <pt x="759" y="1228" on="0"/>
        <pt x="643" y="1228" on="1"/>
      </contour>
    </TTGlyph>
    <TTGlyph name="D.smcp" xMin="22" yMin="0" xMax="1015" yMax="1165">
      <contour>
        <pt x="641" y="1165" on="1"/>
        <pt x="816" y="1165" on="0"/>
        <pt x="1015" y="894" on="0"/>
        <pt x="974" y="687" on="1"/>
        <pt x="932" y="477" on="1"/>
        <pt x="887" y="252" on="0"/>
        <pt x="599" y="0" on="0"/>
        <pt x="408" y="0" on="1"/>
        <pt x="22" y="0" on="1"/>
        <pt x="255" y="1165" on="1"/>
      </contour>
      <contour>
        <pt x="492" y="939" on="1"/>
        <pt x="349" y="225" on="1"/>
        <pt x="453" y="225" on="1"/>
        <pt x="517" y="225" on="0"/>
        <pt x="628" y="366" on="0"/>
        <pt x="650" y="477" on="1"/>
        <pt x="693" y="688" on="1"/>
        <pt x="716" y="807" on="0"/>
        <pt x="666" y="939" on="0"/>
        <pt x="596" y="939" on="1"/>
      </contour>
    </TTGlyph>
    <TTGlyph name="Dcaron" xMin="22" yMin="0" xMax="1158" yMax="1872">
      <component glyphName="D" x="0" y="0" flags="0x204"/>
      <component glyphName="caron" x="141" y="350" flags="0x4"/>
    </TTGlyph>
    <TTGlyph name="Dcaron.smcp" xMin="22" yMin="0" xMax="1015" yMax="1549">
      <component glyphName="D.smcp" x="0" y="0" flags="0x204"/>
      <component glyphName="caron" x="20" y="27" flags="0x4"/>
    </TTGlyph>
    <TTGlyph name="Dcroat" xMin="52" yMin="0" xMax="1188" yMax="1456">
      <contour>
        <pt x="52" y="0" on="1"/>
        <pt x="183" y="655" on="1"/>
        <pt x="80" y="655" on="1"/>
        <pt x="115" y="830" on="1"/>
        <pt x="218" y="830" on="1"/>
        <pt x="343" y="1456" on="1"/>
        <pt x="734" y="1456" on="1"/>
        <pt x="938" y="1456" on="0"/>
        <pt x="1188" y="1100" on="0"/>
        <pt x="1136" y="841" on="1"/>
        <pt x="1087" y="596" on="1"/>
        <pt x="1029" y="308" on="0"/>
        <pt x="724" y="0" on="0"/>
        <pt x="508" y="0" on="1"/>
      </contour>
      <contour>
        <pt x="637" y="655" on="1"/>
        <pt x="466" y="655" on="1"/>
        <pt x="380" y="227" on="1"/>
        <pt x="537" y="227" on="1"/>
        <pt x="637" y="227" on="0"/>
        <pt x="770" y="421" on="0"/>
        <pt x="805" y="596" on="1"/>
        <pt x="855" y="843" on="1"/>
        <pt x="889" y="1020" on="0"/>
        <pt x="789" y="1228" on="0"/>
        <pt x="673" y="1228" on="1"/>
        <pt x="580" y="1228" on="1"/>
        <pt x="501" y="830" on="1"/>
        <pt x="672" y="830" on="1"/>
      </contour>
    </TTGlyph>
    <TTGlyph name="Dcroat.smcp" xMin="-4" yMin="0" xMax="1015" yMax="1165">
      <contour>
        <pt x="641" y="1165" on="1"/>
        <pt x="816" y="1165" on="0"/>
        <pt x="1015" y="894" on="0"/>
        <pt x="974" y="687" on="1"/>
        <pt x="932" y="477" on="1"/>
        <pt x="887" y="252" on="0"/>
        <pt x="599" y="0" on="0"/>
        <pt x="408" y="0" on="1"/>
        <pt x="22" y="0" on="1"/>
        <pt x="123" y="508" on="1"/>
        <pt x="-4" y="508" on="1"/>
        <pt x="31" y="683" on="1"/>
        <pt x="158" y="683" on="1"/>
        <pt x="255" y="1165" on="1"/>
      </contour>
      <contour>
        <pt x="553" y="508" on="1"/>
        <pt x="405" y="508" on="1"/>
        <pt x="349" y="225" on="1"/>
        <pt x="453" y="225" on="1"/>
        <pt x="517" y="225" on="0"/>
        <pt x="628" y="366" on="0"/>
        <pt x="650" y="477" on="1"/>
        <pt x="693" y="688" on="1"/>
        <pt x="716" y="807" on="0"/>
        <pt x="666" y="939" on="0"/>
        <pt x="596" y="939" on="1"/>
        <pt x="492" y="939" on="1"/>
        <pt x="440" y="683" on="1"/>
        <pt x="588" y="683" on="1"/>
      </contour>
    </TTGlyph>
    <TTGlyph name="Delta" xMin="-60" yMin="0" xMax="1148" yMax="1456">
      <contour>
        <pt x="691" y="1456" on="1"/>
        <pt x="983" y="1456" on="1"/>
        <pt x="1148" y="0" on="1"/>
        <pt x="-60" y="0" on="1"/>
      </contour>
      <contour>
        <pt x="348" y="227" on="1"/>
        <pt x="830" y="227" on="1"/>
        <pt x="755" y="1031" on="1"/>
        <pt x="749" y="1032" on="1"/>
      </contour>
    </TTGlyph>
    <TTGlyph name="E" xMin="22" yMin="0" xMax="1136" yMax="1456">
      <contour>
        <pt x="893" y="639" on="1"/>
        <pt x="433" y="639" on="1"/>
        <pt x="350" y="227" on="1"/>
        <pt x="892" y="227" on="1"/>
        <pt x="847" y="0" on="1"/>
        <pt x="22" y="0" on="1"/>
        <pt x="313" y="1456" on="1"/>
        <pt x="1136" y="1456" on="1"/>
        <pt x="1091" y="1228" on="1"/>
        <pt x="550" y="1228" on="1"/>
        <pt x="478" y="866" on="1"/>
        <pt x="938" y="866" on="1"/>
      </contour>
    </TTGlyph>
    <TTGlyph name="E.smcp" xMin="22" yMin="0" xMax="958" yMax="1165">
      <contour>
        <pt x="753" y="490" on="1"/>
        <pt x="402" y="490" on="1"/>
        <pt x="349" y="225" on="1"/>
        <pt x="770" y="225" on="1"/>
        <pt x="725" y="0" on="1"/>
        <pt x="22" y="0" on="1"/>
        <pt x="255" y="1165" on="1"/>
        <pt x="958" y="1165" on="1"/>
        <pt x="913" y="939" on="1"/>
        <pt x="491" y="939" on="1"/>
        <pt x="447" y="716" on="1"/>
        <pt x="798" y="716" on="1"/>
      </contour>
    </TTGlyph>
    <TTGlyph name="Eacute" xMin="22" yMin="0" xMax="1136" yMax="1826">
      <component glyphName="E" x="0" y="0" flags="0x204"/>
      <component glyphName="acute" x="356" y="348" flags="0x4"/>
    </TTGlyph>
    <TTGlyph name="Eacute.smcp" xMin="22" yMin="0" xMax="981" yMax="1503">
      <component glyphName="E.smcp" x="0" y="0" flags="0x204"/>
      <component glyphName="acute" x="250" y="25" flags="0x4"/>
    </TTGlyph>
    <TTGlyph name="Ebreve" xMin="22" yMin="0" xMax="1136" yMax="1897">
      <component glyphName="E" x="0" y="0" flags="0x204"/>
      <component glyphName="breve" x="213" y="441" flags="0x4"/>
    </TTGlyph>
    <TTGlyph name="Ebreve.smcp" xMin="22" yMin="0" xMax="971" yMax="1574">
      <component glyphName="E.smcp" x="0" y="0" flags="0x204"/>
      <component glyphName="breve" x="107" y="118" flags="0x4"/>
    </TTGlyph>
    <TTGlyph name="Ecaron" xMin="22" yMin="0" xMax="1136" yMax="1872">
      <component glyphName="E" x="0" y="0" flags="0x204"/>
      <component glyphName="caron" x="147" y="350" flags="0x4"/>
    </TTGlyph>
    <TTGlyph name="Ecaron.smcp" xMin="22" yMin="0" xMax="1010" yMax="1549">
      <component glyphName="E.smcp" x="0" y="0" flags="0x204"/>
      <component glyphName="caron" x="41" y="27" flags="0x4"/>
    </TTGlyph>
    <TTGlyph name="Ecircumflex" xMin="22" yMin="0" xMax="1136" yMax="1853">
      <component glyphName="E" x="0" y="0" flags="0x204"/>
      <component glyphName="circumflex" x="124" y="339" flags="0x4"/>
    </TTGlyph>
    <TTGlyph name="Ecircumflex.smcp" xMin="22" yMin="0" xMax="958" yMax="1530">
      <component glyphName="E.smcp" x="0" y="0" flags="0x204"/>
      <component glyphName="circumflex" x="18" y="16" flags="0x4"/>
    </TTGlyph>
    <TTGlyph name="Edieresis" xMin="22" yMin="0" xMax="1136" yMax="1804">
      <component glyphName="E" x="0" y="0" flags="0x204"/>
      <component glyphName="dieresis" x="119" y="348" flags="0x4"/>
    </TTGlyph>
    <TTGlyph name="Edieresis.smcp" xMin="22" yMin="0" xMax="993" yMax="1481">
      <component glyphName="E.smcp" x="0" y="0" flags="0x204"/>
      <component glyphName="dieresis" x="13" y="25" flags="0x4"/>
    </TTGlyph>
    <TTGlyph name="Edotaccent" xMin="22" yMin="0" xMax="1136" yMax="1848">
      <component glyphName="E" x="0" y="0" flags="0x204"/>
      <component glyphName="dotaccent" x="294" y="378" flags="0x4"/>
    </TTGlyph>
    <TTGlyph name="Edotaccent.smcp" xMin="22" yMin="0" xMax="958" yMax="1525">
      <component glyphName="E.smcp" x="0" y="0" flags="0x204"/>
      <component glyphName="dotaccent" x="188" y="55" flags="0x4"/>
    </TTGlyph>
    <TTGlyph name="Egrave" xMin="22" yMin="0" xMax="1136" yMax="1825">
      <component glyphName="E" x="0" y="0" flags="0x204"/>
      <component glyphName="grave" x="204" y="348" flags="0x4"/>
    </TTGlyph>
    <TTGlyph name="Egrave.smcp" xMin="22" yMin="0" xMax="958" yMax="1502">
      <component glyphName="E.smcp" x="0" y="0" flags="0x204"/>
      <component glyphName="grave" x="98" y="25" flags="0x4"/>
    </TTGlyph>
    <TTGlyph name="Emacron" xMin="22" yMin="0" xMax="1136" yMax="1777">
      <component glyphName="E" x="0" y="0" flags="0x204"/>
      <component glyphName="macron" x="134" y="320" flags="0x4"/>
    </TTGlyph>
    <TTGlyph name="Emacron.smcp" xMin="22" yMin="0" xMax="967" yMax="1456">
      <component glyphName="E.smcp" x="0" y="0" flags="0x204"/>
      <component glyphName="macron" x="28" y="-1" flags="0x4"/>
    </TTGlyph>
    <TTGlyph name="Eng" xMin="20" yMin="-437" xMax="1288" yMax="1456">
      <contour>
        <pt x="1288" y="1456" on="1"/>
        <pt x="990" y="-33" on="1"/>
        <pt x="949" y="-239" on="0"/>
        <pt x="739" y="-437" on="0"/>
        <pt x="581" y="-437" on="1"/>
        <pt x="549" y="-437" on="0"/>
        <pt x="489" y="-428" on="0"/>
        <pt x="458" y="-419" on="1"/>
        <pt x="514" y="-197" on="1"/>
        <pt x="534" y="-203" on="0"/>
        <pt x="569" y="-209" on="0"/>
        <pt x="592" y="-209" on="1"/>
        <pt x="629" y="-209" on="0"/>
        <pt x="692" y="-117" on="0"/>
        <pt x="709" y="-33" on="1"/>
        <pt x="716" y="0" on="1"/>
        <pt x="716" y="1" on="1"/>
        <pt x="487" y="892" on="1"/>
        <pt x="481" y="892" on="1"/>
        <pt x="303" y="0" on="1"/>
        <pt x="20" y="0" on="1"/>
        <pt x="311" y="1456" on="1"/>
        <pt x="594" y="1456" on="1"/>
        <pt x="823" y="564" on="1"/>
        <pt x="829" y="564" on="1"/>
        <pt x="1007" y="1456" on="1"/>
      </contour>
    </TTGlyph>
    <TTGlyph name="Eogonek" xMin="22" yMin="-415" xMax="1136" yMax="1456">
      <component glyphName="E" x="0" y="0" flags="0x204"/>
      <component glyphName="ogonek" x="375" y="0" flags="0x4"/>
    </TTGlyph>
    <TTGlyph name="Eogonek.smcp" xMin="22" yMin="-415" xMax="958" yMax="1165">
      <component glyphName="E.smcp" x="0" y="0" flags="0x204"/>
      <component glyphName="ogonek" x="346" y="0" flags="0x4"/>
    </TTGlyph>
    <TTGlyph name="Epsilon" xMin="22" yMin="0" xMax="1136" yMax="1456">
      <component glyphName="E" x="0" y="0" flags="0x204"/>
    </TTGlyph>
    <TTGlyph name="Epsilontonos" xMin="57" yMin="0" xMax="1236" yMax="1625">
      <component glyphName="E" x="100" y="0" flags="0x4"/>
      <component glyphName="tonos" x="-331" y="2" flags="0x4"/>
    </TTGlyph>
    <TTGlyph name="Eta" xMin="22" yMin="0" xMax="1292" yMax="1456">
      <component glyphName="H" x="0" y="0" flags="0x204"/>
    </TTGlyph>
    <TTGlyph name="Etatonos" xMin="91" yMin="0" xMax="1392" yMax="1622">
      <component glyphName="H" x="100" y="0" flags="0x4"/>
      <component glyphName="tonos" x="-297" y="-1" flags="0x4"/>
    </TTGlyph>
    <TTGlyph name="Eth" xMin="52" yMin="0" xMax="1188" yMax="1456">
      <contour>
        <pt x="52" y="0" on="1"/>
        <pt x="183" y="655" on="1"/>
        <pt x="80" y="655" on="1"/>
        <pt x="115" y="830" on="1"/>
        <pt x="218" y="830" on="1"/>
        <pt x="343" y="1456" on="1"/>
        <pt x="734" y="1456" on="1"/>
        <pt x="938" y="1456" on="0"/>
        <pt x="1188" y="1100" on="0"/>
        <pt x="1136" y="841" on="1"/>
        <pt x="1087" y="596" on="1"/>
        <pt x="1029" y="308" on="0"/>
        <pt x="724" y="0" on="0"/>
        <pt x="508" y="0" on="1"/>
      </contour>
      <contour>
        <pt x="637" y="655" on="1"/>
        <pt x="466" y="655" on="1"/>
        <pt x="380" y="227" on="1"/>
        <pt x="537" y="227" on="1"/>
        <pt x="637" y="227" on="0"/>
        <pt x="770" y="421" on="0"/>
        <pt x="805" y="596" on="1"/>
        <pt x="855" y="843" on="1"/>
        <pt x="889" y="1020" on="0"/>
        <pt x="789" y="1228" on="0"/>
        <pt x="673" y="1228" on="1"/>
        <pt x="580" y="1228" on="1"/>
        <pt x="501" y="830" on="1"/>
        <pt x="672" y="830" on="1"/>
      </contour>
    </TTGlyph>
    <TTGlyph name="Eth.smcp" xMin="-4" yMin="0" xMax="1015" yMax="1165">
      <contour>
        <pt x="641" y="1165" on="1"/>
        <pt x="816" y="1165" on="0"/>
        <pt x="1015" y="894" on="0"/>
        <pt x="974" y="687" on="1"/>
        <pt x="932" y="477" on="1"/>
        <pt x="887" y="252" on="0"/>
        <pt x="599" y="0" on="0"/>
        <pt x="408" y="0" on="1"/>
        <pt x="22" y="0" on="1"/>
        <pt x="123" y="508" on="1"/>
        <pt x="-4" y="508" on="1"/>
        <pt x="31" y="683" on="1"/>
        <pt x="158" y="683" on="1"/>
        <pt x="255" y="1165" on="1"/>
      </contour>
      <contour>
        <pt x="553" y="508" on="1"/>
        <pt x="405" y="508" on="1"/>
        <pt x="349" y="225" on="1"/>
        <pt x="453" y="225" on="1"/>
        <pt x="517" y="225" on="0"/>
        <pt x="628" y="366" on="0"/>
        <pt x="650" y="477" on="1"/>
        <pt x="693" y="688" on="1"/>
        <pt x="716" y="807" on="0"/>
        <pt x="666" y="939" on="0"/>
        <pt x="596" y="939" on="1"/>
        <pt x="492" y="939" on="1"/>
        <pt x="440" y="683" on="1"/>
        <pt x="588" y="683" on="1"/>
      </contour>
    </TTGlyph>
    <TTGlyph name="Euro" xMin="74" yMin="-21" xMax="1036" yMax="1477">
      <contour>
        <pt x="781" y="454" on="1"/>
        <pt x="468" y="454" on="1"/>
        <pt x="466" y="442" on="1"/>
        <pt x="443" y="333" on="0"/>
        <pt x="506" y="206" on="0"/>
        <pt x="590" y="206" on="1"/>
        <pt x="633" y="206" on="0"/>
        <pt x="731" y="223" on="0"/>
        <pt x="775" y="239" on="1"/>
        <pt x="749" y="10" on="1"/>
        <pt x="698" y="-5" on="0"/>
        <pt x="596" y="-21" on="0"/>
        <pt x="545" y="-21" on="1"/>
        <pt x="355" y="-21" on="0"/>
        <pt x="144" y="250" on="0"/>
        <pt x="184" y="442" on="1"/>
        <pt x="186" y="454" on="1"/>
        <pt x="74" y="454" on="1"/>
        <pt x="112" y="654" on="1"/>
        <pt x="224" y="654" on="1"/>
        <pt x="249" y="770" on="1"/>
        <pt x="137" y="770" on="1"/>
        <pt x="178" y="970" on="1"/>
        <pt x="291" y="970" on="1"/>
        <pt x="294" y="986" on="1"/>
        <pt x="337" y="1209" on="0"/>
        <pt x="635" y="1477" on="0"/>
        <pt x="843" y="1477" on="1"/>
        <pt x="889" y="1477" on="0"/>
        <pt x="985" y="1460" on="0"/>
        <pt x="1036" y="1446" on="1"/>
        <pt x="970" y="1214" on="1"/>
        <pt x="930" y="1230" on="0"/>
        <pt x="844" y="1249" on="0"/>
        <pt x="798" y="1249" on="1"/>
        <pt x="722" y="1249" on="0"/>
        <pt x="595" y="1092" on="0"/>
        <pt x="577" y="988" on="1"/>
        <pt x="573" y="970" on="1"/>
        <pt x="885" y="970" on="1"/>
        <pt x="844" y="770" on="1"/>
        <pt x="532" y="770" on="1"/>
        <pt x="507" y="654" on="1"/>
        <pt x="819" y="654" on="1"/>
      </contour>
    </TTGlyph>
    <TTGlyph name="F" xMin="22" yMin="0" xMax="1143" yMax="1456">
      <contour>
        <pt x="890" y="605" on="1"/>
        <pt x="426" y="605" on="1"/>
        <pt x="305" y="0" on="1"/>
        <pt x="22" y="0" on="1"/>
        <pt x="313" y="1456" on="1"/>
        <pt x="1143" y="1456" on="1"/>
        <pt x="1098" y="1228" on="1"/>
        <pt x="550" y="1228" on="1"/>
        <pt x="471" y="832" on="1"/>
        <pt x="935" y="832" on="1"/>
      </contour>
    </TTGlyph>
    <TTGlyph name="F.smcp" xMin="22" yMin="0" xMax="981" yMax="1165">
      <contour>
        <pt x="771" y="461" on="1"/>
        <pt x="396" y="461" on="1"/>
        <pt x="304" y="0" on="1"/>
        <pt x="22" y="0" on="1"/>
        <pt x="255" y="1165" on="1"/>
        <pt x="981" y="1165" on="1"/>
        <pt x="936" y="939" on="1"/>
        <pt x="492" y="939" on="1"/>
        <pt x="441" y="688" on="1"/>
        <pt x="817" y="688" on="1"/>
      </contour>
    </TTGlyph>
    <TTGlyph name="G" xMin="45" yMin="-21" xMax="1182" yMax="1477">
      <contour>
        <pt x="988" y="216" on="1"/>
        <pt x="912" y="122" on="0"/>
        <pt x="658" y="-21" on="0"/>
        <pt x="485" y="-21" on="1"/>
        <pt x="275" y="-21" on="0"/>
        <pt x="45" y="258" on="0"/>
        <pt x="95" y="506" on="1"/>
        <pt x="184" y="950" on="1"/>
        <pt x="237" y="1218" on="0"/>
        <pt x="546" y="1477" on="0"/>
        <pt x="766" y="1477" on="1"/>
        <pt x="983" y="1477" on="0"/>
        <pt x="1182" y="1234" on="0"/>
        <pt x="1144" y="1018" on="1"/>
        <pt x="1141" y="1013" on="1"/>
        <pt x="875" y="1013" on="1"/>
        <pt x="897" y="1136" on="0"/>
        <pt x="826" y="1249" on="0"/>
        <pt x="729" y="1249" on="1"/>
        <pt x="639" y="1249" on="0"/>
        <pt x="495" y="1099" on="0"/>
        <pt x="466" y="952" on="1"/>
        <pt x="377" y="506" on="1"/>
        <pt x="344" y="343" on="0"/>
        <pt x="423" y="206" on="0"/>
        <pt x="530" y="206" on="1"/>
        <pt x="603" y="206" on="0"/>
        <pt x="691" y="254" on="0"/>
        <pt x="722" y="297" on="1"/>
        <pt x="775" y="558" on="1"/>
        <pt x="601" y="558" on="1"/>
        <pt x="641" y="758" on="1"/>
        <pt x="1097" y="758" on="1"/>
      </contour>
    </TTGlyph>
    <TTGlyph name="G.smcp" xMin="45" yMin="-17" xMax="1040" yMax="1181">
      <contour>
        <pt x="898" y="161" on="1"/>
        <pt x="821" y="85" on="0"/>
        <pt x="599" y="-17" on="0"/>
        <pt x="437" y="-17" on="1"/>
        <pt x="253" y="-17" on="0"/>
        <pt x="45" y="253" on="0"/>
        <pt x="87" y="461" on="1"/>
        <pt x="136" y="704" on="1"/>
        <pt x="180" y="928" on="0"/>
        <pt x="470" y="1181" on="0"/>
        <pt x="663" y="1181" on="1"/>
        <pt x="845" y="1181" on="0"/>
        <pt x="1040" y="984" on="0"/>
        <pt x="998" y="805" on="1"/>
        <pt x="996" y="800" on="1"/>
        <pt x="721" y="799" on="1"/>
        <pt x="740" y="882" on="0"/>
        <pt x="693" y="956" on="0"/>
        <pt x="618" y="956" on="1"/>
        <pt x="553" y="956" on="0"/>
        <pt x="439" y="814" on="0"/>
        <pt x="418" y="705" on="1"/>
        <pt x="369" y="461" on="1"/>
        <pt x="344" y="340" on="0"/>
        <pt x="403" y="208" on="0"/>
        <pt x="482" y="208" on="1"/>
        <pt x="537" y="208" on="0"/>
        <pt x="607" y="232" on="0"/>
        <pt x="634" y="254" on="1"/>
        <pt x="669" y="430" on="1"/>
        <pt x="515" y="430" on="1"/>
        <pt x="553" y="621" on="1"/>
        <pt x="990" y="621" on="1"/>
      </contour>
    </TTGlyph>
    <TTGlyph name="Gamma" xMin="23" yMin="0" xMax="1100" yMax="1456">
      <contour>
        <pt x="1055" y="1228" on="1"/>
        <pt x="552" y="1228" on="1"/>
        <pt x="306" y="0" on="1"/>
        <pt x="23" y="0" on="1"/>
        <pt x="314" y="1456" on="1"/>
        <pt x="1100" y="1456" on="1"/>
      </contour>
    </TTGlyph>
    <TTGlyph name="Gbreve" xMin="45" yMin="-21" xMax="1182" yMax="1918">
      <component glyphName="G" x="0" y="0" flags="0x204"/>
      <component glyphName="breve" x="277" y="462" flags="0x4"/>
    </TTGlyph>
    <TTGlyph name="Gbreve.smcp" xMin="45" yMin="-17" xMax="1040" yMax="1590">
      <component glyphName="G.smcp" x="0" y="0" flags="0x204"/>
      <component glyphName="breve" x="172" y="134" flags="0x4"/>
    </TTGlyph>
    <TTGlyph name="Gcircumflex" xMin="45" yMin="-21" xMax="1182" yMax="1874">
      <component glyphName="G" x="0" y="0" flags="0x204"/>
      <component glyphName="circumflex" x="188" y="360" flags="0x4"/>
    </TTGlyph>
    <TTGlyph name="Gcircumflex.smcp" xMin="45" yMin="-17" xMax="1040" yMax="1546">
      <component glyphName="G.smcp" x="0" y="0" flags="0x204"/>
      <component glyphName="circumflex" x="83" y="32" flags="0x4"/>
    </TTGlyph>
    <TTGlyph name="Gcommaaccent" xMin="45" yMin="-489" xMax="1182" yMax="1477">
      <component glyphName="G" x="0" y="0" flags="0x204"/>
      <component glyphName="commaaccent" x="307" y="-363" flags="0x4"/>
    </TTGlyph>
    <TTGlyph name="Gcommaaccent.smcp" xMin="45" yMin="-489" xMax="1040" yMax="1181">
      <component glyphName="G.smcp" x="0" y="0" flags="0x204"/>
      <component glyphName="commaaccent" x="262" y="-363" flags="0x4"/>
    </TTGlyph>
    <TTGlyph name="H" xMin="22" yMin="0" xMax="1292" yMax="1456">
      <contour>
        <pt x="1001" y="0" on="1"/>
        <pt x="720" y="0" on="1"/>
        <pt x="840" y="603" on="1"/>
        <pt x="425" y="603" on="1"/>
        <pt x="305" y="0" on="1"/>
        <pt x="22" y="0" on="1"/>
        <pt x="313" y="1456" on="1"/>
        <pt x="596" y="1456" on="1"/>
        <pt x="471" y="830" on="1"/>
        <pt x="886" y="830" on="1"/>
        <pt x="1011" y="1456" on="1"/>
        <pt x="1292" y="1456" on="1"/>
      </contour>
    </TTGlyph>
    <TTGlyph name="H.smcp" xMin="22" yMin="0" xMax="1140" yMax="1165">
      <contour>
        <pt x="907" y="0" on="1"/>
        <pt x="623" y="0" on="1"/>
        <pt x="714" y="458" on="1"/>
        <pt x="395" y="458" on="1"/>
        <pt x="304" y="0" on="1"/>
        <pt x="22" y="0" on="1"/>
        <pt x="255" y="1165" on="1"/>
        <pt x="537" y="1165" on="1"/>
        <pt x="440" y="684" on="1"/>
        <pt x="759" y="684" on="1"/>
        <pt x="856" y="1165" on="1"/>
        <pt x="1140" y="1165" on="1"/>
      </contour>
    </TTGlyph>
    <TTGlyph name="Hbar" xMin="28" yMin="0" xMax="1340" yMax="1456">
      <contour>
        <pt x="1246" y="1196" on="1"/>
        <pt x="1340" y="1196" on="1"/>
        <pt x="1307" y="1029" on="1"/>
        <pt x="1212" y="1029" on="1"/>
        <pt x="1007" y="0" on="1"/>
        <pt x="726" y="0" on="1"/>
        <pt x="846" y="603" on="1"/>
        <pt x="431" y="603" on="1"/>
        <pt x="311" y="0" on="1"/>
        <pt x="28" y="0" on="1"/>
        <pt x="233" y="1029" on="1"/>
        <pt x="145" y="1029" on="1"/>
        <pt x="178" y="1196" on="1"/>
        <pt x="267" y="1196" on="1"/>
        <pt x="319" y="1456" on="1"/>
        <pt x="602" y="1456" on="1"/>
        <pt x="550" y="1196" on="1"/>
        <pt x="965" y="1196" on="1"/>
        <pt x="1017" y="1456" on="1"/>
        <pt x="1298" y="1456" on="1"/>
      </contour>
      <contour>
        <pt x="477" y="830" on="1"/>
        <pt x="892" y="830" on="1"/>
        <pt x="931" y="1029" on="1"/>
        <pt x="516" y="1029" on="1"/>
      </contour>
    </TTGlyph>
    <TTGlyph name="Hcircumflex" xMin="22" yMin="0" xMax="1292" yMax="1853">
      <component glyphName="H" x="0" y="0" flags="0x204"/>
      <component glyphName="circumflex" x="226" y="339" flags="0x4"/>
    </TTGlyph>
    <TTGlyph name="Hcircumflex.smcp" xMin="22" yMin="0" xMax="1140" yMax="1530">
      <component glyphName="H.smcp" x="0" y="0" flags="0x204"/>
      <component glyphName="circumflex" x="106" y="16" flags="0x4"/>
    </TTGlyph>
    <TTGlyph name="I" xMin="35" yMin="0" xMax="607" yMax="1456">
      <contour>
        <pt x="316" y="0" on="1"/>
        <pt x="35" y="0" on="1"/>
        <pt x="326" y="1456" on="1"/>
        <pt x="607" y="1456" on="1"/>
      </contour>
    </TTGlyph>
    <TTGlyph name="I.smcp" xMin="22" yMin="0" xMax="537" yMax="1165">
      <contour>
        <pt x="304" y="0" on="1"/>
        <pt x="22" y="0" on="1"/>
        <pt x="255" y="1165" on="1"/>
        <pt x="537" y="1165" on="1"/>
      </contour>
    </TTGlyph>
    <TTGlyph name="IJ" xMin="35" yMin="-21" xMax="1603" yMax="1456">
      <component glyphName="I" x="0" y="0" flags="0x4"/>
      <component glyphName="J" x="523" y="0" flags="0x4"/>
    </TTGlyph>
    <TTGlyph name="Iacute" xMin="35" yMin="0" xMax="855" yMax="1826">
      <component glyphName="I" x="0" y="0" flags="0x204"/>
      <component glyphName="acute" x="124" y="348" flags="0x4"/>
    </TTGlyph>
    <TTGlyph name="Iacute.smcp" xMin="22" yMin="0" xMax="777" yMax="1503">
      <component glyphName="I.smcp" x="0" y="0" flags="0x204"/>
      <component glyphName="acute" x="46" y="25" flags="0x4"/>
    </TTGlyph>
    <TTGlyph name="Ibreve" xMin="35" yMin="0" xMax="847" yMax="1897">
      <component glyphName="I" x="0" y="0" flags="0x204"/>
      <component glyphName="breve" x="-17" y="441" flags="0x4"/>
    </TTGlyph>
    <TTGlyph name="Ibreve.smcp" xMin="22" yMin="0" xMax="769" yMax="1574">
      <component glyphName="I.smcp" x="0" y="0" flags="0x204"/>
      <component glyphName="breve" x="-95" y="118" flags="0x4"/>
    </TTGlyph>
    <TTGlyph name="Icircumflex" xMin="35" yMin="0" xMax="826" yMax="1853">
      <component glyphName="I" x="0" y="0" flags="0x204"/>
      <component glyphName="circumflex" x="-106" y="339" flags="0x4"/>
    </TTGlyph>
    <TTGlyph name="Icircumflex.smcp" xMin="22" yMin="0" xMax="748" yMax="1530">
      <component glyphName="I.smcp" x="0" y="0" flags="0x204"/>
      <component glyphName="circumflex" x="-184" y="16" flags="0x4"/>
    </TTGlyph>
    <TTGlyph name="Idieresis" xMin="35" yMin="0" xMax="869" yMax="1804">
      <component glyphName="I" x="0" y="0" flags="0x204"/>
      <component glyphName="dieresis" x="-111" y="348" flags="0x4"/>
    </TTGlyph>
    <TTGlyph name="Idieresis.smcp" xMin="22" yMin="0" xMax="791" yMax="1481">
      <component glyphName="I.smcp" x="0" y="0" flags="0x204"/>
      <component glyphName="dieresis" x="-189" y="25" flags="0x4"/>
    </TTGlyph>
    <TTGlyph name="Idotaccent" xMin="35" yMin="0" xMax="685" yMax="1848">
      <component glyphName="I" x="0" y="0" flags="0x204"/>
      <component glyphName="dotaccent" x="62" y="378" flags="0x4"/>
    </TTGlyph>
    <TTGlyph name="Idotaccent.smcp" xMin="22" yMin="0" xMax="609" yMax="1525">
      <component glyphName="I.smcp" x="0" y="0" flags="0x204"/>
      <component glyphName="dotaccent" x="-14" y="55" flags="0x4"/>
    </TTGlyph>
    <TTGlyph name="Igrave" xMin="35" yMin="0" xMax="635" yMax="1825">
      <component glyphName="I" x="0" y="0" flags="0x204"/>
      <component glyphName="grave" x="-26" y="348" flags="0x4"/>
    </TTGlyph>
    <TTGlyph name="Igrave.smcp" xMin="22" yMin="0" xMax="557" yMax="1502">
      <component glyphName="I.smcp" x="0" y="0" flags="0x204"/>
      <component glyphName="grave" x="-104" y="25" flags="0x4"/>
    </TTGlyph>
    <TTGlyph name="Imacron" xMin="35" yMin="0" xMax="843" yMax="1777">
      <component glyphName="I" x="0" y="0" flags="0x204"/>
      <component glyphName="macron" x="-96" y="320" flags="0x4"/>
    </TTGlyph>
    <TTGlyph name="Imacron.smcp" xMin="22" yMin="0" xMax="765" yMax="1456">
      <component glyphName="I.smcp" x="0" y="0" flags="0x204"/>
      <component glyphName="macron" x="-174" y="-1" flags="0x4"/>
    </TTGlyph>
    <TTGlyph name="Iogonek" xMin="-107" yMin="-415" xMax="607" yMax="1456">
      <component glyphName="I" x="0" y="0" flags="0x204"/>
      <component glyphName="ogonek" x="-39" y="0" flags="0x4"/>
    </TTGlyph>
    <TTGlyph name="Iogonek.smcp" xMin="-119" yMin="-415" xMax="537" yMax="1165">
      <component glyphName="I.smcp" x="0" y="0" flags="0x204"/>
      <component glyphName="ogonek" x="-51" y="0" flags="0x4"/>
    </TTGlyph>
    <TTGlyph name="Iota" xMin="35" yMin="0" xMax="607" yMax="1456">
      <component glyphName="I" x="0" y="0" flags="0x204"/>
    </TTGlyph>
    <TTGlyph name="Iotadieresis" xMin="35" yMin="0" xMax="869" yMax="1804">
      <component glyphName="I" x="0" y="0" flags="0x204"/>
      <component glyphName="dieresis" x="-111" y="348" flags="0x4"/>
    </TTGlyph>
    <TTGlyph name="Iotatonos" xMin="98" yMin="0" xMax="707" yMax="1624">
      <component glyphName="I" x="100" y="0" flags="0x4"/>
      <component glyphName="tonos" x="-290" y="1" flags="0x4"/>
    </TTGlyph>
    <TTGlyph name="Itilde" xMin="35" yMin="0" xMax="855" yMax="1899">
      <component glyphName="I" x="0" y="0" flags="0x204"/>
      <component glyphName="tilde" x="-51" y="373" flags="0x4"/>
    </TTGlyph>
    <TTGlyph name="Itilde.smcp" xMin="22" yMin="0" xMax="777" yMax="1576">
      <component glyphName="I.smcp" x="0" y="0" flags="0x204"/>
      <component glyphName="tilde" x="-129" y="50" flags="0x4"/>
    </TTGlyph>
    <TTGlyph name="J" xMin="9" yMin="-21" xMax="1080" yMax="1456">
      <contour>
        <pt x="799" y="1456" on="1"/>
        <pt x="1080" y="1456" on="1"/>
        <pt x="878" y="444" on="1"/>
        <pt x="831" y="215" on="0"/>
        <pt x="557" y="-21" on="0"/>
        <pt x="377" y="-21" on="1"/>
        <pt x="199" y="-21" on="0"/>
        <pt x="9" y="208" on="0"/>
        <pt x="53" y="427" on="1"/>
        <pt x="336" y="427" on="1"/>
        <pt x="311" y="304" on="0"/>
        <pt x="364" y="206" on="0"/>
        <pt x="422" y="206" on="1"/>
        <pt x="471" y="206" on="0"/>
        <pt x="575" y="334" on="0"/>
        <pt x="597" y="444" on="1"/>
      </contour>
    </TTGlyph>
    <TTGlyph name="J.smcp" xMin="-27" yMin="-20" xMax="932" yMax="1165">
      <contour>
        <pt x="652" y="1165" on="1"/>
        <pt x="932" y="1165" on="1"/>
        <pt x="776" y="386" on="1"/>
        <pt x="736" y="189" on="0"/>
        <pt x="489" y="-20" on="0"/>
        <pt x="320" y="-20" on="1"/>
        <pt x="153" y="-20" on="0"/>
        <pt x="-27" y="182" on="0"/>
        <pt x="13" y="365" on="1"/>
        <pt x="16" y="370" on="1"/>
        <pt x="292" y="370" on="1"/>
        <pt x="274" y="283" on="0"/>
        <pt x="322" y="206" on="0"/>
        <pt x="365" y="206" on="1"/>
        <pt x="404" y="206" on="0"/>
        <pt x="480" y="305" on="0"/>
        <pt x="496" y="386" on="1"/>
      </contour>
    </TTGlyph>
    <TTGlyph name="Jcircumflex" xMin="9" yMin="-21" xMax="1278" yMax="1848">
      <component glyphName="J" x="0" y="0" flags="0x204"/>
      <component glyphName="circumflex" x="346" y="334" flags="0x4"/>
    </TTGlyph>
    <TTGlyph name="Jcircumflex.smcp" xMin="-27" yMin="-20" xMax="1137" yMax="1530">
      <component glyphName="J.smcp" x="0" y="0" flags="0x204"/>
      <component glyphName="circumflex" x="205" y="16" flags="0x4"/>
    </TTGlyph>
    <TTGlyph name="K" xMin="22" yMin="0" xMax="1258" yMax="1456">
      <contour>
        <pt x="507" y="602" on="1"/>
        <pt x="424" y="602" on="1"/>
        <pt x="304" y="0" on="1"/>
        <pt x="22" y="0" on="1"/>
        <pt x="313" y="1456" on="1"/>
        <pt x="595" y="1456" on="1"/>
        <pt x="476" y="862" on="1"/>
        <pt x="563" y="862" on="1"/>
        <pt x="888" y="1456" on="1"/>
        <pt x="1258" y="1456" on="1"/>
        <pt x="762" y="734" on="1"/>
        <pt x="979" y="0" on="1"/>
        <pt x="655" y="0" on="1"/>
      </contour>
    </TTGlyph>
    <TTGlyph name="K.smcp" xMin="22" yMin="0" xMax="1098" yMax="1165">
      <contour>
        <pt x="464" y="444" on="1"/>
        <pt x="393" y="444" on="1"/>
        <pt x="304" y="0" on="1"/>
        <pt x="22" y="0" on="1"/>
        <pt x="255" y="1165" on="1"/>
        <pt x="537" y="1165" on="1"/>
        <pt x="446" y="712" on="1"/>
        <pt x="503" y="712" on="1"/>
        <pt x="740" y="1165" on="1"/>
        <pt x="1098" y="1165" on="1"/>
        <pt x="738" y="631" on="1"/>
        <pt x="871" y="0" on="1"/>
        <pt x="510" y="0" on="1"/>
      </contour>
    </TTGlyph>
    <TTGlyph name="Kappa" xMin="22" yMin="0" xMax="1258" yMax="1456">
      <component glyphName="K" x="0" y="0" flags="0x4"/>
    </TTGlyph>
    <TTGlyph name="Kcommaaccent" xMin="22" yMin="-489" xMax="1258" yMax="1456">
      <component glyphName="K" x="0" y="0" flags="0x4"/>
      <component glyphName="commaaccent" x="279" y="-363" flags="0x4"/>
    </TTGlyph>
    <TTGlyph name="Kcommaaccent.smcp" xMin="22" yMin="-489" xMax="1098" yMax="1165">
      <component glyphName="K.smcp" x="0" y="0" flags="0x204"/>
      <component glyphName="commaaccent" x="208" y="-363" flags="0x4"/>
    </TTGlyph>
    <TTGlyph name="L" xMin="22" yMin="0" xMax="852" yMax="1456">
      <contour>
        <pt x="350" y="227" on="1"/>
        <pt x="852" y="227" on="1"/>
        <pt x="807" y="0" on="1"/>
        <pt x="22" y="0" on="1"/>
        <pt x="313" y="1456" on="1"/>
        <pt x="596" y="1456" on="1"/>
      </contour>
    </TTGlyph>
    <TTGlyph name="L.smcp" xMin="22" yMin="0" xMax="713" yMax="1165">
      <contour>
        <pt x="349" y="225" on="1"/>
        <pt x="713" y="225" on="1"/>
        <pt x="668" y="0" on="1"/>
        <pt x="22" y="0" on="1"/>
        <pt x="255" y="1165" on="1"/>
        <pt x="537" y="1165" on="1"/>
      </contour>
    </TTGlyph>
    <TTGlyph name="Lacute" xMin="22" yMin="0" xMax="852" yMax="1810">
      <component glyphName="L" x="0" y="0" flags="0x204"/>
      <component glyphName="acute" x="110" y="332" flags="0x4"/>
    </TTGlyph>
    <TTGlyph name="Lacute.smcp" xMin="22" yMin="0" xMax="764" yMax="1496">
      <component glyphName="L.smcp" x="0" y="0" flags="0x204"/>
      <component glyphName="acute" x="33" y="18" flags="0x4"/>
    </TTGlyph>
    <TTGlyph name="Lambda" xMin="-69" yMin="0" xMax="995" yMax="1456">
      <contour>
        <pt x="225" y="0" on="1"/>
        <pt x="-69" y="0" on="1"/>
        <pt x="606" y="1456" on="1"/>
        <pt x="900" y="1456" on="1"/>
        <pt x="995" y="0" on="1"/>
        <pt x="700" y="0" on="1"/>
        <pt x="690" y="1122" on="1"/>
        <pt x="690" y="1119" on="1"/>
        <pt x="684" y="1120" on="1"/>
        <pt x="685" y="1123" on="1"/>
      </contour>
    </TTGlyph>
    <TTGlyph name="Lcaron" xMin="22" yMin="0" xMax="956" yMax="1459">
      <component glyphName="L" x="0" y="0" flags="0x204"/>
      <component glyphName="commaaccent" x="719" y="1193" flags="0x4"/>
    </TTGlyph>
    <TTGlyph name="Lcaron.smcp" xMin="22" yMin="0" xMax="852" yMax="1167">
      <component glyphName="L.smcp" x="0" y="0" flags="0x204"/>
      <component glyphName="commaaccent" x="615" y="901" flags="0x4"/>
    </TTGlyph>
    <TTGlyph name="Lcommaaccent" xMin="22" yMin="-489" xMax="852" yMax="1456">
      <component glyphName="L" x="0" y="0" flags="0x204"/>
      <component glyphName="commaaccent" x="238" y="-363" flags="0x4"/>
    </TTGlyph>
    <TTGlyph name="Lcommaaccent.smcp" xMin="22" yMin="-489" xMax="713" yMax="1165">
      <component glyphName="L.smcp" x="0" y="0" flags="0x204"/>
      <component glyphName="commaaccent" x="154" y="-363" flags="0x4"/>
    </TTGlyph>
    <TTGlyph name="Ldot" xMin="22" yMin="0" xMax="856" yMax="1456">
      <component glyphName="L" x="0" y="0" flags="0x204"/>
      <component glyphName="dotaccent" x="233" y="-549" flags="0x4"/>
    </TTGlyph>
    <TTGlyph name="Ldot.smcp" xMin="22" yMin="0" xMax="786" yMax="1165">
      <component glyphName="L.smcp" x="0" y="0" flags="0x204"/>
      <component glyphName="dotaccent" x="163" y="-716" flags="0x4"/>
    </TTGlyph>
    <TTGlyph name="Lslash" xMin="13" yMin="0" xMax="843" yMax="1456">
      <contour>
        <pt x="474" y="894" on="1"/>
        <pt x="667" y="956" on="1"/>
        <pt x="629" y="765" on="1"/>
        <pt x="436" y="703" on="1"/>
        <pt x="341" y="227" on="1"/>
        <pt x="843" y="227" on="1"/>
        <pt x="798" y="0" on="1"/>
        <pt x="13" y="0" on="1"/>
        <pt x="134" y="605" on="1"/>
        <pt x="50" y="578" on="1"/>
        <pt x="88" y="769" on="1"/>
        <pt x="172" y="796" on="1"/>
        <pt x="304" y="1456" on="1"/>
        <pt x="587" y="1456" on="1"/>
      </contour>
    </TTGlyph>
    <TTGlyph name="M" xMin="17" yMin="0" xMax="1525" yMax="1456">
      <contour>
        <pt x="674" y="1456" on="1"/>
        <pt x="698" y="389" on="1"/>
        <pt x="704" y="388" on="1"/>
        <pt x="1157" y="1456" on="1"/>
        <pt x="1525" y="1456" on="1"/>
        <pt x="1234" y="0" on="1"/>
        <pt x="953" y="0" on="1"/>
        <pt x="1038" y="423" on="1"/>
        <pt x="1167" y="956" on="1"/>
        <pt x="1161" y="958" on="1"/>
        <pt x="717" y="0" on="1"/>
        <pt x="530" y="0" on="1"/>
        <pt x="471" y="947" on="1"/>
        <pt x="465" y="948" on="1"/>
        <pt x="383" y="423" on="1"/>
        <pt x="298" y="0" on="1"/>
        <pt x="17" y="0" on="1"/>
        <pt x="308" y="1456" on="1"/>
      </contour>
    </TTGlyph>
    <TTGlyph name="M.smcp" xMin="22" yMin="0" xMax="1325" yMax="1165">
      <contour>
        <pt x="926" y="580" on="1"/>
        <pt x="920" y="582" on="1"/>
        <pt x="646" y="0" on="1"/>
        <pt x="459" y="0" on="1"/>
        <pt x="420" y="551" on="1"/>
        <pt x="414" y="551" on="1"/>
        <pt x="304" y="0" on="1"/>
        <pt x="22" y="0" on="1"/>
        <pt x="255" y="1165" on="1"/>
        <pt x="602" y="1165" on="1"/>
        <pt x="618" y="344" on="1"/>
        <pt x="624" y="343" on="1"/>
        <pt x="971" y="1165" on="1"/>
        <pt x="1325" y="1165" on="1"/>
        <pt x="1092" y="0" on="1"/>
        <pt x="810" y="0" on="1"/>
      </contour>
    </TTGlyph>
    <TTGlyph name="Mu" xMin="17" yMin="0" xMax="1525" yMax="1456">
      <component glyphName="M" x="0" y="0" flags="0x204"/>
    </TTGlyph>
    <TTGlyph name="N" xMin="22" yMin="0" xMax="1290" yMax="1456">
      <contour>
        <pt x="999" y="0" on="1"/>
        <pt x="718" y="0" on="1"/>
        <pt x="492" y="907" on="1"/>
        <pt x="486" y="907" on="1"/>
        <pt x="305" y="0" on="1"/>
        <pt x="22" y="0" on="1"/>
        <pt x="313" y="1456" on="1"/>
        <pt x="596" y="1456" on="1"/>
        <pt x="822" y="551" on="1"/>
        <pt x="828" y="551" on="1"/>
        <pt x="1009" y="1456" on="1"/>
        <pt x="1290" y="1456" on="1"/>
      </contour>
    </TTGlyph>
    <TTGlyph name="N.smcp" xMin="22" yMin="0" xMax="1122" yMax="1165">
      <contour>
        <pt x="889" y="0" on="1"/>
        <pt x="606" y="0" on="1"/>
        <pt x="433" y="620" on="1"/>
        <pt x="427" y="619" on="1"/>
        <pt x="304" y="0" on="1"/>
        <pt x="22" y="0" on="1"/>
        <pt x="255" y="1165" on="1"/>
        <pt x="537" y="1165" on="1"/>
        <pt x="709" y="545" on="1"/>
        <pt x="715" y="546" on="1"/>
        <pt x="839" y="1165" on="1"/>
        <pt x="1122" y="1165" on="1"/>
      </contour>
    </TTGlyph>
    <TTGlyph name="Nacute" xMin="22" yMin="0" xMax="1290" yMax="1826">
      <component glyphName="N" x="0" y="0" flags="0x204"/>
      <component glyphName="acute" x="458" y="348" flags="0x4"/>
    </TTGlyph>
    <TTGlyph name="Nacute.smcp" xMin="22" yMin="0" xMax="1122" yMax="1503">
      <component glyphName="N.smcp" x="0" y="0" flags="0x204"/>
      <component glyphName="acute" x="327" y="25" flags="0x4"/>
    </TTGlyph>
    <TTGlyph name="Ncaron" xMin="22" yMin="0" xMax="1290" yMax="1872">
      <component glyphName="N" x="0" y="0" flags="0x204"/>
      <component glyphName="caron" x="249" y="350" flags="0x4"/>
    </TTGlyph>
    <TTGlyph name="Ncaron.smcp" xMin="22" yMin="0" xMax="1122" yMax="1549">
      <component glyphName="N.smcp" x="0" y="0" flags="0x204"/>
      <component glyphName="caron" x="118" y="27" flags="0x4"/>
    </TTGlyph>
    <TTGlyph name="Ncommaaccent" xMin="22" yMin="-489" xMax="1290" yMax="1456">
      <component glyphName="N" x="0" y="0" flags="0x204"/>
      <component glyphName="commaaccent" x="337" y="-363" flags="0x4"/>
    </TTGlyph>
    <TTGlyph name="Ncommaaccent.smcp" xMin="22" yMin="-489" xMax="1122" yMax="1165">
      <component glyphName="N.smcp" x="0" y="0" flags="0x204"/>
      <component glyphName="commaaccent" x="270" y="-363" flags="0x4"/>
    </TTGlyph>
    <TTGlyph name="Ntilde" xMin="22" yMin="0" xMax="1290" yMax="1899">
      <component glyphName="N" x="0" y="0" flags="0x204"/>
      <component glyphName="tilde" x="281" y="373" flags="0x4"/>
    </TTGlyph>
    <TTGlyph name="Ntilde.smcp" xMin="22" yMin="0" xMax="1122" yMax="1576">
      <component glyphName="N.smcp" x="0" y="0" flags="0x204"/>
      <component glyphName="tilde" x="150" y="50" flags="0x4"/>
    </TTGlyph>
    <TTGlyph name="Nu" xMin="22" yMin="0" xMax="1290" yMax="1456">
      <component glyphName="N" x="0" y="0" flags="0x204"/>
    </TTGlyph>
    <TTGlyph name="O" xMin="61" yMin="-21" xMax="1218" yMax="1477">
      <contour>
        <pt x="1114" y="596" on="1"/>
        <pt x="1056" y="307" on="0"/>
        <pt x="736" y="-21" on="0"/>
        <pt x="512" y="-21" on="1"/>
        <pt x="303" y="-21" on="0"/>
        <pt x="61" y="338" on="0"/>
        <pt x="114" y="600" on="1"/>
        <pt x="166" y="859" on="1"/>
        <pt x="224" y="1149" on="0"/>
        <pt x="533" y="1477" on="0"/>
        <pt x="755" y="1477" on="1"/>
        <pt x="966" y="1477" on="0"/>
        <pt x="1218" y="1115" on="0"/>
        <pt x="1166" y="855" on="1"/>
      </contour>
      <contour>
        <pt x="885" y="857" on="1"/>
        <pt x="921" y="1034" on="0"/>
        <pt x="820" y="1248" on="0"/>
        <pt x="710" y="1248" on="1"/>
        <pt x="616" y="1248" on="0"/>
        <pt x="481" y="1036" on="0"/>
        <pt x="446" y="861" on="1"/>
        <pt x="394" y="600" on="1"/>
        <pt x="358" y="420" on="0"/>
        <pt x="448" y="207" on="0"/>
        <pt x="557" y="207" on="1"/>
        <pt x="652" y="207" on="0"/>
        <pt x="798" y="422" on="0"/>
        <pt x="833" y="596" on="1"/>
      </contour>
    </TTGlyph>
    <TTGlyph name="O.smcp" xMin="41" yMin="-20" xMax="1033" yMax="1181">
      <contour>
        <pt x="943" y="461" on="1"/>
        <pt x="897" y="233" on="0"/>
        <pt x="613" y="-20" on="0"/>
        <pt x="419" y="-20" on="1"/>
        <pt x="241" y="-20" on="0"/>
        <pt x="41" y="252" on="0"/>
        <pt x="83" y="461" on="1"/>
        <pt x="132" y="704" on="1"/>
        <pt x="176" y="929" on="0"/>
        <pt x="463" y="1181" on="0"/>
        <pt x="658" y="1181" on="1"/>
        <pt x="835" y="1181" on="0"/>
        <pt x="1033" y="912" on="0"/>
        <pt x="992" y="704" on="1"/>
      </contour>
      <contour>
        <pt x="712" y="705" on="1"/>
        <pt x="734" y="819" on="0"/>
        <pt x="683" y="956" on="0"/>
        <pt x="613" y="956" on="1"/>
        <pt x="546" y="956" on="0"/>
        <pt x="435" y="811" on="0"/>
        <pt x="414" y="705" on="1"/>
        <pt x="365" y="461" on="1"/>
        <pt x="341" y="343" on="0"/>
        <pt x="390" y="206" on="0"/>
        <pt x="464" y="206" on="1"/>
        <pt x="528" y="206" on="0"/>
        <pt x="641" y="353" on="0"/>
        <pt x="663" y="461" on="1"/>
      </contour>
    </TTGlyph>
    <TTGlyph name="OE" xMin="66" yMin="-21" xMax="1776" yMax="1477">
      <contour>
        <pt x="1487" y="0" on="1"/>
        <pt x="738" y="0" on="1"/>
        <pt x="664" y="-10" on="0"/>
        <pt x="559" y="-21" on="0"/>
        <pt x="507" y="-21" on="1"/>
        <pt x="296" y="-21" on="0"/>
        <pt x="66" y="316" on="0"/>
        <pt x="118" y="576" on="1"/>
        <pt x="179" y="880" on="1"/>
        <pt x="235" y="1162" on="0"/>
        <pt x="574" y="1477" on="0"/>
        <pt x="805" y="1477" on="1"/>
        <pt x="854" y="1477" on="0"/>
        <pt x="972" y="1465" on="0"/>
        <pt x="1029" y="1456" on="1"/>
        <pt x="1776" y="1456" on="1"/>
        <pt x="1731" y="1228" on="1"/>
        <pt x="1190" y="1228" on="1"/>
        <pt x="1118" y="866" on="1"/>
        <pt x="1578" y="866" on="1"/>
        <pt x="1533" y="639" on="1"/>
        <pt x="1073" y="639" on="1"/>
        <pt x="990" y="227" on="1"/>
        <pt x="1532" y="227" on="1"/>
      </contour>
      <contour>
        <pt x="552" y="206" on="1"/>
        <pt x="586" y="206" on="0"/>
        <pt x="664" y="212" on="0"/>
        <pt x="705" y="218" on="1"/>
        <pt x="909" y="1237" on="1"/>
        <pt x="872" y="1243" on="0"/>
        <pt x="797" y="1250" on="0"/>
        <pt x="760" y="1250" on="1"/>
        <pt x="660" y="1250" on="0"/>
        <pt x="495" y="1057" on="0"/>
        <pt x="460" y="882" on="1"/>
        <pt x="399" y="576" on="1"/>
        <pt x="361" y="385" on="0"/>
        <pt x="443" y="206" on="0"/>
      </contour>
    </TTGlyph>
    <TTGlyph name="Oacute" xMin="61" yMin="-21" xMax="1218" yMax="1847">
      <component glyphName="O" x="0" y="0" flags="0x4"/>
      <component glyphName="acute" x="429" y="369" flags="0x4"/>
    </TTGlyph>
    <TTGlyph name="Oacute.smcp" xMin="41" yMin="-20" xMax="1033" yMax="1522">
      <component glyphName="O.smcp" x="0" y="0" flags="0x204"/>
      <component glyphName="acute" x="300" y="44" flags="0x4"/>
    </TTGlyph>
    <TTGlyph name="Obreve" xMin="61" yMin="-21" xMax="1218" yMax="1918">
      <component glyphName="O" x="0" y="0" flags="0x4"/>
      <component glyphName="breve" x="286" y="462" flags="0x4"/>
    </TTGlyph>
    <TTGlyph name="Obreve.smcp" xMin="41" yMin="-20" xMax="1033" yMax="1593">
      <component glyphName="O.smcp" x="0" y="0" flags="0x204"/>
      <component glyphName="breve" x="157" y="137" flags="0x4"/>
    </TTGlyph>
    <TTGlyph name="Ocircumflex" xMin="61" yMin="-21" xMax="1218" yMax="1874">
      <component glyphName="O" x="0" y="0" flags="0x4"/>
      <component glyphName="circumflex" x="197" y="360" flags="0x4"/>
    </TTGlyph>
    <TTGlyph name="Ocircumflex.smcp" xMin="41" yMin="-20" xMax="1033" yMax="1549">
      <component glyphName="O.smcp" x="0" y="0" flags="0x204"/>
      <component glyphName="circumflex" x="68" y="35" flags="0x4"/>
    </TTGlyph>
    <TTGlyph name="Odieresis" xMin="61" yMin="-21" xMax="1218" yMax="1825">
      <component glyphName="O" x="0" y="0" flags="0x4"/>
      <component glyphName="dieresis" x="192" y="369" flags="0x4"/>
    </TTGlyph>
    <TTGlyph name="Odieresis.smcp" xMin="41" yMin="-20" xMax="1043" yMax="1500">
      <component glyphName="O.smcp" x="0" y="0" flags="0x204"/>
      <component glyphName="dieresis" x="63" y="44" flags="0x4"/>
    </TTGlyph>
    <TTGlyph name="Ograve" xMin="61" yMin="-21" xMax="1218" yMax="1846">
      <component glyphName="O" x="0" y="0" flags="0x4"/>
      <component glyphName="grave" x="277" y="369" flags="0x4"/>
    </TTGlyph>
    <TTGlyph name="Ograve.smcp" xMin="41" yMin="-20" xMax="1033" yMax="1521">
      <component glyphName="O.smcp" x="0" y="0" flags="0x204"/>
      <component glyphName="grave" x="148" y="44" flags="0x4"/>
    </TTGlyph>
    <TTGlyph name="Ohorn" xMin="45" yMin="-21" xMax="1517" yMax="1607">
      <contour>
        <pt x="1068" y="523" on="1"/>
        <pt x="1013" y="250" on="0"/>
        <pt x="698" y="-21" on="0"/>
        <pt x="472" y="-21" on="1"/>
        <pt x="265" y="-21" on="0"/>
        <pt x="45" y="271" on="0"/>
        <pt x="96" y="523" on="1"/>
        <pt x="177" y="931" on="1"/>
        <pt x="231" y="1203" on="0"/>
        <pt x="545" y="1477" on="0"/>
        <pt x="770" y="1477" on="1"/>
        <pt x="881" y="1477" on="0"/>
        <pt x="1057" y="1384" on="0"/>
        <pt x="1107" y="1298" on="1"/>
        <pt x="1184" y="1333" on="0"/>
        <pt x="1295" y="1492" on="0"/>
        <pt x="1318" y="1607" on="1"/>
        <pt x="1517" y="1607" on="1"/>
        <pt x="1476" y="1404" on="0"/>
        <pt x="1297" y="1157" on="0"/>
        <pt x="1162" y="1108" on="1"/>
        <pt x="1165" y="1067" on="0"/>
        <pt x="1158" y="978" on="0"/>
        <pt x="1149" y="931" on="1"/>
      </contour>
      <contour>
        <pt x="869" y="933" on="1"/>
        <pt x="901" y="1100" on="0"/>
        <pt x="828" y="1248" on="0"/>
        <pt x="725" y="1248" on="1"/>
        <pt x="629" y="1248" on="0"/>
        <pt x="487" y="1087" on="0"/>
        <pt x="457" y="933" on="1"/>
        <pt x="375" y="523" on="1"/>
        <pt x="341" y="355" on="0"/>
        <pt x="413" y="207" on="0"/>
        <pt x="517" y="207" on="1"/>
        <pt x="611" y="207" on="0"/>
        <pt x="755" y="368" on="0"/>
        <pt x="787" y="523" on="1"/>
      </contour>
    </TTGlyph>
    <TTGlyph name="Ohungarumlaut" xMin="61" yMin="-21" xMax="1330" yMax="1888">
      <component glyphName="O" x="0" y="0" flags="0x4"/>
      <component glyphName="hungarumlaut" x="226" y="370" flags="0x4"/>
    </TTGlyph>
    <TTGlyph name="Ohungarumlaut.smcp" xMin="41" yMin="-20" xMax="1201" yMax="1563">
      <component glyphName="O.smcp" x="0" y="0" flags="0x204"/>
      <component glyphName="hungarumlaut" x="97" y="45" flags="0x4"/>
    </TTGlyph>
    <TTGlyph name="Omacron" xMin="61" yMin="-21" xMax="1218" yMax="1798">
      <component glyphName="O" x="0" y="0" flags="0x4"/>
      <component glyphName="macron" x="207" y="341" flags="0x4"/>
    </TTGlyph>
    <TTGlyph name="Omacron.smcp" xMin="41" yMin="-20" xMax="1033" yMax="1473">
      <component glyphName="O.smcp" x="0" y="0" flags="0x204"/>
      <component glyphName="macron" x="78" y="16" flags="0x4"/>
    </TTGlyph>
    <TTGlyph name="Omega" xMin="31" yMin="0" xMax="1179" yMax="1477">
      <contour>
        <pt x="542" y="127" on="1"/>
        <pt x="563" y="230" on="1"/>
        <pt x="564" y="235" on="1"/>
        <pt x="632" y="272" on="0"/>
        <pt x="744" y="529" on="0"/>
        <pt x="793" y="772" on="1"/>
        <pt x="811" y="862" on="1"/>
        <pt x="851" y="1059" on="0"/>
        <pt x="806" y="1244" on="0"/>
        <pt x="730" y="1238" on="1"/>
        <pt x="724" y="1239" on="1"/>
        <pt x="657" y="1244" on="0"/>
        <pt x="529" y="1044" on="0"/>
        <pt x="493" y="862" on="1"/>
        <pt x="475" y="772" on="1"/>
        <pt x="423" y="511" on="0"/>
        <pt x="437" y="272" on="0"/>
        <pt x="495" y="235" on="1"/>
        <pt x="448" y="0" on="1"/>
        <pt x="31" y="0" on="1"/>
        <pt x="77" y="230" on="1"/>
        <pt x="283" y="230" on="1"/>
        <pt x="197" y="319" on="0"/>
        <pt x="126" y="604" on="0"/>
        <pt x="160" y="772" on="1"/>
        <pt x="178" y="860" on="1"/>
        <pt x="236" y="1150" on="0"/>
        <pt x="559" y="1477" on="0"/>
        <pt x="774" y="1477" on="1"/>
        <pt x="971" y="1477" on="0"/>
        <pt x="1179" y="1126" on="0"/>
        <pt x="1126" y="860" on="1"/>
        <pt x="1108" y="772" on="1"/>
        <pt x="1072" y="594" on="0"/>
        <pt x="894" y="315" on="0"/>
        <pt x="775" y="230" on="1"/>
        <pt x="981" y="230" on="1"/>
        <pt x="935" y="0" on="1"/>
        <pt x="517" y="0" on="1"/>
      </contour>
    </TTGlyph>
    <TTGlyph name="Omegatonos" xMin="51" yMin="0" xMax="1199" yMax="1623">
      <component glyphName="Omega" x="20" y="0" flags="0x4"/>
      <component glyphName="tonos" x="-253" y="0" flags="0x4"/>
    </TTGlyph>
    <TTGlyph name="Omicron" xMin="61" yMin="-21" xMax="1218" yMax="1477">
      <component glyphName="O" x="0" y="0" flags="0x4"/>
    </TTGlyph>
    <TTGlyph name="Omicrontonos" xMin="81" yMin="-21" xMax="1238" yMax="1623">
      <component glyphName="O" x="20" y="0" flags="0x4"/>
      <component glyphName="tonos" x="-237" y="0" flags="0x4"/>
    </TTGlyph>
    <TTGlyph name="Oslash" xMin="69" yMin="-93" xMax="1264" yMax="1516">
      <contour>
        <pt x="1073" y="523" on="1"/>
        <pt x="1018" y="250" on="0"/>
        <pt x="703" y="-21" on="0"/>
        <pt x="477" y="-21" on="1"/>
        <pt x="420" y="-21" on="0"/>
        <pt x="317" y="3" on="0"/>
        <pt x="273" y="27" on="1"/>
        <pt x="194" y="-93" on="1"/>
        <pt x="69" y="-93" on="1"/>
        <pt x="190" y="89" on="1"/>
        <pt x="121" y="160" on="0"/>
        <pt x="72" y="381" on="0"/>
        <pt x="101" y="523" on="1"/>
        <pt x="182" y="931" on="1"/>
        <pt x="236" y="1203" on="0"/>
        <pt x="550" y="1477" on="0"/>
        <pt x="775" y="1477" on="1"/>
        <pt x="855" y="1477" on="0"/>
        <pt x="995" y="1427" on="0"/>
        <pt x="1047" y="1380" on="1"/>
        <pt x="1138" y="1516" on="1"/>
        <pt x="1264" y="1516" on="1"/>
        <pt x="1115" y="1293" on="1"/>
        <pt x="1154" y="1222" on="0"/>
        <pt x="1175" y="1039" on="0"/>
        <pt x="1154" y="931" on="1"/>
      </contour>
      <contour>
        <pt x="380" y="523" on="1"/>
        <pt x="369" y="470" on="0"/>
        <pt x="362" y="388" on="0"/>
        <pt x="366" y="364" on="1"/>
        <pt x="372" y="362" on="1"/>
        <pt x="883" y="1133" on="1"/>
        <pt x="870" y="1192" on="0"/>
        <pt x="794" y="1248" on="0"/>
        <pt x="730" y="1248" on="1"/>
        <pt x="634" y="1248" on="0"/>
        <pt x="492" y="1087" on="0"/>
        <pt x="462" y="933" on="1"/>
      </contour>
      <contour>
        <pt x="870" y="913" on="1"/>
        <pt x="864" y="915" on="1"/>
        <pt x="414" y="239" on="1"/>
        <pt x="433" y="222" on="0"/>
        <pt x="487" y="207" on="0"/>
        <pt x="522" y="207" on="1"/>
        <pt x="616" y="207" on="0"/>
        <pt x="760" y="368" on="0"/>
        <pt x="792" y="523" on="1"/>
      </contour>
    </TTGlyph>
    <TTGlyph name="Oslashacute" xMin="69" yMin="-93" xMax="1264" yMax="1888">
      <component glyphName="Oslash" x="0" y="0" flags="0x204"/>
      <component glyphName="acute" x="467" y="410" flags="0x4"/>
    </TTGlyph>
    <TTGlyph name="Otilde" xMin="61" yMin="-21" xMax="1218" yMax="1920">
      <component glyphName="O" x="0" y="0" flags="0x4"/>
      <component glyphName="tilde" x="252" y="394" flags="0x4"/>
    </TTGlyph>
    <TTGlyph name="Otilde.smcp" xMin="41" yMin="-20" xMax="1033" yMax="1595">
      <component glyphName="O.smcp" x="0" y="0" flags="0x204"/>
      <component glyphName="tilde" x="123" y="69" flags="0x4"/>
    </TTGlyph>
    <TTGlyph name="P" xMin="22" yMin="0" xMax="1199" yMax="1456">
      <contour>
        <pt x="409" y="522" on="1"/>
        <pt x="305" y="0" on="1"/>
        <pt x="22" y="0" on="1"/>
        <pt x="313" y="1456" on="1"/>
        <pt x="801" y="1456" on="1"/>
        <pt x="995" y="1456" on="0"/>
        <pt x="1199" y="1193" on="0"/>
        <pt x="1159" y="989" on="1"/>
        <pt x="1114" y="766" on="0"/>
        <pt x="825" y="522" on="0"/>
        <pt x="614" y="522" on="1"/>
      </contour>
      <contour>
        <pt x="455" y="750" on="1"/>
        <pt x="660" y="750" on="1"/>
        <pt x="737" y="750" on="0"/>
        <pt x="857" y="887" on="0"/>
        <pt x="877" y="987" on="1"/>
        <pt x="899" y="1098" on="0"/>
        <pt x="840" y="1228" on="0"/>
        <pt x="756" y="1228" on="1"/>
        <pt x="551" y="1228" on="1"/>
      </contour>
    </TTGlyph>
    <TTGlyph name="P.smcp" xMin="22" yMin="0" xMax="1049" yMax="1165">
      <contour>
        <pt x="376" y="359" on="1"/>
        <pt x="304" y="0" on="1"/>
        <pt x="22" y="0" on="1"/>
        <pt x="255" y="1165" on="1"/>
        <pt x="677" y="1165" on="1"/>
        <pt x="852" y="1165" on="0"/>
        <pt x="1049" y="934" on="0"/>
        <pt x="1015" y="762" on="1"/>
        <pt x="977" y="574" on="0"/>
        <pt x="707" y="359" on="0"/>
        <pt x="516" y="359" on="1"/>
      </contour>
      <contour>
        <pt x="421" y="586" on="1"/>
        <pt x="561" y="586" on="1"/>
        <pt x="619" y="586" on="0"/>
        <pt x="719" y="690" on="0"/>
        <pt x="733" y="760" on="1"/>
        <pt x="748" y="837" on="0"/>
        <pt x="694" y="939" on="0"/>
        <pt x="632" y="939" on="1"/>
        <pt x="492" y="939" on="1"/>
      </contour>
    </TTGlyph>
    <TTGlyph name="Phi" xMin="80" yMin="0" xMax="1369" yMax="1456">
      <contour>
        <pt x="980" y="1285" on="1"/>
        <pt x="1167" y="1273" on="0"/>
        <pt x="1369" y="961" on="0"/>
        <pt x="1321" y="721" on="1"/>
        <pt x="1269" y="465" on="0"/>
        <pt x="964" y="179" on="0"/>
        <pt x="757" y="170" on="1"/>
        <pt x="723" y="0" on="1"/>
        <pt x="442" y="0" on="1"/>
        <pt x="476" y="169" on="1"/>
        <pt x="286" y="179" on="0"/>
        <pt x="80" y="483" on="0"/>
        <pt x="128" y="719" on="1"/>
        <pt x="180" y="982" on="0"/>
        <pt x="490" y="1277" on="0"/>
        <pt x="699" y="1285" on="1"/>
        <pt x="733" y="1456" on="1"/>
        <pt x="1014" y="1456" on="1"/>
      </contour>
      <contour>
        <pt x="404" y="719" on="1"/>
        <pt x="374" y="571" on="0"/>
        <pt x="439" y="423" on="0"/>
        <pt x="520" y="423" on="1"/>
        <pt x="526" y="423" on="1"/>
        <pt x="647" y="1027" on="1"/>
        <pt x="642" y="1029" on="1"/>
        <pt x="566" y="1025" on="0"/>
        <pt x="432" y="860" on="0"/>
      </contour>
      <contour>
        <pt x="1044" y="721" on="1"/>
        <pt x="1074" y="873" on="0"/>
        <pt x="1013" y="1027" on="0"/>
        <pt x="935" y="1029" on="1"/>
        <pt x="929" y="1029" on="1"/>
        <pt x="809" y="427" on="1"/>
        <pt x="814" y="424" on="1"/>
        <pt x="887" y="428" on="0"/>
        <pt x="1017" y="588" on="0"/>
      </contour>
    </TTGlyph>
    <TTGlyph name="Pi" xMin="22" yMin="0" xMax="1293" yMax="1456">
      <contour>
        <pt x="1002" y="0" on="1"/>
        <pt x="721" y="0" on="1"/>
        <pt x="967" y="1228" on="1"/>
        <pt x="551" y="1228" on="1"/>
        <pt x="305" y="0" on="1"/>
        <pt x="22" y="0" on="1"/>
        <pt x="313" y="1456" on="1"/>
        <pt x="1293" y="1456" on="1"/>
      </contour>
    </TTGlyph>
    <TTGlyph name="Psi" xMin="92" yMin="0" xMax="1402" yMax="1456">
      <contour>
        <pt x="799" y="605" on="1"/>
        <pt x="805" y="603" on="1"/>
        <pt x="877" y="619" on="0"/>
        <pt x="987" y="796" on="0"/>
        <pt x="1018" y="949" on="1"/>
        <pt x="1119" y="1456" on="1"/>
        <pt x="1402" y="1456" on="1"/>
        <pt x="1301" y="949" on="1"/>
        <pt x="1245" y="673" on="0"/>
        <pt x="958" y="377" on="0"/>
        <pt x="749" y="353" on="1"/>
        <pt x="679" y="0" on="1"/>
        <pt x="398" y="0" on="1"/>
        <pt x="468" y="352" on="1"/>
        <pt x="277" y="377" on="0"/>
        <pt x="92" y="692" on="0"/>
        <pt x="144" y="949" on="1"/>
        <pt x="245" y="1456" on="1"/>
        <pt x="527" y="1456" on="1"/>
        <pt x="426" y="949" on="1"/>
        <pt x="393" y="787" on="0"/>
        <pt x="439" y="615" on="0"/>
        <pt x="512" y="600" on="1"/>
        <pt x="518" y="601" on="1"/>
        <pt x="689" y="1456" on="1"/>
        <pt x="970" y="1456" on="1"/>
      </contour>
    </TTGlyph>
    <TTGlyph name="Q" xMin="67" yMin="-231" xMax="1224" yMax="1477">
      <contour>
        <pt x="1120" y="596" on="1"/>
        <pt x="1090" y="452" on="0"/>
        <pt x="980" y="223" on="0"/>
        <pt x="903" y="144" on="1"/>
        <pt x="1055" y="-81" on="1"/>
        <pt x="851" y="-231" on="1"/>
        <pt x="692" y="7" on="1"/>
        <pt x="650" y="-6" on="0"/>
        <pt x="563" y="-21" on="0"/>
        <pt x="518" y="-21" on="1"/>
        <pt x="309" y="-21" on="0"/>
        <pt x="67" y="338" on="0"/>
        <pt x="120" y="600" on="1"/>
        <pt x="172" y="859" on="1"/>
        <pt x="230" y="1149" on="0"/>
        <pt x="539" y="1477" on="0"/>
        <pt x="761" y="1477" on="1"/>
        <pt x="972" y="1477" on="0"/>
        <pt x="1224" y="1115" on="0"/>
        <pt x="1172" y="855" on="1"/>
      </contour>
      <contour>
        <pt x="891" y="857" on="1"/>
        <pt x="927" y="1034" on="0"/>
        <pt x="826" y="1248" on="0"/>
        <pt x="716" y="1248" on="1"/>
        <pt x="622" y="1248" on="0"/>
        <pt x="487" y="1036" on="0"/>
        <pt x="452" y="861" on="1"/>
        <pt x="400" y="600" on="1"/>
        <pt x="364" y="420" on="0"/>
        <pt x="454" y="207" on="0"/>
        <pt x="563" y="207" on="1"/>
        <pt x="658" y="207" on="0"/>
        <pt x="804" y="422" on="0"/>
        <pt x="839" y="596" on="1"/>
      </contour>
    </TTGlyph>
    <TTGlyph name="Q.smcp" xMin="45" yMin="-141" xMax="1037" yMax="1181">
      <contour>
        <pt x="947" y="461" on="1"/>
        <pt x="925" y="356" on="0"/>
        <pt x="839" y="186" on="0"/>
        <pt x="779" y="125" on="1"/>
        <pt x="861" y="-3" on="1"/>
        <pt x="656" y="-141" on="1"/>
        <pt x="565" y="0" on="1"/>
        <pt x="530" y="-9" on="0"/>
        <pt x="459" y="-20" on="0"/>
        <pt x="423" y="-20" on="1"/>
        <pt x="245" y="-20" on="0"/>
        <pt x="45" y="252" on="0"/>
        <pt x="87" y="461" on="1"/>
        <pt x="136" y="704" on="1"/>
        <pt x="180" y="929" on="0"/>
        <pt x="467" y="1181" on="0"/>
        <pt x="662" y="1181" on="1"/>
        <pt x="839" y="1181" on="0"/>
        <pt x="1037" y="912" on="0"/>
        <pt x="996" y="704" on="1"/>
      </contour>
      <contour>
        <pt x="716" y="705" on="1"/>
        <pt x="738" y="819" on="0"/>
        <pt x="687" y="956" on="0"/>
        <pt x="617" y="956" on="1"/>
        <pt x="550" y="956" on="0"/>
        <pt x="439" y="811" on="0"/>
        <pt x="418" y="705" on="1"/>
        <pt x="369" y="461" on="1"/>
        <pt x="345" y="343" on="0"/>
        <pt x="394" y="206" on="0"/>
        <pt x="468" y="206" on="1"/>
        <pt x="532" y="206" on="0"/>
        <pt x="645" y="353" on="0"/>
        <pt x="667" y="461" on="1"/>
      </contour>
    </TTGlyph>
    <TTGlyph name="R" xMin="23" yMin="0" xMax="1165" yMax="1455">
      <contour>
        <pt x="421" y="579" on="1"/>
        <pt x="305" y="0" on="1"/>
        <pt x="23" y="0" on="1"/>
        <pt x="314" y="1455" on="1"/>
        <pt x="771" y="1455" on="1"/>
        <pt x="963" y="1455" on="0"/>
        <pt x="1165" y="1224" on="0"/>
        <pt x="1126" y="1026" on="1"/>
        <pt x="1101" y="903" on="0"/>
        <pt x="972" y="744" on="0"/>
        <pt x="867" y="696" on="1"/>
        <pt x="962" y="656" on="0"/>
        <pt x="1027" y="477" on="0"/>
        <pt x="1002" y="352" on="1"/>
        <pt x="982" y="249" on="1"/>
        <pt x="969" y="185" on="0"/>
        <pt x="969" y="52" on="0"/>
        <pt x="996" y="21" on="1"/>
        <pt x="992" y="0" on="1"/>
        <pt x="700" y="0" on="1"/>
        <pt x="673" y="31" on="0"/>
        <pt x="684" y="169" on="0"/>
        <pt x="700" y="251" on="1"/>
        <pt x="720" y="350" on="1"/>
        <pt x="743" y="466" on="0"/>
        <pt x="686" y="579" on="0"/>
        <pt x="609" y="579" on="1"/>
      </contour>
      <contour>
        <pt x="466" y="806" on="1"/>
        <pt x="640" y="806" on="1"/>
        <pt x="712" y="806" on="0"/>
        <pt x="821" y="914" on="0"/>
        <pt x="841" y="1010" on="1"/>
        <pt x="862" y="1116" on="0"/>
        <pt x="805" y="1228" on="0"/>
        <pt x="726" y="1228" on="1"/>
        <pt x="551" y="1228" on="1"/>
      </contour>
    </TTGlyph>
    <TTGlyph name="R.smcp" xMin="22" yMin="0" xMax="988" yMax="1165">
      <contour>
        <pt x="386" y="413" on="1"/>
        <pt x="304" y="0" on="1"/>
        <pt x="22" y="0" on="1"/>
        <pt x="255" y="1165" on="1"/>
        <pt x="632" y="1165" on="1"/>
        <pt x="800" y="1165" on="0"/>
        <pt x="988" y="971" on="0"/>
        <pt x="957" y="813" on="1"/>
        <pt x="935" y="708" on="0"/>
        <pt x="821" y="569" on="0"/>
        <pt x="729" y="526" on="1"/>
        <pt x="816" y="494" on="0"/>
        <pt x="879" y="351" on="0"/>
        <pt x="859" y="250" on="1"/>
        <pt x="843" y="172" on="1"/>
        <pt x="835" y="125" on="0"/>
        <pt x="826" y="32" on="0"/>
        <pt x="835" y="13" on="1"/>
        <pt x="832" y="0" on="1"/>
        <pt x="542" y="0" on="1"/>
        <pt x="536" y="18" on="0"/>
        <pt x="553" y="130" on="0"/>
        <pt x="563" y="173" on="1"/>
        <pt x="578" y="249" on="1"/>
        <pt x="594" y="336" on="0"/>
        <pt x="547" y="413" on="0"/>
        <pt x="481" y="413" on="1"/>
      </contour>
      <contour>
        <pt x="432" y="640" on="1"/>
        <pt x="527" y="640" on="1"/>
        <pt x="574" y="640" on="0"/>
        <pt x="655" y="722" on="0"/>
        <pt x="669" y="791" on="1"/>
        <pt x="682" y="857" on="0"/>
        <pt x="637" y="939" on="0"/>
        <pt x="587" y="939" on="1"/>
        <pt x="492" y="939" on="1"/>
      </contour>
    </TTGlyph>
    <TTGlyph name="Racute" xMin="23" yMin="0" xMax="1165" yMax="1826">
      <component glyphName="R" x="0" y="0" flags="0x204"/>
      <component glyphName="acute" x="388" y="348" flags="0x4"/>
    </TTGlyph>
    <TTGlyph name="Racute.smcp" xMin="22" yMin="0" xMax="992" yMax="1503">
      <component glyphName="R.smcp" x="0" y="0" flags="0x204"/>
      <component glyphName="acute" x="261" y="25" flags="0x4"/>
    </TTGlyph>
    <TTGlyph name="Rcaron" xMin="23" yMin="0" xMax="1165" yMax="1872">
      <component glyphName="R" x="0" y="0" flags="0x204"/>
      <component glyphName="caron" x="179" y="350" flags="0x4"/>
    </TTGlyph>
    <TTGlyph name="Rcaron.smcp" xMin="22" yMin="0" xMax="1021" yMax="1549">
      <component glyphName="R.smcp" x="0" y="0" flags="0x204"/>
      <component glyphName="caron" x="52" y="27" flags="0x4"/>
    </TTGlyph>
    <TTGlyph name="Rcommaaccent" xMin="23" yMin="-489" xMax="1165" yMax="1455">
      <component glyphName="R" x="0" y="0" flags="0x204"/>
      <component glyphName="commaaccent" x="267" y="-363" flags="0x4"/>
    </TTGlyph>
    <TTGlyph name="Rcommaaccent.smcp" xMin="22" yMin="-489" xMax="988" yMax="1165">
      <component glyphName="R.smcp" x="0" y="0" flags="0x204"/>
      <component glyphName="commaaccent" x="204" y="-363" flags="0x4"/>
    </TTGlyph>
    <TTGlyph name="Rho" xMin="22" yMin="0" xMax="1199" yMax="1456">
      <component glyphName="P" x="0" y="0" flags="0x204"/>
    </TTGlyph>
    <TTGlyph name="S" xMin="43" yMin="-21" xMax="1105" yMax="1477">
      <contour>
        <pt x="708" y="353" on="1"/>
        <pt x="727" y="452" on="0"/>
        <pt x="656" y="551" on="0"/>
        <pt x="547" y="610" on="1"/>
        <pt x="346" y="692" on="0"/>
        <pt x="163" y="919" on="0"/>
        <pt x="199" y="1100" on="1"/>
        <pt x="235" y="1280" on="0"/>
        <pt x="505" y="1477" on="0"/>
        <pt x="691" y="1477" on="1"/>
        <pt x="889" y="1477" on="0"/>
        <pt x="1105" y="1237" on="0"/>
        <pt x="1060" y="1031" on="1"/>
        <pt x="1058" y="1026" on="1"/>
        <pt x="783" y="1026" on="1"/>
        <pt x="803" y="1128" on="0"/>
        <pt x="727" y="1249" on="0"/>
        <pt x="646" y="1249" on="1"/>
        <pt x="592" y="1249" on="0"/>
        <pt x="494" y="1163" on="0"/>
        <pt x="482" y="1102" on="1"/>
        <pt x="463" y="1008" on="0"/>
        <pt x="543" y="916" on="0"/>
        <pt x="679" y="849" on="1"/>
        <pt x="864" y="772" on="0"/>
        <pt x="1028" y="544" on="0"/>
        <pt x="990" y="355" on="1"/>
        <pt x="952" y="168" on="0"/>
        <pt x="686" y="-21" on="0"/>
        <pt x="498" y="-21" on="1"/>
        <pt x="304" y="-21" on="0"/>
        <pt x="43" y="196" on="0"/>
        <pt x="93" y="424" on="1"/>
        <pt x="95" y="429" on="1"/>
        <pt x="370" y="429" on="1"/>
        <pt x="344" y="302" on="0"/>
        <pt x="453" y="206" on="0"/>
        <pt x="543" y="206" on="1"/>
        <pt x="595" y="206" on="0"/>
        <pt x="695" y="291" on="0"/>
      </contour>
    </TTGlyph>
    <TTGlyph name="S.smcp" xMin="7" yMin="-20" xMax="969" yMax="1181">
      <contour>
        <pt x="576" y="323" on="1"/>
        <pt x="587" y="381" on="0"/>
        <pt x="539" y="449" on="0"/>
        <pt x="459" y="476" on="1"/>
        <pt x="279" y="518" on="0"/>
        <pt x="144" y="676" on="0"/>
        <pt x="177" y="839" on="1"/>
        <pt x="208" y="994" on="0"/>
        <pt x="446" y="1181" on="0"/>
        <pt x="624" y="1181" on="1"/>
        <pt x="794" y="1181" on="0"/>
        <pt x="969" y="978" on="0"/>
        <pt x="933" y="814" on="1"/>
        <pt x="931" y="809" on="1"/>
        <pt x="657" y="809" on="1"/>
        <pt x="672" y="887" on="0"/>
        <pt x="640" y="957" on="0"/>
        <pt x="579" y="957" on="1"/>
        <pt x="528" y="957" on="0"/>
        <pt x="467" y="891" on="0"/>
        <pt x="457" y="841" on="1"/>
        <pt x="444" y="779" on="0"/>
        <pt x="490" y="714" on="0"/>
        <pt x="584" y="685" on="1"/>
        <pt x="749" y="644" on="0"/>
        <pt x="886" y="483" on="0"/>
        <pt x="855" y="327" on="1"/>
        <pt x="822" y="163" on="0"/>
        <pt x="570" y="-20" on="0"/>
        <pt x="387" y="-20" on="1"/>
        <pt x="198" y="-20" on="0"/>
        <pt x="7" y="185" on="0"/>
        <pt x="46" y="353" on="1"/>
        <pt x="48" y="358" on="1"/>
        <pt x="323" y="358" on="1"/>
        <pt x="308" y="273" on="0"/>
        <pt x="363" y="205" on="0"/>
        <pt x="432" y="205" on="1"/>
        <pt x="493" y="205" on="0"/>
        <pt x="565" y="270" on="0"/>
      </contour>
    </TTGlyph>
    <TTGlyph name="Sacute" xMin="43" yMin="-21" xMax="1134" yMax="1847">
      <component glyphName="S" x="0" y="0" flags="0x4"/>
      <component glyphName="acute" x="403" y="369" flags="0x4"/>
    </TTGlyph>
    <TTGlyph name="Sacute.smcp" xMin="7" yMin="-20" xMax="991" yMax="1523">
      <component glyphName="S.smcp" x="0" y="0" flags="0x204"/>
      <component glyphName="acute" x="260" y="45" flags="0x4"/>
    </TTGlyph>
    <TTGlyph name="Scaron" xMin="43" yMin="-21" xMax="1163" yMax="1893">
      <component glyphName="S" x="0" y="0" flags="0x4"/>
      <component glyphName="caron" x="194" y="371" flags="0x4"/>
    </TTGlyph>
    <TTGlyph name="Scaron.smcp" xMin="7" yMin="-20" xMax="1020" yMax="1569">
      <component glyphName="S.smcp" x="0" y="0" flags="0x204"/>
      <component glyphName="caron" x="51" y="47" flags="0x4"/>
    </TTGlyph>
    <TTGlyph name="Scedilla" xMin="43" yMin="-468" xMax="1105" yMax="1477">
      <component glyphName="S" x="0" y="0" flags="0x4"/>
      <component glyphName="cedilla" x="341" y="-8" flags="0x4"/>
    </TTGlyph>
    <TTGlyph name="Scedilla.smcp" xMin="7" yMin="-465" xMax="969" yMax="1181">
      <component glyphName="S.smcp" x="0" y="0" flags="0x204"/>
      <component glyphName="cedilla" x="245" y="-5" flags="0x4"/>
    </TTGlyph>
    <TTGlyph name="Scircumflex" xMin="43" yMin="-21" xMax="1105" yMax="1874">
      <component glyphName="S" x="0" y="0" flags="0x4"/>
      <component glyphName="circumflex" x="171" y="360" flags="0x4"/>
    </TTGlyph>
    <TTGlyph name="Scircumflex.smcp" xMin="7" yMin="-20" xMax="969" yMax="1550">
      <component glyphName="S.smcp" x="0" y="0" flags="0x204"/>
      <component glyphName="circumflex" x="28" y="36" flags="0x4"/>
    </TTGlyph>
    <TTGlyph name="Sigma" xMin="-12" yMin="0" xMax="1104" yMax="1456">
      <contour>
        <pt x="771" y="730" on="1"/>
        <pt x="384" y="227" on="1"/>
        <pt x="872" y="227" on="1"/>
        <pt x="827" y="0" on="1"/>
        <pt x="-12" y="0" on="1"/>
        <pt x="17" y="144" on="1"/>
        <pt x="473" y="739" on="1"/>
        <pt x="251" y="1313" on="1"/>
        <pt x="279" y="1456" on="1"/>
        <pt x="1104" y="1456" on="1"/>
        <pt x="1059" y="1229" on="1"/>
        <pt x="589" y="1229" on="1"/>
        <pt x="775" y="748" on="1"/>
      </contour>
    </TTGlyph>
    <TTGlyph name="T" xMin="193" yMin="0" xMax="1131" yMax="1456">
      <contour>
        <pt x="1086" y="1228" on="1"/>
        <pt x="778" y="1228" on="1"/>
        <pt x="533" y="0" on="1"/>
        <pt x="252" y="0" on="1"/>
        <pt x="497" y="1228" on="1"/>
        <pt x="193" y="1228" on="1"/>
        <pt x="238" y="1456" on="1"/>
        <pt x="1131" y="1456" on="1"/>
      </contour>
    </TTGlyph>
    <TTGlyph name="T.smcp" xMin="148" yMin="0" xMax="1007" yMax="1165">
      <contour>
        <pt x="962" y="939" on="1"/>
        <pt x="695" y="939" on="1"/>
        <pt x="507" y="0" on="1"/>
        <pt x="224" y="0" on="1"/>
        <pt x="412" y="939" on="1"/>
        <pt x="148" y="939" on="1"/>
        <pt x="193" y="1165" on="1"/>
        <pt x="1007" y="1165" on="1"/>
      </contour>
    </TTGlyph>
    <TTGlyph name="Tau" xMin="193" yMin="0" xMax="1131" yMax="1456">
      <component glyphName="T" x="0" y="0" flags="0x204"/>
    </TTGlyph>
    <TTGlyph name="Tbar" xMin="193" yMin="0" xMax="1131" yMax="1456">
      <contour>
        <pt x="830" y="749" on="1"/>
        <pt x="682" y="749" on="1"/>
        <pt x="533" y="0" on="1"/>
        <pt x="252" y="0" on="1"/>
        <pt x="401" y="749" on="1"/>
        <pt x="273" y="749" on="1"/>
        <pt x="308" y="924" on="1"/>
        <pt x="436" y="924" on="1"/>
        <pt x="497" y="1228" on="1"/>
        <pt x="193" y="1228" on="1"/>
        <pt x="238" y="1456" on="1"/>
        <pt x="1131" y="1456" on="1"/>
        <pt x="1086" y="1228" on="1"/>
        <pt x="778" y="1228" on="1"/>
        <pt x="717" y="924" on="1"/>
        <pt x="865" y="924" on="1"/>
      </contour>
    </TTGlyph>
    <TTGlyph name="Tbar.smcp" xMin="148" yMin="0" xMax="1007" yMax="1165">
      <component glyphName="T.smcp" x="0" y="0" flags="0x204"/>
      <component glyphName="crossbar" x="16" y="-71" flags="0x4"/>
    </TTGlyph>
    <TTGlyph name="Tcaron" xMin="193" yMin="0" xMax="1131" yMax="1871">
      <component glyphName="T" x="0" y="0" flags="0x204"/>
      <component glyphName="caron" x="135" y="349" flags="0x4"/>
    </TTGlyph>
    <TTGlyph name="Tcaron.smcp" xMin="148" yMin="0" xMax="1007" yMax="1548">
      <component glyphName="T.smcp" x="0" y="0" flags="0x204"/>
      <component glyphName="caron" x="36" y="26" flags="0x4"/>
    </TTGlyph>
    <TTGlyph name="Tcommaaccent.smcp" xMin="118" yMin="-489" xMax="1007" yMax="1165">
      <component glyphName="T.smcp" x="0" y="0" flags="0x204"/>
      <component glyphName="commaaccent" x="188" y="-363" flags="0x4"/>
    </TTGlyph>
    <TTGlyph name="Theta" xMin="58" yMin="-21" xMax="1215" yMax="1477">
      <contour>
        <pt x="756" y="609" on="1"/>
        <pt x="499" y="609" on="1"/>
        <pt x="544" y="835" on="1"/>
        <pt x="801" y="835" on="1"/>
      </contour>
      <contour>
        <pt x="1111" y="596" on="1"/>
        <pt x="1053" y="307" on="0"/>
        <pt x="733" y="-21" on="0"/>
        <pt x="509" y="-21" on="1"/>
        <pt x="300" y="-21" on="0"/>
        <pt x="58" y="338" on="0"/>
        <pt x="111" y="600" on="1"/>
        <pt x="163" y="859" on="1"/>
        <pt x="221" y="1149" on="0"/>
        <pt x="530" y="1477" on="0"/>
        <pt x="752" y="1477" on="1"/>
        <pt x="963" y="1477" on="0"/>
        <pt x="1215" y="1115" on="0"/>
        <pt x="1163" y="855" on="1"/>
      </contour>
      <contour>
        <pt x="882" y="857" on="1"/>
        <pt x="918" y="1034" on="0"/>
        <pt x="817" y="1248" on="0"/>
        <pt x="707" y="1248" on="1"/>
        <pt x="613" y="1248" on="0"/>
        <pt x="478" y="1036" on="0"/>
        <pt x="443" y="861" on="1"/>
        <pt x="391" y="600" on="1"/>
        <pt x="355" y="420" on="0"/>
        <pt x="445" y="207" on="0"/>
        <pt x="554" y="207" on="1"/>
        <pt x="649" y="207" on="0"/>
        <pt x="795" y="422" on="0"/>
        <pt x="830" y="596" on="1"/>
      </contour>
    </TTGlyph>
    <TTGlyph name="Thorn" xMin="20" yMin="0" xMax="1092" yMax="1456">
      <contour>
        <pt x="594" y="1456" on="1"/>
        <pt x="540" y="1188" on="1"/>
        <pt x="691" y="1188" on="1"/>
        <pt x="891" y="1188" on="0"/>
        <pt x="1092" y="935" on="0"/>
        <pt x="1053" y="738" on="1"/>
        <pt x="1009" y="523" on="0"/>
        <pt x="729" y="288" on="0"/>
        <pt x="511" y="288" on="1"/>
        <pt x="360" y="288" on="1"/>
        <pt x="303" y="0" on="1"/>
        <pt x="20" y="0" on="1"/>
        <pt x="311" y="1456" on="1"/>
      </contour>
      <contour>
        <pt x="495" y="964" on="1"/>
        <pt x="406" y="515" on="1"/>
        <pt x="556" y="515" on="1"/>
        <pt x="636" y="515" on="0"/>
        <pt x="750" y="644" on="0"/>
        <pt x="769" y="736" on="1"/>
        <pt x="789" y="837" on="0"/>
        <pt x="732" y="961" on="0"/>
        <pt x="645" y="961" on="1"/>
        <pt x="498" y="961" on="1"/>
      </contour>
    </TTGlyph>
    <TTGlyph name="U" xMin="54" yMin="-21" xMax="1246" yMax="1456">
      <contour>
        <pt x="1246" y="1456" on="1"/>
        <pt x="1048" y="465" on="1"/>
        <pt x="998" y="217" on="0"/>
        <pt x="695" y="-21" on="0"/>
        <pt x="477" y="-21" on="1"/>
        <pt x="277" y="-21" on="0"/>
        <pt x="54" y="236" on="0"/>
        <pt x="100" y="465" on="1"/>
        <pt x="298" y="1456" on="1"/>
        <pt x="579" y="1456" on="1"/>
        <pt x="381" y="465" on="1"/>
        <pt x="353" y="324" on="0"/>
        <pt x="427" y="206" on="0"/>
        <pt x="522" y="206" on="1"/>
        <pt x="611" y="206" on="0"/>
        <pt x="740" y="328" on="0"/>
        <pt x="767" y="465" on="1"/>
        <pt x="965" y="1456" on="1"/>
      </contour>
    </TTGlyph>
    <TTGlyph name="U.smcp" xMin="50" yMin="-20" xMax="1103" yMax="1165">
      <contour>
        <pt x="1103" y="1165" on="1"/>
        <pt x="953" y="415" on="1"/>
        <pt x="909" y="197" on="0"/>
        <pt x="636" y="-20" on="0"/>
        <pt x="435" y="-20" on="1"/>
        <pt x="251" y="-20" on="0"/>
        <pt x="50" y="214" on="0"/>
        <pt x="90" y="415" on="1"/>
        <pt x="240" y="1165" on="1"/>
        <pt x="522" y="1165" on="1"/>
        <pt x="372" y="415" on="1"/>
        <pt x="349" y="303" on="0"/>
        <pt x="402" y="206" on="0"/>
        <pt x="480" y="206" on="1"/>
        <pt x="552" y="206" on="0"/>
        <pt x="648" y="311" on="0"/>
        <pt x="669" y="415" on="1"/>
        <pt x="819" y="1165" on="1"/>
      </contour>
    </TTGlyph>
    <TTGlyph name="Uacute" xMin="54" yMin="-21" xMax="1246" yMax="1826">
      <component glyphName="U" x="0" y="0" flags="0x204"/>
      <component glyphName="acute" x="426" y="348" flags="0x4"/>
    </TTGlyph>
    <TTGlyph name="Uacute.smcp" xMin="50" yMin="-20" xMax="1103" yMax="1507">
      <component glyphName="U.smcp" x="0" y="0" flags="0x204"/>
      <component glyphName="acute" x="311" y="29" flags="0x4"/>
    </TTGlyph>
    <TTGlyph name="Ubreve" xMin="54" yMin="-21" xMax="1246" yMax="1897">
      <component glyphName="U" x="0" y="0" flags="0x204"/>
      <component glyphName="breve" x="283" y="441" flags="0x4"/>
    </TTGlyph>
    <TTGlyph name="Ubreve.smcp" xMin="50" yMin="-20" xMax="1103" yMax="1578">
      <component glyphName="U.smcp" x="0" y="0" flags="0x204"/>
      <component glyphName="breve" x="168" y="122" flags="0x4"/>
    </TTGlyph>
    <TTGlyph name="Ucircumflex" xMin="54" yMin="-21" xMax="1246" yMax="1853">
      <component glyphName="U" x="0" y="0" flags="0x204"/>
      <component glyphName="circumflex" x="194" y="339" flags="0x4"/>
    </TTGlyph>
    <TTGlyph name="Ucircumflex.smcp" xMin="50" yMin="-20" xMax="1103" yMax="1534">
      <component glyphName="U.smcp" x="0" y="0" flags="0x204"/>
      <component glyphName="circumflex" x="79" y="20" flags="0x4"/>
    </TTGlyph>
    <TTGlyph name="Udieresis" xMin="54" yMin="-21" xMax="1246" yMax="1804">
      <component glyphName="U" x="0" y="0" flags="0x204"/>
      <component glyphName="dieresis" x="189" y="348" flags="0x4"/>
    </TTGlyph>
    <TTGlyph name="Udieresis.smcp" xMin="50" yMin="-20" xMax="1103" yMax="1485">
      <component glyphName="U.smcp" x="0" y="0" flags="0x204"/>
      <component glyphName="dieresis" x="74" y="29" flags="0x4"/>
    </TTGlyph>
    <TTGlyph name="Ugrave" xMin="54" yMin="-21" xMax="1246" yMax="1825">
      <component glyphName="U" x="0" y="0" flags="0x204"/>
      <component glyphName="grave" x="274" y="348" flags="0x4"/>
    </TTGlyph>
    <TTGlyph name="Ugrave.smcp" xMin="50" yMin="-20" xMax="1103" yMax="1506">
      <component glyphName="U.smcp" x="0" y="0" flags="0x204"/>
      <component glyphName="grave" x="159" y="29" flags="0x4"/>
    </TTGlyph>
    <TTGlyph name="Uhorn" xMin="54" yMin="-21" xMax="1607" yMax="1609">
      <contour>
        <pt x="1246" y="1456" on="1"/>
        <pt x="1209" y="1271" on="1"/>
        <pt x="1214" y="1269" on="1"/>
        <pt x="1287" y="1282" on="0"/>
        <pt x="1383" y="1454" on="0"/>
        <pt x="1414" y="1609" on="1"/>
        <pt x="1605" y="1609" on="1"/>
        <pt x="1607" y="1604" on="1"/>
        <pt x="1559" y="1349" on="0"/>
        <pt x="1353" y="1097" on="0"/>
        <pt x="1171" y="1079" on="1"/>
        <pt x="1048" y="465" on="1"/>
        <pt x="998" y="217" on="0"/>
        <pt x="695" y="-21" on="0"/>
        <pt x="477" y="-21" on="1"/>
        <pt x="277" y="-21" on="0"/>
        <pt x="54" y="236" on="0"/>
        <pt x="100" y="465" on="1"/>
        <pt x="298" y="1456" on="1"/>
        <pt x="579" y="1456" on="1"/>
        <pt x="381" y="465" on="1"/>
        <pt x="353" y="324" on="0"/>
        <pt x="427" y="206" on="0"/>
        <pt x="522" y="206" on="1"/>
        <pt x="611" y="206" on="0"/>
        <pt x="740" y="328" on="0"/>
        <pt x="767" y="465" on="1"/>
        <pt x="965" y="1456" on="1"/>
      </contour>
    </TTGlyph>
    <TTGlyph name="Uhungarumlaut" xMin="54" yMin="-21" xMax="1327" yMax="1867">
      <component glyphName="U" x="0" y="0" flags="0x204"/>
      <component glyphName="hungarumlaut" x="223" y="349" flags="0x4"/>
    </TTGlyph>
    <TTGlyph name="Uhungarumlaut.smcp" xMin="50" yMin="-20" xMax="1212" yMax="1548">
      <component glyphName="U.smcp" x="0" y="0" flags="0x204"/>
      <component glyphName="hungarumlaut" x="108" y="30" flags="0x4"/>
    </TTGlyph>
    <TTGlyph name="Umacron" xMin="54" yMin="-21" xMax="1246" yMax="1777">
      <component glyphName="U" x="0" y="0" flags="0x204"/>
      <component glyphName="macron" x="204" y="320" flags="0x4"/>
    </TTGlyph>
    <TTGlyph name="Umacron.smcp" xMin="50" yMin="-20" xMax="1103" yMax="1458">
      <component glyphName="U.smcp" x="0" y="0" flags="0x204"/>
      <component glyphName="macron" x="89" y="1" flags="0x4"/>
    </TTGlyph>
    <TTGlyph name="Uogonek" xMin="54" yMin="-415" xMax="1246" yMax="1456">
      <component glyphName="U" x="0" y="0" flags="0x204"/>
      <component glyphName="ogonek" x="455" y="0" flags="0x4"/>
    </TTGlyph>
    <TTGlyph name="Uogonek.smcp" xMin="50" yMin="-415" xMax="1103" yMax="1165">
      <component glyphName="U.smcp" x="0" y="0" flags="0x204"/>
      <component glyphName="ogonek" x="417" y="0" flags="0x4"/>
    </TTGlyph>
    <TTGlyph name="Upsilon" xMin="217" yMin="0" xMax="1280" yMax="1456">
      <component glyphName="Y" x="0" y="0" flags="0x204"/>
    </TTGlyph>
    <TTGlyph name="Upsilondieresis" xMin="217" yMin="0" xMax="1280" yMax="1803">
      <component glyphName="Y" x="0" y="0" flags="0x204"/>
      <component glyphName="dieresis" x="176" y="347" flags="0x4"/>
    </TTGlyph>
    <TTGlyph name="Upsilontonos" xMin="27" yMin="0" xMax="1380" yMax="1623">
      <component glyphName="Y" x="100" y="0" flags="0x4"/>
      <component glyphName="tonos" x="-361" y="0" flags="0x4"/>
    </TTGlyph>
    <TTGlyph name="Uring" xMin="54" yMin="-21" xMax="1246" yMax="1929">
      <component glyphName="U" x="0" y="0" flags="0x204"/>
      <component glyphName="ring" x="351" y="440" flags="0x4"/>
    </TTGlyph>
    <TTGlyph name="Uring.smcp" xMin="50" yMin="-20" xMax="1103" yMax="1610">
      <component glyphName="U.smcp" x="0" y="0" flags="0x204"/>
      <component glyphName="ring" x="236" y="121" flags="0x4"/>
    </TTGlyph>
    <TTGlyph name="Utilde" xMin="54" yMin="-21" xMax="1246" yMax="1899">
      <component glyphName="U" x="0" y="0" flags="0x204"/>
      <component glyphName="tilde" x="249" y="373" flags="0x4"/>
    </TTGlyph>
    <TTGlyph name="Utilde.smcp" xMin="50" yMin="-20" xMax="1103" yMax="1580">
      <component glyphName="U.smcp" x="0" y="0" flags="0x204"/>
      <component glyphName="tilde" x="134" y="54" flags="0x4"/>
    </TTGlyph>
    <TTGlyph name="V" xMin="176" yMin="0" xMax="1239" yMax="1456">
      <contour>
        <pt x="521" y="372" on="1"/>
        <pt x="523" y="323" on="1"/>
        <pt x="528" y="322" on="1"/>
        <pt x="545" y="369" on="1"/>
        <pt x="943" y="1456" on="1"/>
        <pt x="1239" y="1456" on="1"/>
        <pt x="621" y="0" on="1"/>
        <pt x="328" y="0" on="1"/>
        <pt x="176" y="1456" on="1"/>
        <pt x="472" y="1456" on="1"/>
      </contour>
    </TTGlyph>
    <TTGlyph name="V.smcp" xMin="162" yMin="0" xMax="1118" yMax="1165">
      <contour>
        <pt x="462" y="300" on="1"/>
        <pt x="462" y="293" on="1"/>
        <pt x="468" y="291" on="1"/>
        <pt x="469" y="295" on="1"/>
        <pt x="824" y="1165" on="1"/>
        <pt x="1118" y="1165" on="1"/>
        <pt x="562" y="0" on="1"/>
        <pt x="252" y="0" on="1"/>
        <pt x="162" y="1165" on="1"/>
        <pt x="457" y="1165" on="1"/>
      </contour>
    </TTGlyph>
    <TTGlyph name="W" xMin="187" yMin="0" xMax="1622" yMax="1456">
      <contour>
        <pt x="1056" y="556" on="1"/>
        <pt x="1062" y="556" on="1"/>
        <pt x="1349" y="1456" on="1"/>
        <pt x="1622" y="1456" on="1"/>
        <pt x="1124" y="0" on="1"/>
        <pt x="861" y="0" on="1"/>
        <pt x="811" y="863" on="1"/>
        <pt x="805" y="863" on="1"/>
        <pt x="480" y="0" on="1"/>
        <pt x="219" y="0" on="1"/>
        <pt x="187" y="1456" on="1"/>
        <pt x="460" y="1456" on="1"/>
        <pt x="460" y="558" on="1"/>
        <pt x="466" y="557" on="1"/>
        <pt x="802" y="1456" on="1"/>
        <pt x="1004" y="1456" on="1"/>
      </contour>
    </TTGlyph>
    <TTGlyph name="W.smcp" xMin="159" yMin="0" xMax="1401" yMax="1165">
      <contour>
        <pt x="906" y="590" on="1"/>
        <pt x="912" y="589" on="1"/>
        <pt x="1106" y="1165" on="1"/>
        <pt x="1401" y="1165" on="1"/>
        <pt x="957" y="0" on="1"/>
        <pt x="682" y="0" on="1"/>
        <pt x="672" y="565" on="1"/>
        <pt x="666" y="566" on="1"/>
        <pt x="436" y="0" on="1"/>
        <pt x="159" y="0" on="1"/>
        <pt x="182" y="1165" on="1"/>
        <pt x="477" y="1165" on="1"/>
        <pt x="438" y="587" on="1"/>
        <pt x="444" y="586" on="1"/>
        <pt x="678" y="1165" on="1"/>
        <pt x="906" y="1165" on="1"/>
      </contour>
    </TTGlyph>
    <TTGlyph name="Wacute" xMin="187" yMin="0" xMax="1622" yMax="1826">
      <component glyphName="W" x="0" y="0" flags="0x204"/>
      <component glyphName="acute" x="555" y="348" flags="0x4"/>
    </TTGlyph>
    <TTGlyph name="Wcircumflex" xMin="187" yMin="0" xMax="1622" yMax="1853">
      <component glyphName="W" x="0" y="0" flags="0x204"/>
      <component glyphName="circumflex" x="323" y="339" flags="0x4"/>
    </TTGlyph>
    <TTGlyph name="Wcircumflex.smcp" xMin="159" yMin="0" xMax="1401" yMax="1530">
      <component glyphName="W.smcp" x="0" y="0" flags="0x204"/>
      <component glyphName="circumflex" x="210" y="16" flags="0x4"/>
    </TTGlyph>
    <TTGlyph name="Wdieresis" xMin="187" yMin="0" xMax="1622" yMax="1804">
      <component glyphName="W" x="0" y="0" flags="0x204"/>
      <component glyphName="dieresis" x="318" y="348" flags="0x4"/>
    </TTGlyph>
    <TTGlyph name="Wgrave" xMin="187" yMin="0" xMax="1622" yMax="1825">
      <component glyphName="W" x="0" y="0" flags="0x204"/>
      <component glyphName="grave" x="403" y="348" flags="0x4"/>
    </TTGlyph>
    <TTGlyph name="X" xMin="-40" yMin="0" xMax="1213" yMax="1456">
      <contour>
        <pt x="620" y="948" on="1"/>
        <pt x="626" y="947" on="1"/>
        <pt x="887" y="1456" on="1"/>
        <pt x="1213" y="1456" on="1"/>
        <pt x="764" y="734" on="1"/>
        <pt x="1003" y="0" on="1"/>
        <pt x="663" y="0" on="1"/>
        <pt x="562" y="519" on="1"/>
        <pt x="556" y="520" on="1"/>
        <pt x="288" y="0" on="1"/>
        <pt x="-40" y="0" on="1"/>
        <pt x="418" y="734" on="1"/>
        <pt x="201" y="1456" on="1"/>
        <pt x="525" y="1456" on="1"/>
      </contour>
    </TTGlyph>
    <TTGlyph name="X.smcp" xMin="-55" yMin="0" xMax="1074" yMax="1165">
      <contour>
        <pt x="549" y="790" on="1"/>
        <pt x="555" y="789" on="1"/>
        <pt x="750" y="1165" on="1"/>
        <pt x="1074" y="1165" on="1"/>
        <pt x="691" y="588" on="1"/>
        <pt x="847" y="0" on="1"/>
        <pt x="525" y="0" on="1"/>
        <pt x="477" y="384" on="1"/>
        <pt x="471" y="385" on="1"/>
        <pt x="269" y="0" on="1"/>
        <pt x="-55" y="0" on="1"/>
        <pt x="338" y="588" on="1"/>
        <pt x="184" y="1165" on="1"/>
        <pt x="506" y="1165" on="1"/>
      </contour>
    </TTGlyph>
    <TTGlyph name="Xi" xMin="1" yMin="0" xMax="1062" yMax="1456">
      <contour>
        <pt x="46" y="227" on="1"/>
        <pt x="853" y="227" on="1"/>
        <pt x="808" y="0" on="1"/>
        <pt x="1" y="0" on="1"/>
      </contour>
      <contour>
        <pt x="265" y="844" on="1"/>
        <pt x="884" y="844" on="1"/>
        <pt x="840" y="626" on="1"/>
        <pt x="221" y="626" on="1"/>
      </contour>
      <contour>
        <pt x="314" y="1456" on="1"/>
        <pt x="1062" y="1456" on="1"/>
        <pt x="1017" y="1229" on="1"/>
        <pt x="269" y="1229" on="1"/>
      </contour>
    </TTGlyph>
    <TTGlyph name="Y" xMin="217" yMin="0" xMax="1280" yMax="1456">
      <contour>
        <pt x="624" y="849" on="1"/>
        <pt x="629" y="848" on="1"/>
        <pt x="973" y="1456" on="1"/>
        <pt x="1280" y="1456" on="1"/>
        <pt x="697" y="517" on="1"/>
        <pt x="594" y="0" on="1"/>
        <pt x="313" y="0" on="1"/>
        <pt x="421" y="539" on="1"/>
        <pt x="217" y="1456" on="1"/>
        <pt x="525" y="1456" on="1"/>
      </contour>
    </TTGlyph>
    <TTGlyph name="Y.smcp" xMin="157" yMin="0" xMax="1053" yMax="1165">
      <contour>
        <pt x="515" y="729" on="1"/>
        <pt x="521" y="728" on="1"/>
        <pt x="749" y="1165" on="1"/>
        <pt x="1053" y="1165" on="1"/>
        <pt x="593" y="420" on="1"/>
        <pt x="509" y="0" on="1"/>
        <pt x="228" y="0" on="1"/>
        <pt x="314" y="429" on="1"/>
        <pt x="157" y="1165" on="1"/>
        <pt x="460" y="1165" on="1"/>
      </contour>
    </TTGlyph>
    <TTGlyph name="Yacute" xMin="217" yMin="0" xMax="1280" yMax="1825">
      <component glyphName="Y" x="0" y="0" flags="0x204"/>
      <component glyphName="acute" x="413" y="347" flags="0x4"/>
    </TTGlyph>
    <TTGlyph name="Yacute.smcp" xMin="157" yMin="0" xMax="1053" yMax="1502">
      <component glyphName="Y.smcp" x="0" y="0" flags="0x204"/>
      <component glyphName="acute" x="261" y="24" flags="0x4"/>
    </TTGlyph>
    <TTGlyph name="Ycircumflex" xMin="217" yMin="0" xMax="1280" yMax="1852">
      <component glyphName="Y" x="0" y="0" flags="0x204"/>
      <component glyphName="circumflex" x="181" y="338" flags="0x4"/>
    </TTGlyph>
    <TTGlyph name="Ycircumflex.smcp" xMin="157" yMin="0" xMax="1053" yMax="1529">
      <component glyphName="Y.smcp" x="0" y="0" flags="0x204"/>
      <component glyphName="circumflex" x="29" y="15" flags="0x4"/>
    </TTGlyph>
    <TTGlyph name="Ydieresis" xMin="217" yMin="0" xMax="1280" yMax="1803">
      <component glyphName="Y" x="0" y="0" flags="0x204"/>
      <component glyphName="dieresis" x="176" y="347" flags="0x4"/>
    </TTGlyph>
    <TTGlyph name="Ydieresis.smcp" xMin="157" yMin="0" xMax="1053" yMax="1480">
      <component glyphName="Y.smcp" x="0" y="0" flags="0x204"/>
      <component glyphName="dieresis" x="24" y="24" flags="0x4"/>
    </TTGlyph>
    <TTGlyph name="Ygrave" xMin="217" yMin="0" xMax="1280" yMax="1824">
      <component glyphName="Y" x="0" y="0" flags="0x204"/>
      <component glyphName="grave" x="261" y="347" flags="0x4"/>
    </TTGlyph>
    <TTGlyph name="Z" xMin="5" yMin="0" xMax="1058" yMax="1456">
      <contour>
        <pt x="357" y="227" on="1"/>
        <pt x="871" y="227" on="1"/>
        <pt x="826" y="0" on="1"/>
        <pt x="12" y="0" on="1"/>
        <pt x="5" y="143" on="1"/>
        <pt x="675" y="1229" on="1"/>
        <pt x="236" y="1229" on="1"/>
        <pt x="281" y="1456" on="1"/>
        <pt x="1058" y="1456" on="1"/>
        <pt x="1031" y="1318" on="1"/>
      </contour>
    </TTGlyph>
    <TTGlyph name="Z.smcp" xMin="-19" yMin="0" xMax="998" yMax="1165">
      <contour>
        <pt x="363" y="225" on="1"/>
        <pt x="811" y="225" on="1"/>
        <pt x="766" y="0" on="1"/>
        <pt x="-19" y="0" on="1"/>
        <pt x="4" y="116" on="1"/>
        <pt x="612" y="939" on="1"/>
        <pt x="195" y="939" on="1"/>
        <pt x="240" y="1165" on="1"/>
        <pt x="998" y="1165" on="1"/>
        <pt x="976" y="1053" on="1"/>
      </contour>
    </TTGlyph>
    <TTGlyph name="Zacute" xMin="5" yMin="0" xMax="1073" yMax="1828">
      <component glyphName="Z" x="0" y="0" flags="0x4"/>
      <component glyphName="acute" x="342" y="350" flags="0x4"/>
    </TTGlyph>
    <TTGlyph name="Zacute.smcp" xMin="-19" yMin="0" xMax="1005" yMax="1505">
      <component glyphName="Z.smcp" x="0" y="0" flags="0x204"/>
      <component glyphName="acute" x="274" y="27" flags="0x4"/>
    </TTGlyph>
    <TTGlyph name="Zcaron" xMin="5" yMin="0" xMax="1102" yMax="1874">
      <component glyphName="Z" x="0" y="0" flags="0x4"/>
      <component glyphName="caron" x="133" y="352" flags="0x4"/>
    </TTGlyph>
    <TTGlyph name="Zcaron.smcp" xMin="-19" yMin="0" xMax="1034" yMax="1551">
      <component glyphName="Z.smcp" x="0" y="0" flags="0x204"/>
      <component glyphName="caron" x="65" y="29" flags="0x4"/>
    </TTGlyph>
    <TTGlyph name="Zdotaccent" xMin="5" yMin="0" xMax="1058" yMax="1850">
      <component glyphName="Z" x="0" y="0" flags="0x4"/>
      <component glyphName="dotaccent" x="280" y="380" flags="0x4"/>
    </TTGlyph>
    <TTGlyph name="Zdotaccent.smcp" xMin="-19" yMin="0" xMax="998" yMax="1527">
      <component glyphName="Z.smcp" x="0" y="0" flags="0x204"/>
      <component glyphName="dotaccent" x="212" y="57" flags="0x4"/>
    </TTGlyph>
    <TTGlyph name="Zeta" xMin="5" yMin="0" xMax="1058" yMax="1456">
      <component glyphName="Z" x="0" y="0" flags="0x4"/>
    </TTGlyph>
    <TTGlyph name="a" xMin="4" yMin="-21" xMax="920" yMax="1102">
      <contour>
        <pt x="504" y="0" on="1"/>
        <pt x="498" y="27" on="0"/>
        <pt x="493" y="89" on="0"/>
        <pt x="493" y="122" on="1"/>
        <pt x="443" y="57" on="0"/>
        <pt x="322" y="-21" on="0"/>
        <pt x="251" y="-21" on="1"/>
        <pt x="131" y="-21" on="0"/>
        <pt x="4" y="158" on="0"/>
        <pt x="33" y="302" on="1"/>
        <pt x="67" y="472" on="0"/>
        <pt x="291" y="637" on="0"/>
        <pt x="488" y="637" on="1"/>
        <pt x="584" y="637" on="1"/>
        <pt x="602" y="725" on="1"/>
        <pt x="618" y="809" on="0"/>
        <pt x="586" y="889" on="0"/>
        <pt x="534" y="889" on="1"/>
        <pt x="495" y="889" on="0"/>
        <pt x="437" y="819" on="0"/>
        <pt x="425" y="756" on="1"/>
        <pt x="152" y="757" on="1"/>
        <pt x="150" y="763" on="1"/>
        <pt x="176" y="914" on="0"/>
        <pt x="420" y="1102" on="0"/>
        <pt x="595" y="1102" on="1"/>
        <pt x="747" y="1102" on="0"/>
        <pt x="920" y="902" on="0"/>
        <pt x="885" y="723" on="1"/>
        <pt x="797" y="285" on="1"/>
        <pt x="780" y="201" on="0"/>
        <pt x="775" y="69" on="0"/>
        <pt x="784" y="0" on="1"/>
      </contour>
      <contour>
        <pt x="376" y="193" on="1"/>
        <pt x="412" y="193" on="0"/>
        <pt x="485" y="237" on="0"/>
        <pt x="512" y="273" on="1"/>
        <pt x="552" y="474" on="1"/>
        <pt x="456" y="474" on="1"/>
        <pt x="403" y="474" on="0"/>
        <pt x="331" y="383" on="0"/>
        <pt x="318" y="315" on="1"/>
        <pt x="306" y="257" on="0"/>
        <pt x="338" y="193" on="0"/>
      </contour>
    </TTGlyph>
    <TTGlyph name="aacute" xMin="4" yMin="-21" xMax="980" yMax="1504">
      <component glyphName="a" x="0" y="0" flags="0x204"/>
      <component glyphName="acute" x="249" y="26" flags="0x4"/>
    </TTGlyph>
    <TTGlyph name="abreve" xMin="4" yMin="-21" xMax="970" yMax="1575">
      <component glyphName="a" x="0" y="0" flags="0x204"/>
      <component glyphName="breve" x="106" y="119" flags="0x4"/>
    </TTGlyph>
    <TTGlyph name="acircumflex" xMin="4" yMin="-21" xMax="949" yMax="1531">
      <component glyphName="a" x="0" y="0" flags="0x204"/>
      <component glyphName="circumflex" x="17" y="17" flags="0x4"/>
    </TTGlyph>
    <TTGlyph name="acute" xMin="225" yMin="1212" xMax="731" yMax="1478">
      <contour>
        <pt x="434" y="1478" on="1"/>
        <pt x="729" y="1478" on="1"/>
        <pt x="731" y="1472" on="1"/>
        <pt x="451" y="1212" on="1"/>
        <pt x="225" y="1212" on="1"/>
      </contour>
    </TTGlyph>
    <TTGlyph name="acutecomb" xMin="-504" yMin="1202" xMax="-119" yMax="1505">
      <contour>
        <pt x="-335" y="1505" on="1"/>
        <pt x="-119" y="1505" on="1"/>
        <pt x="-341" y="1202" on="1"/>
        <pt x="-504" y="1202" on="1"/>
      </contour>
    </TTGlyph>
    <TTGlyph name="adieresis" xMin="4" yMin="-21" xMax="992" yMax="1482">
      <component glyphName="a" x="0" y="0" flags="0x204"/>
      <component glyphName="dieresis" x="12" y="26" flags="0x4"/>
    </TTGlyph>
    <TTGlyph name="ae" xMin="-10" yMin="-21" xMax="1451" yMax="1102">
      <contour>
        <pt x="922" y="-21" on="1"/>
        <pt x="826" y="-21" on="0"/>
        <pt x="681" y="57" on="0"/>
        <pt x="638" y="130" on="1"/>
        <pt x="576" y="64" on="0"/>
        <pt x="398" y="-21" on="0"/>
        <pt x="289" y="-21" on="1"/>
        <pt x="138" y="-21" on="0"/>
        <pt x="-10" y="164" on="0"/>
        <pt x="20" y="317" on="1"/>
        <pt x="54" y="486" on="0"/>
        <pt x="295" y="649" on="0"/>
        <pt x="503" y="649" on="1"/>
        <pt x="627" y="649" on="1"/>
        <pt x="638" y="705" on="1"/>
        <pt x="654" y="789" on="0"/>
        <pt x="619" y="874" on="0"/>
        <pt x="571" y="874" on="1"/>
        <pt x="524" y="874" on="0"/>
        <pt x="447" y="799" on="0"/>
        <pt x="437" y="745" on="1"/>
        <pt x="169" y="762" on="1"/>
        <pt x="167" y="768" on="1"/>
        <pt x="193" y="922" on="0"/>
        <pt x="438" y="1102" on="0"/>
        <pt x="619" y="1102" on="1"/>
        <pt x="691" y="1102" on="0"/>
        <pt x="812" y="1058" on="0"/>
        <pt x="854" y="1015" on="1"/>
        <pt x="912" y="1058" on="0"/>
        <pt x="1051" y="1102" on="0"/>
        <pt x="1131" y="1102" on="1"/>
        <pt x="1293" y="1102" on="0"/>
        <pt x="1451" y="835" on="0"/>
        <pt x="1407" y="615" on="1"/>
        <pt x="1375" y="455" on="1"/>
        <pt x="870" y="455" on="1"/>
        <pt x="850" y="332" on="0"/>
        <pt x="909" y="206" on="0"/>
        <pt x="1001" y="206" on="1"/>
        <pt x="1069" y="206" on="0"/>
        <pt x="1178" y="245" on="0"/>
        <pt x="1247" y="284" on="1"/>
        <pt x="1280" y="101" on="1"/>
        <pt x="1221" y="52" on="0"/>
        <pt x="1023" y="-21" on="0"/>
      </contour>
      <contour>
        <pt x="385" y="184" on="1"/>
        <pt x="419" y="184" on="0"/>
        <pt x="517" y="238" on="0"/>
        <pt x="552" y="275" on="1"/>
        <pt x="590" y="466" on="1"/>
        <pt x="468" y="466" on="1"/>
        <pt x="408" y="466" on="0"/>
        <pt x="313" y="375" on="0"/>
        <pt x="301" y="313" on="1"/>
        <pt x="288" y="249" on="0"/>
        <pt x="328" y="184" on="0"/>
      </contour>
      <contour>
        <pt x="1086" y="874" on="1"/>
        <pt x="1024" y="874" on="0"/>
        <pt x="939" y="752" on="0"/>
        <pt x="910" y="644" on="1"/>
        <pt x="1138" y="644" on="1"/>
        <pt x="1143" y="671" on="1"/>
        <pt x="1163" y="771" on="0"/>
        <pt x="1136" y="874" on="0"/>
      </contour>
    </TTGlyph>
    <TTGlyph name="aeacute" xMin="-10" yMin="-21" xMax="1451" yMax="1505">
      <component glyphName="ae" x="0" y="0" flags="0x204"/>
      <component glyphName="acute" x="508" y="27" flags="0x4"/>
    </TTGlyph>
    <TTGlyph name="agrave" xMin="4" yMin="-21" xMax="920" yMax="1503">
      <component glyphName="a" x="0" y="0" flags="0x204"/>
      <component glyphName="grave" x="97" y="26" flags="0x4"/>
    </TTGlyph>
    <TTGlyph name="alpha" xMin="31" yMin="-21" xMax="990" yMax="1102">
      <contour>
        <pt x="990" y="1081" on="1"/>
        <pt x="844" y="348" on="1"/>
        <pt x="827" y="266" on="0"/>
        <pt x="838" y="210" on="0"/>
        <pt x="865" y="210" on="1"/>
        <pt x="868" y="210" on="0"/>
        <pt x="873" y="211" on="0"/>
        <pt x="875" y="214" on="1"/>
        <pt x="854" y="2" on="1"/>
        <pt x="824" y="-11" on="0"/>
        <pt x="774" y="-21" on="0"/>
        <pt x="742" y="-21" on="1"/>
        <pt x="670" y="-21" on="0"/>
        <pt x="572" y="55" on="0"/>
        <pt x="555" y="131" on="1"/>
        <pt x="503" y="57" on="0"/>
        <pt x="383" y="-21" on="0"/>
        <pt x="314" y="-21" on="1"/>
        <pt x="161" y="-21" on="0"/>
        <pt x="31" y="277" on="0"/>
        <pt x="79" y="514" on="1"/>
        <pt x="83" y="535" on="1"/>
        <pt x="137" y="806" on="0"/>
        <pt x="372" y="1102" on="0"/>
        <pt x="539" y="1102" on="1"/>
        <pt x="597" y="1102" on="0"/>
        <pt x="679" y="1032" on="0"/>
        <pt x="703" y="968" on="1"/>
        <pt x="744" y="1081" on="1"/>
      </contour>
      <contour>
        <pt x="362" y="514" on="1"/>
        <pt x="330" y="359" on="0"/>
        <pt x="357" y="206" on="0"/>
        <pt x="432" y="206" on="1"/>
        <pt x="465" y="206" on="0"/>
        <pt x="524" y="242" on="0"/>
        <pt x="550" y="278" on="1"/>
        <pt x="551" y="293" on="0"/>
        <pt x="556" y="327" on="0"/>
        <pt x="561" y="348" on="1"/>
        <pt x="653" y="811" on="1"/>
        <pt x="642" y="842" on="0"/>
        <pt x="599" y="874" on="0"/>
        <pt x="568" y="874" on="1"/>
        <pt x="501" y="874" on="0"/>
        <pt x="396" y="685" on="0"/>
        <pt x="366" y="535" on="1"/>
      </contour>
    </TTGlyph>
    <TTGlyph name="alpha.alt" xMin="31" yMin="-21" xMax="1049" yMax="1102">
      <contour>
        <pt x="603" y="126" on="1"/>
        <pt x="546" y="55" on="0"/>
        <pt x="411" y="-21" on="0"/>
        <pt x="330" y="-21" on="1"/>
        <pt x="170" y="-21" on="0"/>
        <pt x="31" y="277" on="0"/>
        <pt x="79" y="514" on="1"/>
        <pt x="83" y="535" on="1"/>
        <pt x="137" y="806" on="0"/>
        <pt x="380" y="1102" on="0"/>
        <pt x="555" y="1102" on="1"/>
        <pt x="629" y="1102" on="0"/>
        <pt x="732" y="1020" on="0"/>
        <pt x="761" y="945" on="1"/>
        <pt x="804" y="1082" on="1"/>
        <pt x="1049" y="1082" on="1"/>
        <pt x="850" y="540" on="1"/>
        <pt x="838" y="0" on="1"/>
        <pt x="594" y="0" on="1"/>
      </contour>
      <contour>
        <pt x="362" y="514" on="1"/>
        <pt x="330" y="359" on="0"/>
        <pt x="357" y="208" on="0"/>
        <pt x="430" y="213" on="1"/>
        <pt x="436" y="212" on="1"/>
        <pt x="500" y="207" on="0"/>
        <pt x="600" y="367" on="0"/>
        <pt x="625" y="489" on="1"/>
        <pt x="635" y="540" on="1"/>
        <pt x="639" y="562" on="1"/>
        <pt x="667" y="702" on="0"/>
        <pt x="637" y="871" on="0"/>
        <pt x="570" y="866" on="1"/>
        <pt x="564" y="867" on="1"/>
        <pt x="500" y="872" on="0"/>
        <pt x="396" y="685" on="0"/>
        <pt x="366" y="535" on="1"/>
      </contour>
    </TTGlyph>
    <TTGlyph name="alphatonos" xMin="31" yMin="-21" xMax="990" yMax="1560">
      <component glyphName="alpha" x="0" y="0" flags="0x204"/>
      <component glyphName="tonos" x="173" y="-63" flags="0x4"/>
    </TTGlyph>
    <TTGlyph name="amacron" xMin="4" yMin="-21" xMax="966" yMax="1457">
      <component glyphName="a" x="0" y="0" flags="0x204"/>
      <component glyphName="macron" x="27" y="0" flags="0x4"/>
    </TTGlyph>
    <TTGlyph name="ampersand" xMin="22" yMin="-21" xMax="1117" yMax="1477">
      <contour>
        <pt x="51" y="388" on="1"/>
        <pt x="70" y="511" on="0"/>
        <pt x="204" y="674" on="0"/>
        <pt x="334" y="769" on="1"/>
        <pt x="290" y="863" on="0"/>
        <pt x="258" y="1017" on="0"/>
        <pt x="271" y="1097" on="1"/>
        <pt x="299" y="1274" on="0"/>
        <pt x="519" y="1477" on="0"/>
        <pt x="679" y="1477" on="1"/>
        <pt x="811" y="1477" on="0"/>
        <pt x="959" y="1278" on="0"/>
        <pt x="937" y="1140" on="1"/>
        <pt x="921" y="1039" on="0"/>
        <pt x="815" y="882" on="0"/>
        <pt x="732" y="823" on="1"/>
        <pt x="647" y="761" on="1"/>
        <pt x="814" y="463" on="1"/>
        <pt x="819" y="464" on="1"/>
        <pt x="852" y="514" on="0"/>
        <pt x="900" y="640" on="0"/>
        <pt x="912" y="711" on="1"/>
        <pt x="1117" y="711" on="1"/>
        <pt x="1093" y="569" on="0"/>
        <pt x="1003" y="344" on="0"/>
        <pt x="929" y="257" on="1"/>
        <pt x="1073" y="0" on="1"/>
        <pt x="754" y="0" on="1"/>
        <pt x="709" y="81" on="1"/>
        <pt x="629" y="30" on="0"/>
        <pt x="475" y="-21" on="0"/>
        <pt x="391" y="-21" on="1"/>
        <pt x="213" y="-21" on="0"/>
        <pt x="22" y="208" on="0"/>
      </contour>
      <contour>
        <pt x="444" y="206" on="1"/>
        <pt x="484" y="206" on="0"/>
        <pt x="568" y="230" on="0"/>
        <pt x="612" y="255" on="1"/>
        <pt x="423" y="596" on="1"/>
        <pt x="419" y="593" on="1"/>
        <pt x="382" y="544" on="0"/>
        <pt x="345" y="453" on="0"/>
        <pt x="338" y="406" on="1"/>
        <pt x="323" y="316" on="0"/>
        <pt x="385" y="206" on="0"/>
      </contour>
      <contour>
        <pt x="521" y="1100" on="1"/>
        <pt x="514" y="1059" on="0"/>
        <pt x="534" y="975" on="0"/>
        <pt x="558" y="926" on="1"/>
        <pt x="615" y="966" on="1"/>
        <pt x="668" y="1002" on="0"/>
        <pt x="712" y="1077" on="0"/>
        <pt x="720" y="1122" on="1"/>
        <pt x="727" y="1173" on="0"/>
        <pt x="685" y="1249" on="0"/>
        <pt x="642" y="1249" on="1"/>
        <pt x="597" y="1249" on="0"/>
        <pt x="531" y="1163" on="0"/>
      </contour>
    </TTGlyph>
    <TTGlyph name="anoteleia" xMin="165" yMin="560" xMax="490" yMax="822">
      <component glyphName="periodcentered" x="0" y="0" flags="0x4"/>
    </TTGlyph>
    <TTGlyph name="aogonek" xMin="4" yMin="-415" xMax="920" yMax="1102">
      <component glyphName="a" x="0" y="0" flags="0x204"/>
      <component glyphName="ogonek" x="427" y="0" flags="0x4"/>
    </TTGlyph>
    <TTGlyph name="approxequal" xMin="66" yMin="242" xMax="998" yMax="1021">
      <contour>
        <pt x="193" y="873" on="1"/>
        <pt x="244" y="941" on="0"/>
        <pt x="359" y="1019" on="0"/>
        <pt x="412" y="1019" on="1"/>
        <pt x="469" y="1021" on="0"/>
        <pt x="545" y="986" on="0"/>
        <pt x="601" y="946" on="1"/>
        <pt x="652" y="909" on="0"/>
        <pt x="724" y="877" on="0"/>
        <pt x="778" y="877" on="1"/>
        <pt x="826" y="877" on="0"/>
        <pt x="945" y="954" on="0"/>
        <pt x="993" y="1019" on="1"/>
        <pt x="998" y="1016" on="1"/>
        <pt x="966" y="815" on="1"/>
        <pt x="913" y="746" on="0"/>
        <pt x="799" y="669" on="0"/>
        <pt x="747" y="669" on="1"/>
        <pt x="696" y="669" on="0"/>
        <pt x="616" y="703" on="0"/>
        <pt x="569" y="738" on="1"/>
        <pt x="509" y="779" on="0"/>
        <pt x="436" y="813" on="0"/>
        <pt x="378" y="811" on="1"/>
        <pt x="328" y="811" on="0"/>
        <pt x="210" y="733" on="0"/>
        <pt x="164" y="669" on="1"/>
        <pt x="159" y="672" on="1"/>
      </contour>
      <contour>
        <pt x="99" y="447" on="1"/>
        <pt x="151" y="515" on="0"/>
        <pt x="266" y="593" on="0"/>
        <pt x="319" y="593" on="1"/>
        <pt x="375" y="595" on="0"/>
        <pt x="450" y="560" on="0"/>
        <pt x="508" y="520" on="1"/>
        <pt x="560" y="482" on="0"/>
        <pt x="631" y="450" on="0"/>
        <pt x="685" y="450" on="1"/>
        <pt x="733" y="450" on="0"/>
        <pt x="853" y="528" on="0"/>
        <pt x="899" y="593" on="1"/>
        <pt x="904" y="590" on="1"/>
        <pt x="873" y="388" on="1"/>
        <pt x="819" y="318" on="0"/>
        <pt x="704" y="242" on="0"/>
        <pt x="652" y="242" on="1"/>
        <pt x="602" y="242" on="0"/>
        <pt x="523" y="276" on="0"/>
        <pt x="475" y="311" on="1"/>
        <pt x="418" y="351" on="0"/>
        <pt x="341" y="386" on="0"/>
        <pt x="284" y="384" on="1"/>
        <pt x="235" y="384" on="0"/>
        <pt x="117" y="306" on="0"/>
        <pt x="71" y="242" on="1"/>
        <pt x="66" y="245" on="1"/>
      </contour>
    </TTGlyph>
    <TTGlyph name="aring" xMin="4" yMin="-21" xMax="920" yMax="1607">
      <component glyphName="a" x="0" y="0" flags="0x204"/>
      <component glyphName="ring" x="174" y="118" flags="0x4"/>
    </TTGlyph>
    <TTGlyph name="aringacute" xMin="4" yMin="-21" xMax="1048" yMax="1826">
      <component glyphName="a" x="0" y="0" flags="0x204"/>
      <component glyphName="ringacute" x="168" y="72" flags="0x4"/>
    </TTGlyph>
    <TTGlyph name="asciicircum" xMin="100" yMin="729" xMax="786" yMax="1456">
      <contour>
        <pt x="317" y="729" on="1"/>
        <pt x="100" y="729" on="1"/>
        <pt x="486" y="1456" on="1"/>
        <pt x="690" y="1456" on="1"/>
        <pt x="786" y="729" on="1"/>
        <pt x="570" y="729" on="1"/>
        <pt x="529" y="1151" on="1"/>
        <pt x="529" y="1150" on="1"/>
        <pt x="523" y="1151" on="1"/>
      </contour>
    </TTGlyph>
    <TTGlyph name="asciitilde" xMin="89" yMin="378" xMax="1037" yMax="825">
      <contour>
        <pt x="1037" y="761" on="1"/>
        <pt x="1009" y="591" on="0"/>
        <pt x="829" y="378" on="0"/>
        <pt x="716" y="378" on="1"/>
        <pt x="651" y="378" on="0"/>
        <pt x="543" y="443" on="0"/>
        <pt x="494" y="512" on="1"/>
        <pt x="465" y="557" on="0"/>
        <pt x="419" y="596" on="0"/>
        <pt x="386" y="596" on="1"/>
        <pt x="353" y="596" on="0"/>
        <pt x="286" y="492" on="0"/>
        <pt x="275" y="418" on="1"/>
        <pt x="89" y="444" on="1"/>
        <pt x="116" y="615" on="0"/>
        <pt x="291" y="825" on="0"/>
        <pt x="407" y="825" on="1"/>
        <pt x="470" y="825" on="0"/>
        <pt x="585" y="757" on="0"/>
        <pt x="631" y="693" on="1"/>
        <pt x="659" y="647" on="0"/>
        <pt x="706" y="608" on="0"/>
        <pt x="737" y="608" on="1"/>
        <pt x="769" y="608" on="0"/>
        <pt x="837" y="714" on="0"/>
        <pt x="849" y="789" on="1"/>
      </contour>
    </TTGlyph>
    <TTGlyph name="asterisk" xMin="162" yMin="579" xMax="887" yMax="1456">
      <contour>
        <pt x="392" y="966" on="1"/>
        <pt x="162" y="1058" on="1"/>
        <pt x="248" y="1231" on="1"/>
        <pt x="469" y="1104" on="1"/>
        <pt x="520" y="1456" on="1"/>
        <pt x="695" y="1456" on="1"/>
        <pt x="608" y="1105" on="1"/>
        <pt x="612" y="1101" on="1"/>
        <pt x="870" y="1223" on="1"/>
        <pt x="887" y="1048" on="1"/>
        <pt x="614" y="955" on="1"/>
        <pt x="726" y="686" on="1"/>
        <pt x="563" y="579" on="1"/>
        <pt x="485" y="866" on="1"/>
        <pt x="479" y="867" on="1"/>
        <pt x="285" y="588" on="1"/>
        <pt x="164" y="691" on="1"/>
      </contour>
    </TTGlyph>
    <TTGlyph name="at" xMin="-31" yMin="-453" xMax="1582" yMax="1414">
      <contour>
        <pt x="1488" y="516" on="1"/>
        <pt x="1437" y="297" on="0"/>
        <pt x="1167" y="-21" on="0"/>
        <pt x="961" y="-21" on="1"/>
        <pt x="897" y="-21" on="0"/>
        <pt x="814" y="71" on="0"/>
        <pt x="809" y="153" on="1"/>
        <pt x="755" y="67" on="0"/>
        <pt x="632" y="-18" on="0"/>
        <pt x="563" y="-18" on="1"/>
        <pt x="449" y="-18" on="0"/>
        <pt x="358" y="224" on="0"/>
        <pt x="413" y="416" on="1"/>
        <pt x="485" y="668" on="0"/>
        <pt x="746" y="972" on="0"/>
        <pt x="889" y="972" on="1"/>
        <pt x="984" y="972" on="0"/>
        <pt x="1111" y="917" on="0"/>
        <pt x="1171" y="866" on="1"/>
        <pt x="1167" y="862" on="1"/>
        <pt x="1172" y="862" on="1"/>
        <pt x="1015" y="293" on="1"/>
        <pt x="991" y="195" on="0"/>
        <pt x="1003" y="126" on="0"/>
        <pt x="1028" y="134" on="1"/>
        <pt x="1034" y="133" on="1"/>
        <pt x="1116" y="127" on="0"/>
        <pt x="1278" y="351" on="0"/>
        <pt x="1318" y="516" on="1"/>
        <pt x="1401" y="866" on="0"/>
        <pt x="1229" y="1259" on="0"/>
        <pt x="968" y="1259" on="1"/>
        <pt x="732" y="1259" on="0"/>
        <pt x="337" y="831" on="0"/>
        <pt x="255" y="478" on="1"/>
        <pt x="170" y="126" on="0"/>
        <pt x="355" y="-285" on="0"/>
        <pt x="606" y="-285" on="1"/>
        <pt x="673" y="-285" on="0"/>
        <pt x="839" y="-245" on="0"/>
        <pt x="899" y="-216" on="1"/>
        <pt x="903" y="-364" on="1"/>
        <pt x="837" y="-406" on="0"/>
        <pt x="653" y="-453" on="0"/>
        <pt x="569" y="-453" on="1"/>
        <pt x="253" y="-453" on="0"/>
        <pt x="-31" y="54" on="0"/>
        <pt x="67" y="478" on="1"/>
        <pt x="167" y="906" on="0"/>
        <pt x="671" y="1414" on="0"/>
        <pt x="1003" y="1414" on="1"/>
        <pt x="1308" y="1414" on="0"/>
        <pt x="1582" y="923" on="0"/>
      </contour>
      <contour>
        <pt x="627" y="416" on="1"/>
        <pt x="595" y="289" on="0"/>
        <pt x="610" y="155" on="0"/>
        <pt x="658" y="155" on="1"/>
        <pt x="698" y="155" on="0"/>
        <pt x="779" y="212" on="0"/>
        <pt x="821" y="287" on="1"/>
        <pt x="823" y="293" on="1"/>
        <pt x="959" y="790" on="1"/>
        <pt x="944" y="795" on="0"/>
        <pt x="911" y="801" on="0"/>
        <pt x="894" y="801" on="1"/>
        <pt x="810" y="801" on="0"/>
        <pt x="679" y="608" on="0"/>
      </contour>
    </TTGlyph>
    <TTGlyph name="atilde" xMin="4" yMin="-21" xMax="978" yMax="1577">
      <component glyphName="a" x="0" y="0" flags="0x204"/>
      <component glyphName="tilde" x="72" y="51" flags="0x4"/>
    </TTGlyph>
    <TTGlyph name="b" xMin="5" yMin="-21" xMax="973" yMax="1560">
      <contour>
        <pt x="919" y="495" on="1"/>
        <pt x="866" y="233" on="0"/>
        <pt x="662" y="-21" on="0"/>
        <pt x="491" y="-21" on="1"/>
        <pt x="424" y="-21" on="0"/>
        <pt x="318" y="44" on="0"/>
        <pt x="286" y="105" on="1"/>
        <pt x="249" y="0" on="1"/>
        <pt x="5" y="0" on="1"/>
        <pt x="317" y="1560" on="1"/>
        <pt x="599" y="1560" on="1"/>
        <pt x="489" y="1014" on="1"/>
        <pt x="533" y="1056" on="0"/>
        <pt x="630" y="1102" on="0"/>
        <pt x="682" y="1102" on="1"/>
        <pt x="841" y="1102" on="0"/>
        <pt x="973" y="768" on="0"/>
        <pt x="923" y="516" on="1"/>
      </contour>
      <contour>
        <pt x="642" y="516" on="1"/>
        <pt x="677" y="690" on="0"/>
        <pt x="658" y="874" on="0"/>
        <pt x="580" y="874" on="1"/>
        <pt x="542" y="874" on="0"/>
        <pt x="470" y="814" on="0"/>
        <pt x="439" y="762" on="1"/>
        <pt x="338" y="258" on="1"/>
        <pt x="351" y="231" on="0"/>
        <pt x="404" y="207" on="0"/>
        <pt x="446" y="207" on="1"/>
        <pt x="521" y="207" on="0"/>
        <pt x="608" y="350" on="0"/>
        <pt x="638" y="495" on="1"/>
      </contour>
    </TTGlyph>
    <TTGlyph name="backslash" xMin="209" yMin="-125" xMax="661" yMax="1456">
      <contour>
        <pt x="209" y="1456" on="1"/>
        <pt x="486" y="1456" on="1"/>
        <pt x="661" y="-125" on="1"/>
        <pt x="381" y="-125" on="1"/>
      </contour>
    </TTGlyph>
    <TTGlyph name="bar" xMin="38" yMin="-270" xMax="475" yMax="1456">
      <contour>
        <pt x="199" y="-270" on="1"/>
        <pt x="38" y="-270" on="1"/>
        <pt x="314" y="1456" on="1"/>
        <pt x="475" y="1456" on="1"/>
      </contour>
    </TTGlyph>
    <TTGlyph name="beta" xMin="-50" yMin="-409" xMax="1090" yMax="1477">
      <contour>
        <pt x="738" y="1477" on="1"/>
        <pt x="907" y="1477" on="0"/>
        <pt x="1090" y="1265" on="0"/>
        <pt x="1054" y="1083" on="1"/>
        <pt x="1031" y="974" on="0"/>
        <pt x="912" y="808" on="0"/>
        <pt x="827" y="762" on="1"/>
        <pt x="914" y="717" on="0"/>
        <pt x="989" y="533" on="0"/>
        <pt x="965" y="409" on="1"/>
        <pt x="921" y="191" on="0"/>
        <pt x="692" y="-21" on="0"/>
        <pt x="521" y="-21" on="1"/>
        <pt x="468" y="-21" on="0"/>
        <pt x="364" y="12" on="0"/>
        <pt x="322" y="46" on="1"/>
        <pt x="231" y="-409" on="1"/>
        <pt x="-50" y="-409" on="1"/>
        <pt x="238" y="1030" on="1"/>
        <pt x="280" y="1242" on="0"/>
        <pt x="560" y="1477" on="0"/>
      </contour>
      <contour>
        <pt x="565" y="853" on="1"/>
        <pt x="611" y="853" on="1"/>
        <pt x="667" y="853" on="0"/>
        <pt x="748" y="961" on="0"/>
        <pt x="768" y="1061" on="1"/>
        <pt x="784" y="1144" on="0"/>
        <pt x="747" y="1249" on="0"/>
        <pt x="693" y="1249" on="1"/>
        <pt x="638" y="1249" on="0"/>
        <pt x="538" y="1128" on="0"/>
        <pt x="519" y="1030" on="1"/>
        <pt x="362" y="246" on="1"/>
        <pt x="384" y="226" on="0"/>
        <pt x="452" y="206" on="0"/>
        <pt x="497" y="206" on="1"/>
        <pt x="557" y="206" on="0"/>
        <pt x="665" y="325" on="0"/>
        <pt x="683" y="414" on="1"/>
        <pt x="706" y="534" on="0"/>
        <pt x="658" y="647" on="0"/>
        <pt x="588" y="647" on="1"/>
        <pt x="523" y="647" on="1"/>
        <pt x="554" y="799" on="1"/>
      </contour>
    </TTGlyph>
    <TTGlyph name="braceleft" xMin="58" yMin="-361" xMax="682" yMax="1596">
      <contour>
        <pt x="340" y="-361" on="1"/>
        <pt x="189" y="-306" on="0"/>
        <pt x="91" y="-66" on="0"/>
        <pt x="119" y="104" on="1"/>
        <pt x="152" y="310" on="1"/>
        <pt x="168" y="412" on="0"/>
        <pt x="123" y="519" on="0"/>
        <pt x="58" y="519" on="1"/>
        <pt x="82" y="670" on="1"/>
        <pt x="83" y="670" on="1"/>
        <pt x="91" y="721" on="1"/>
        <pt x="153" y="721" on="0"/>
        <pt x="235" y="832" on="0"/>
        <pt x="251" y="930" on="1"/>
        <pt x="284" y="1137" on="1"/>
        <pt x="312" y="1314" on="0"/>
        <pt x="483" y="1545" on="0"/>
        <pt x="650" y="1596" on="1"/>
        <pt x="656" y="1595" on="1"/>
        <pt x="682" y="1445" on="1"/>
        <pt x="621" y="1414" on="0"/>
        <pt x="553" y="1258" on="0"/>
        <pt x="534" y="1137" on="1"/>
        <pt x="501" y="930" on="1"/>
        <pt x="483" y="821" on="0"/>
        <pt x="378" y="660" on="0"/>
        <pt x="290" y="617" on="1"/>
        <pt x="362" y="570" on="0"/>
        <pt x="418" y="410" on="0"/>
        <pt x="402" y="310" on="1"/>
        <pt x="369" y="104" on="1"/>
        <pt x="348" y="-22" on="0"/>
        <pt x="366" y="-172" on="0"/>
        <pt x="419" y="-203" on="1"/>
      </contour>
    </TTGlyph>
    <TTGlyph name="braceright" xMin="-56" yMin="-361" xMax="569" yMax="1595">
      <contour>
        <pt x="-56" y="-210" on="1"/>
        <pt x="6" y="-179" on="0"/>
        <pt x="74" y="-23" on="0"/>
        <pt x="94" y="97" on="1"/>
        <pt x="127" y="303" on="1"/>
        <pt x="144" y="412" on="0"/>
        <pt x="249" y="572" on="0"/>
        <pt x="339" y="615" on="1"/>
        <pt x="266" y="660" on="0"/>
        <pt x="209" y="820" on="0"/>
        <pt x="226" y="923" on="1"/>
        <pt x="259" y="1130" on="1"/>
        <pt x="278" y="1254" on="0"/>
        <pt x="259" y="1406" on="0"/>
        <pt x="207" y="1438" on="1"/>
        <pt x="285" y="1595" on="1"/>
        <pt x="435" y="1540" on="0"/>
        <pt x="533" y="1300" on="0"/>
        <pt x="506" y="1130" on="1"/>
        <pt x="473" y="923" on="1"/>
        <pt x="456" y="820" on="0"/>
        <pt x="502" y="714" on="0"/>
        <pt x="569" y="714" on="1"/>
        <pt x="560" y="660" on="1"/>
        <pt x="545" y="566" on="1"/>
        <pt x="536" y="512" on="1"/>
        <pt x="472" y="512" on="0"/>
        <pt x="389" y="400" on="0"/>
        <pt x="374" y="303" on="1"/>
        <pt x="341" y="97" on="1"/>
        <pt x="312" y="-79" on="0"/>
        <pt x="141" y="-311" on="0"/>
        <pt x="-25" y="-361" on="1"/>
        <pt x="-31" y="-361" on="1"/>
      </contour>
    </TTGlyph>
    <TTGlyph name="bracketleft" xMin="-20" yMin="-339" xMax="692" yMax="1695">
      <contour>
        <pt x="657" y="1478" on="1"/>
        <pt x="555" y="1478" on="1"/>
        <pt x="299" y="-123" on="1"/>
        <pt x="401" y="-123" on="1"/>
        <pt x="367" y="-339" on="1"/>
        <pt x="-20" y="-339" on="1"/>
        <pt x="305" y="1695" on="1"/>
        <pt x="692" y="1695" on="1"/>
      </contour>
    </TTGlyph>
    <TTGlyph name="bracketright" xMin="-98" yMin="-339" xMax="615" yMax="1695">
      <contour>
        <pt x="227" y="1695" on="1"/>
        <pt x="615" y="1695" on="1"/>
        <pt x="290" y="-339" on="1"/>
        <pt x="-98" y="-339" on="1"/>
        <pt x="-64" y="-123" on="1"/>
        <pt x="41" y="-123" on="1"/>
        <pt x="297" y="1478" on="1"/>
        <pt x="192" y="1478" on="1"/>
      </contour>
    </TTGlyph>
    <TTGlyph name="breve" xMin="237" yMin="1160" xMax="864" yMax="1456">
      <contour>
        <pt x="862" y="1456" on="1"/>
        <pt x="864" y="1450" on="1"/>
        <pt x="847" y="1316" on="0"/>
        <pt x="659" y="1160" on="0"/>
        <pt x="518" y="1160" on="1"/>
        <pt x="382" y="1160" on="0"/>
        <pt x="237" y="1323" on="0"/>
        <pt x="262" y="1451" on="1"/>
        <pt x="264" y="1456" on="1"/>
        <pt x="470" y="1456" on="1"/>
        <pt x="461" y="1402" on="0"/>
        <pt x="497" y="1335" on="0"/>
        <pt x="546" y="1335" on="1"/>
        <pt x="591" y="1335" on="0"/>
        <pt x="647" y="1403" on="0"/>
        <pt x="656" y="1456" on="1"/>
      </contour>
    </TTGlyph>
    <TTGlyph name="breveacutecomb" xMin="265" yMin="1220" xMax="878" yMax="1693">
      <contour>
        <pt x="661" y="1693" on="1"/>
        <pt x="851" y="1693" on="1"/>
        <pt x="854" y="1687" on="1"/>
        <pt x="679" y="1504" on="1"/>
        <pt x="528" y="1504" on="1"/>
      </contour>
      <contour>
        <pt x="876" y="1455" on="1"/>
        <pt x="878" y="1449" on="1"/>
        <pt x="861" y="1341" on="0"/>
        <pt x="678" y="1220" on="0"/>
        <pt x="538" y="1220" on="1"/>
        <pt x="409" y="1220" on="0"/>
        <pt x="265" y="1350" on="0"/>
        <pt x="291" y="1449" on="1"/>
        <pt x="293" y="1455" on="1"/>
        <pt x="498" y="1455" on="1"/>
        <pt x="489" y="1410" on="0"/>
        <pt x="521" y="1359" on="0"/>
        <pt x="566" y="1359" on="1"/>
        <pt x="607" y="1359" on="0"/>
        <pt x="664" y="1414" on="0"/>
        <pt x="672" y="1455" on="1"/>
      </contour>
    </TTGlyph>
    <TTGlyph name="brevegravecomb" xMin="265" yMin="1220" xMax="878" yMax="1747">
      <contour>
        <pt x="726" y="1526" on="1"/>
        <pt x="513" y="1526" on="1"/>
        <pt x="387" y="1747" on="1"/>
        <pt x="643" y="1747" on="1"/>
      </contour>
      <contour>
        <pt x="876" y="1455" on="1"/>
        <pt x="878" y="1449" on="1"/>
        <pt x="861" y="1341" on="0"/>
        <pt x="678" y="1220" on="0"/>
        <pt x="538" y="1220" on="1"/>
        <pt x="409" y="1220" on="0"/>
        <pt x="265" y="1350" on="0"/>
        <pt x="291" y="1449" on="1"/>
        <pt x="293" y="1455" on="1"/>
        <pt x="498" y="1455" on="1"/>
        <pt x="489" y="1410" on="0"/>
        <pt x="521" y="1359" on="0"/>
        <pt x="566" y="1359" on="1"/>
        <pt x="607" y="1359" on="0"/>
        <pt x="664" y="1414" on="0"/>
        <pt x="672" y="1455" on="1"/>
      </contour>
    </TTGlyph>
    <TTGlyph name="brevehookcomb" xMin="275" yMin="1220" xMax="888" yMax="1813">
      <contour>
        <pt x="886" y="1455" on="1"/>
        <pt x="888" y="1449" on="1"/>
        <pt x="871" y="1341" on="0"/>
        <pt x="688" y="1220" on="0"/>
        <pt x="548" y="1220" on="1"/>
        <pt x="419" y="1220" on="0"/>
        <pt x="275" y="1350" on="0"/>
        <pt x="301" y="1449" on="1"/>
        <pt x="303" y="1455" on="1"/>
        <pt x="508" y="1455" on="1"/>
        <pt x="499" y="1410" on="0"/>
        <pt x="531" y="1359" on="0"/>
        <pt x="576" y="1359" on="1"/>
        <pt x="617" y="1359" on="0"/>
        <pt x="674" y="1414" on="0"/>
        <pt x="682" y="1455" on="1"/>
      </contour>
      <contour>
        <pt x="497" y="1497" on="1"/>
        <pt x="500" y="1601" on="1"/>
        <pt x="555" y="1603" on="0"/>
        <pt x="607" y="1626" on="0"/>
        <pt x="613" y="1654" on="1"/>
        <pt x="619" y="1684" on="0"/>
        <pt x="572" y="1710" on="0"/>
        <pt x="526" y="1710" on="1"/>
        <pt x="553" y="1813" on="1"/>
        <pt x="715" y="1813" on="0"/>
        <pt x="862" y="1738" on="0"/>
        <pt x="848" y="1662" on="1"/>
        <pt x="837" y="1611" on="0"/>
        <pt x="760" y="1554" on="0"/>
        <pt x="712" y="1548" on="1"/>
        <pt x="702" y="1497" on="1"/>
      </contour>
    </TTGlyph>
    <TTGlyph name="brevetildecomb" xMin="275" yMin="1220" xMax="882" yMax="1763">
      <contour>
        <pt x="875" y="1457" on="1"/>
        <pt x="877" y="1451" on="1"/>
        <pt x="860" y="1342" on="0"/>
        <pt x="679" y="1220" on="0"/>
        <pt x="543" y="1220" on="1"/>
        <pt x="417" y="1220" on="0"/>
        <pt x="275" y="1351" on="0"/>
        <pt x="301" y="1451" on="1"/>
        <pt x="303" y="1457" on="1"/>
        <pt x="505" y="1457" on="1"/>
        <pt x="496" y="1412" on="0"/>
        <pt x="526" y="1360" on="0"/>
        <pt x="571" y="1360" on="1"/>
        <pt x="610" y="1360" on="0"/>
        <pt x="664" y="1416" on="0"/>
        <pt x="673" y="1457" on="1"/>
      </contour>
      <contour>
        <pt x="882" y="1729" on="1"/>
        <pt x="866" y="1650" on="0"/>
        <pt x="770" y="1549" on="0"/>
        <pt x="713" y="1549" on="1"/>
        <pt x="673" y="1549" on="0"/>
        <pt x="569" y="1619" on="0"/>
        <pt x="538" y="1619" on="1"/>
        <pt x="519" y="1619" on="0"/>
        <pt x="480" y="1567" on="0"/>
        <pt x="473" y="1531" on="1"/>
        <pt x="369" y="1564" on="1"/>
        <pt x="384" y="1642" on="0"/>
        <pt x="477" y="1744" on="0"/>
        <pt x="537" y="1744" on="1"/>
        <pt x="565" y="1744" on="0"/>
        <pt x="677" y="1675" on="0"/>
        <pt x="711" y="1675" on="1"/>
        <pt x="728" y="1675" on="0"/>
        <pt x="765" y="1726" on="0"/>
        <pt x="773" y="1763" on="1"/>
      </contour>
    </TTGlyph>
    <TTGlyph name="brokenbar" xMin="-33" yMin="-270" xMax="561" yMax="1456">
      <contour>
        <pt x="-33" y="-270" on="1"/>
        <pt x="125" y="521" on="1"/>
        <pt x="374" y="521" on="1"/>
        <pt x="216" y="-270" on="1"/>
      </contour>
      <contour>
        <pt x="410" y="698" on="1"/>
        <pt x="161" y="698" on="1"/>
        <pt x="312" y="1456" on="1"/>
        <pt x="561" y="1456" on="1"/>
      </contour>
    </TTGlyph>
    <TTGlyph name="bullet" xMin="162" yMin="485" xMax="646" yMax="1034">
      <contour>
        <pt x="201" y="806" on="1"/>
        <pt x="222" y="912" on="0"/>
        <pt x="361" y="1034" on="0"/>
        <pt x="458" y="1034" on="1"/>
        <pt x="550" y="1034" on="0"/>
        <pt x="646" y="905" on="0"/>
        <pt x="626" y="806" on="1"/>
        <pt x="607" y="710" on="1"/>
        <pt x="585" y="603" on="0"/>
        <pt x="449" y="485" on="0"/>
        <pt x="350" y="485" on="1"/>
        <pt x="259" y="485" on="0"/>
        <pt x="162" y="612" on="0"/>
        <pt x="182" y="710" on="1"/>
      </contour>
    </TTGlyph>
    <TTGlyph name="c" xMin="23" yMin="-21" xMax="906" yMax="1102">
      <contour>
        <pt x="433" y="206" on="1"/>
        <pt x="484" y="206" on="0"/>
        <pt x="551" y="292" on="0"/>
        <pt x="564" y="373" on="1"/>
        <pt x="819" y="373" on="1"/>
        <pt x="821" y="367" on="1"/>
        <pt x="795" y="190" on="0"/>
        <pt x="559" y="-21" on="0"/>
        <pt x="397" y="-21" on="1"/>
        <pt x="204" y="-21" on="0"/>
        <pt x="23" y="256" on="0"/>
        <pt x="58" y="470" on="1"/>
        <pt x="80" y="609" on="1"/>
        <pt x="116" y="833" on="0"/>
        <pt x="373" y="1102" on="0"/>
        <pt x="575" y="1102" on="1"/>
        <pt x="737" y="1102" on="0"/>
        <pt x="906" y="873" on="0"/>
        <pt x="876" y="679" on="1"/>
        <pt x="613" y="679" on="1"/>
        <pt x="627" y="772" on="0"/>
        <pt x="594" y="874" on="0"/>
        <pt x="539" y="874" on="1"/>
        <pt x="465" y="874" on="0"/>
        <pt x="381" y="728" on="0"/>
        <pt x="362" y="609" on="1"/>
        <pt x="340" y="470" on="1"/>
        <pt x="319" y="341" on="0"/>
        <pt x="353" y="206" on="0"/>
      </contour>
    </TTGlyph>
    <TTGlyph name="cacute" xMin="23" yMin="-21" xMax="930" yMax="1504">
      <component glyphName="c" x="0" y="0" flags="0x204"/>
      <component glyphName="acute" x="199" y="26" flags="0x4"/>
    </TTGlyph>
    <TTGlyph name="caron" xMin="298" yMin="1252" xMax="969" yMax="1522">
      <contour>
        <pt x="610" y="1395" on="1"/>
        <pt x="715" y="1522" on="1"/>
        <pt x="969" y="1522" on="1"/>
        <pt x="966" y="1505" on="1"/>
        <pt x="675" y="1252" on="1"/>
        <pt x="486" y="1252" on="1"/>
        <pt x="298" y="1507" on="1"/>
        <pt x="301" y="1522" on="1"/>
        <pt x="554" y="1522" on="1"/>
      </contour>
    </TTGlyph>
    <TTGlyph name="ccaron" xMin="23" yMin="-21" xMax="961" yMax="1550">
      <component glyphName="c" x="0" y="0" flags="0x204"/>
      <component glyphName="caron" x="-8" y="28" flags="0x4"/>
    </TTGlyph>
    <TTGlyph name="ccedilla" xMin="23" yMin="-460" xMax="906" yMax="1102">
      <component glyphName="c" x="0" y="0" flags="0x204"/>
      <component glyphName="cedilla" x="263" y="0" flags="0x4"/>
    </TTGlyph>
    <TTGlyph name="ccircumflex" xMin="23" yMin="-21" xMax="906" yMax="1531">
      <component glyphName="c" x="0" y="0" flags="0x204"/>
      <component glyphName="circumflex" x="-31" y="17" flags="0x4"/>
    </TTGlyph>
    <TTGlyph name="cedilla" xMin="-47" yMin="-460" xMax="310" yMax="7">
      <contour>
        <pt x="236" y="7" on="1"/>
        <pt x="216" y="-52" on="1"/>
        <pt x="261" y="-63" on="0"/>
        <pt x="310" y="-146" on="0"/>
        <pt x="295" y="-225" on="1"/>
        <pt x="271" y="-340" on="0"/>
        <pt x="98" y="-460" on="0"/>
        <pt x="-42" y="-458" on="1"/>
        <pt x="-47" y="-454" on="1"/>
        <pt x="-21" y="-299" on="1"/>
        <pt x="7" y="-299" on="0"/>
        <pt x="49" y="-257" on="0"/>
        <pt x="58" y="-215" on="1"/>
        <pt x="66" y="-170" on="0"/>
        <pt x="28" y="-139" on="0"/>
        <pt x="-29" y="-134" on="1"/>
        <pt x="25" y="7" on="1"/>
      </contour>
    </TTGlyph>
    <TTGlyph name="cent" xMin="64" yMin="-245" xMax="936" yMax="1318">
      <contour>
        <pt x="469" y="206" on="1"/>
        <pt x="520" y="206" on="0"/>
        <pt x="587" y="292" on="0"/>
        <pt x="600" y="373" on="1"/>
        <pt x="856" y="373" on="1"/>
        <pt x="858" y="368" on="1"/>
        <pt x="835" y="211" on="0"/>
        <pt x="643" y="7" on="0"/>
        <pt x="506" y="-15" on="1"/>
        <pt x="460" y="-245" on="1"/>
        <pt x="278" y="-245" on="1"/>
        <pt x="326" y="-7" on="1"/>
        <pt x="186" y="29" on="0"/>
        <pt x="64" y="289" on="0"/>
        <pt x="94" y="470" on="1"/>
        <pt x="116" y="609" on="1"/>
        <pt x="149" y="815" on="0"/>
        <pt x="371" y="1076" on="0"/>
        <pt x="547" y="1098" on="1"/>
        <pt x="591" y="1318" on="1"/>
        <pt x="773" y="1318" on="1"/>
        <pt x="726" y="1084" on="1"/>
        <pt x="835" y="1046" on="0"/>
        <pt x="936" y="834" on="0"/>
        <pt x="912" y="679" on="1"/>
        <pt x="649" y="679" on="1"/>
        <pt x="663" y="772" on="0"/>
        <pt x="630" y="874" on="0"/>
        <pt x="575" y="874" on="1"/>
        <pt x="501" y="874" on="0"/>
        <pt x="417" y="728" on="0"/>
        <pt x="398" y="609" on="1"/>
        <pt x="376" y="470" on="1"/>
        <pt x="355" y="341" on="0"/>
        <pt x="389" y="206" on="0"/>
      </contour>
    </TTGlyph>
    <TTGlyph name="chi" xMin="-117" yMin="-432" xMax="1041" yMax="1098">
      <contour>
        <pt x="299" y="1098" on="1"/>
        <pt x="422" y="1098" on="0"/>
        <pt x="531" y="933" on="0"/>
        <pt x="541" y="826" on="1"/>
        <pt x="552" y="744" on="1"/>
        <pt x="558" y="743" on="1"/>
        <pt x="756" y="1082" on="1"/>
        <pt x="1041" y="1082" on="1"/>
        <pt x="607" y="346" on="1"/>
        <pt x="665" y="-68" on="1"/>
        <pt x="666" y="-118" on="0"/>
        <pt x="696" y="-188" on="0"/>
        <pt x="725" y="-197" on="1"/>
        <pt x="733" y="-199" on="0"/>
        <pt x="752" y="-200" on="0"/>
        <pt x="764" y="-200" on="1"/>
        <pt x="707" y="-421" on="1"/>
        <pt x="674" y="-428" on="0"/>
        <pt x="604" y="-432" on="0"/>
        <pt x="572" y="-429" on="1"/>
        <pt x="477" y="-418" on="0"/>
        <pt x="398" y="-221" on="0"/>
        <pt x="392" y="-98" on="1"/>
        <pt x="384" y="-43" on="1"/>
        <pt x="378" y="-42" on="1"/>
        <pt x="159" y="-415" on="1"/>
        <pt x="-117" y="-415" on="1"/>
        <pt x="331" y="354" on="1"/>
        <pt x="278" y="754" on="1"/>
        <pt x="274" y="808" on="0"/>
        <pt x="210" y="869" on="0"/>
        <pt x="165" y="869" on="1"/>
        <pt x="156" y="869" on="0"/>
        <pt x="120" y="865" on="0"/>
        <pt x="112" y="863" on="1"/>
        <pt x="148" y="1075" on="1"/>
        <pt x="204" y="1088" on="0"/>
        <pt x="261" y="1098" on="0"/>
      </contour>
    </TTGlyph>
    <TTGlyph name="circumflex" xMin="282" yMin="1252" xMax="932" yMax="1514">
      <contour>
        <pt x="932" y="1274" on="1"/>
        <pt x="927" y="1252" on="1"/>
        <pt x="708" y="1252" on="1"/>
        <pt x="628" y="1386" on="1"/>
        <pt x="496" y="1252" on="1"/>
        <pt x="282" y="1252" on="1"/>
        <pt x="287" y="1277" on="1"/>
        <pt x="577" y="1514" on="1"/>
        <pt x="732" y="1514" on="1"/>
      </contour>
    </TTGlyph>
    <TTGlyph name="circumflexacutecomb" xMin="247" yMin="1252" xMax="1344" yMax="1687">
      <contour>
        <pt x="1096" y="1687" on="1"/>
        <pt x="1342" y="1687" on="1"/>
        <pt x="1344" y="1682" on="1"/>
        <pt x="1116" y="1419" on="1"/>
        <pt x="923" y="1419" on="1"/>
      </contour>
      <contour>
        <pt x="975" y="1252" on="1"/>
        <pt x="725" y="1252" on="1"/>
        <pt x="637" y="1400" on="1"/>
        <pt x="490" y="1252" on="1"/>
        <pt x="249" y="1252" on="1"/>
        <pt x="247" y="1258" on="1"/>
        <pt x="543" y="1507" on="1"/>
        <pt x="775" y="1507" on="1"/>
      </contour>
    </TTGlyph>
    <TTGlyph name="circumflexgravecomb" xMin="37" yMin="1252" xMax="969" yMax="1687">
      <contour>
        <pt x="355" y="1419" on="1"/>
        <pt x="165" y="1419" on="1"/>
        <pt x="37" y="1687" on="1"/>
        <pt x="289" y="1687" on="1"/>
      </contour>
      <contour>
        <pt x="969" y="1252" on="1"/>
        <pt x="719" y="1252" on="1"/>
        <pt x="631" y="1400" on="1"/>
        <pt x="484" y="1252" on="1"/>
        <pt x="243" y="1252" on="1"/>
        <pt x="241" y="1258" on="1"/>
        <pt x="537" y="1507" on="1"/>
        <pt x="769" y="1507" on="1"/>
      </contour>
    </TTGlyph>
    <TTGlyph name="circumflexhookcomb" xMin="240" yMin="1252" xMax="1238" yMax="1723">
      <contour>
        <pt x="968" y="1252" on="1"/>
        <pt x="718" y="1252" on="1"/>
        <pt x="630" y="1400" on="1"/>
        <pt x="483" y="1252" on="1"/>
        <pt x="242" y="1252" on="1"/>
        <pt x="240" y="1258" on="1"/>
        <pt x="536" y="1507" on="1"/>
        <pt x="768" y="1507" on="1"/>
      </contour>
      <contour>
        <pt x="914" y="1385" on="1"/>
        <pt x="921" y="1495" on="1"/>
        <pt x="970" y="1498" on="0"/>
        <pt x="1017" y="1522" on="0"/>
        <pt x="1023" y="1551" on="1"/>
        <pt x="1030" y="1583" on="0"/>
        <pt x="987" y="1612" on="0"/>
        <pt x="947" y="1612" on="1"/>
        <pt x="976" y="1723" on="1"/>
        <pt x="1115" y="1723" on="0"/>
        <pt x="1238" y="1643" on="0"/>
        <pt x="1222" y="1561" on="1"/>
        <pt x="1210" y="1506" on="0"/>
        <pt x="1142" y="1445" on="0"/>
        <pt x="1102" y="1438" on="1"/>
        <pt x="1091" y="1385" on="1"/>
      </contour>
    </TTGlyph>
    <TTGlyph name="circumflextildecomb" xMin="241" yMin="1252" xMax="969" yMax="1767">
      <contour>
        <pt x="926" y="1727" on="1"/>
        <pt x="912" y="1654" on="0"/>
        <pt x="826" y="1554" on="0"/>
        <pt x="773" y="1554" on="1"/>
        <pt x="736" y="1554" on="0"/>
        <pt x="623" y="1627" on="0"/>
        <pt x="592" y="1627" on="1"/>
        <pt x="575" y="1627" on="0"/>
        <pt x="544" y="1578" on="0"/>
        <pt x="538" y="1543" on="1"/>
        <pt x="441" y="1574" on="1"/>
        <pt x="455" y="1647" on="0"/>
        <pt x="540" y="1749" on="0"/>
        <pt x="593" y="1749" on="1"/>
        <pt x="621" y="1749" on="0"/>
        <pt x="743" y="1678" on="0"/>
        <pt x="774" y="1678" on="1"/>
        <pt x="789" y="1678" on="0"/>
        <pt x="823" y="1732" on="0"/>
        <pt x="830" y="1767" on="1"/>
      </contour>
      <contour>
        <pt x="969" y="1252" on="1"/>
        <pt x="719" y="1252" on="1"/>
        <pt x="631" y="1400" on="1"/>
        <pt x="484" y="1252" on="1"/>
        <pt x="243" y="1252" on="1"/>
        <pt x="241" y="1258" on="1"/>
        <pt x="537" y="1507" on="1"/>
        <pt x="769" y="1507" on="1"/>
      </contour>
    </TTGlyph>
    <TTGlyph name="colon" xMin="41" yMin="0" xMax="536" yMax="1081">
      <component glyphName="period" x="4" y="0" flags="0x204"/>
      <component glyphName="period" x="169" y="823" flags="0x4"/>
    </TTGlyph>
    <TTGlyph name="comma" xMin="-100" yMin="-309" xMax="317" yMax="241">
      <contour>
        <pt x="269" y="2" on="1"/>
        <pt x="64" y="-309" on="1"/>
        <pt x="-100" y="-309" on="1"/>
        <pt x="21" y="10" on="1"/>
        <pt x="67" y="241" on="1"/>
        <pt x="317" y="241" on="1"/>
      </contour>
    </TTGlyph>
    <TTGlyph name="commaaccent" xMin="-70" yMin="-126" xMax="237" yMax="266">
      <contour>
        <pt x="205" y="105" on="1"/>
        <pt x="42" y="-126" on="1"/>
        <pt x="-70" y="-126" on="1"/>
        <pt x="29" y="114" on="1"/>
        <pt x="59" y="266" on="1"/>
        <pt x="237" y="266" on="1"/>
      </contour>
    </TTGlyph>
    <TTGlyph name="commaaccentrotate" xMin="241" yMin="1101" xMax="580" yMax="1536">
      <contour>
        <pt x="277" y="1279" on="1"/>
        <pt x="427" y="1536" on="1"/>
        <pt x="580" y="1536" on="1"/>
        <pt x="499" y="1271" on="1"/>
        <pt x="465" y="1101" on="1"/>
        <pt x="241" y="1101" on="1"/>
      </contour>
    </TTGlyph>
    <TTGlyph name="copyright" xMin="78" yMin="-21" xMax="1376" yMax="1476">
      <contour>
        <pt x="972" y="596" on="1"/>
        <pt x="974" y="590" on="1"/>
        <pt x="952" y="434" on="0"/>
        <pt x="780" y="282" on="0"/>
        <pt x="643" y="282" on="1"/>
        <pt x="511" y="282" on="0"/>
        <pt x="380" y="496" on="0"/>
        <pt x="408" y="669" on="1"/>
        <pt x="427" y="788" on="1"/>
        <pt x="455" y="967" on="0"/>
        <pt x="647" y="1175" on="0"/>
        <pt x="786" y="1175" on="1"/>
        <pt x="916" y="1175" on="0"/>
        <pt x="1048" y="1013" on="0"/>
        <pt x="1024" y="861" on="1"/>
        <pt x="882" y="861" on="1"/>
        <pt x="898" y="961" on="0"/>
        <pt x="839" y="1046" on="0"/>
        <pt x="765" y="1047" on="1"/>
        <pt x="692" y="1046" on="0"/>
        <pt x="586" y="903" on="0"/>
        <pt x="568" y="789" on="1"/>
        <pt x="549" y="669" on="1"/>
        <pt x="529" y="547" on="0"/>
        <pt x="587" y="410" on="0"/>
        <pt x="664" y="410" on="1"/>
        <pt x="734" y="410" on="0"/>
        <pt x="822" y="498" on="0"/>
        <pt x="838" y="596" on="1"/>
      </contour>
      <contour>
        <pt x="238" y="729" on="1"/>
        <pt x="193" y="452" on="0"/>
        <pt x="420" y="98" on="0"/>
        <pt x="627" y="99" on="1"/>
        <pt x="823" y="98" on="0"/>
        <pt x="1174" y="466" on="0"/>
        <pt x="1217" y="729" on="1"/>
        <pt x="1260" y="1004" on="0"/>
        <pt x="1034" y="1356" on="0"/>
        <pt x="828" y="1356" on="1"/>
        <pt x="631" y="1356" on="0"/>
        <pt x="279" y="990" on="0"/>
      </contour>
      <contour>
        <pt x="129" y="729" on="1"/>
        <pt x="181" y="1056" on="0"/>
        <pt x="594" y="1476" on="0"/>
        <pt x="847" y="1476" on="1"/>
        <pt x="1086" y="1476" on="0"/>
        <pt x="1376" y="1041" on="0"/>
        <pt x="1327" y="729" on="1"/>
        <pt x="1274" y="401" on="0"/>
        <pt x="859" y="-21" on="0"/>
        <pt x="608" y="-21" on="1"/>
        <pt x="368" y="-21" on="0"/>
        <pt x="78" y="416" on="0"/>
      </contour>
    </TTGlyph>
    <TTGlyph name="crossbar" xMin="192" yMin="655" xMax="784" yMax="830">
      <contour>
        <pt x="749" y="655" on="1"/>
        <pt x="192" y="655" on="1"/>
        <pt x="227" y="830" on="1"/>
        <pt x="784" y="830" on="1"/>
      </contour>
    </TTGlyph>
    <TTGlyph name="currency" xMin="11" yMin="-27" xMax="1283" yMax="1265">
      <contour>
        <pt x="845" y="97" on="1"/>
        <pt x="769" y="39" on="0"/>
        <pt x="602" y="-20" on="0"/>
        <pt x="517" y="-20" on="1"/>
        <pt x="439" y="-20" on="0"/>
        <pt x="300" y="45" on="0"/>
        <pt x="248" y="106" on="1"/>
        <pt x="113" y="-26" on="1"/>
        <pt x="11" y="110" on="1"/>
        <pt x="161" y="255" on="1"/>
        <pt x="132" y="331" on="0"/>
        <pt x="120" y="511" on="0"/>
        <pt x="140" y="608" on="1"/>
        <pt x="161" y="716" on="0"/>
        <pt x="245" y="905" on="0"/>
        <pt x="305" y="982" on="1"/>
        <pt x="214" y="1127" on="1"/>
        <pt x="371" y="1264" on="1"/>
        <pt x="456" y="1129" on="1"/>
        <pt x="528" y="1180" on="0"/>
        <pt x="686" y="1234" on="0"/>
        <pt x="768" y="1234" on="1"/>
        <pt x="842" y="1234" on="0"/>
        <pt x="976" y="1173" on="0"/>
        <pt x="1029" y="1117" on="1"/>
        <pt x="1180" y="1265" on="1"/>
        <pt x="1283" y="1127" on="1"/>
        <pt x="1121" y="969" on="1"/>
        <pt x="1151" y="891" on="0"/>
        <pt x="1164" y="707" on="0"/>
        <pt x="1145" y="608" on="1"/>
        <pt x="1124" y="504" on="0"/>
        <pt x="1046" y="322" on="0"/>
        <pt x="992" y="249" on="1"/>
        <pt x="1080" y="110" on="1"/>
        <pt x="922" y="-27" on="1"/>
      </contour>
      <contour>
        <pt x="310" y="608" on="1"/>
        <pt x="269" y="407" on="0"/>
        <pt x="411" y="160" on="0"/>
        <pt x="553" y="160" on="1"/>
        <pt x="682" y="160" on="0"/>
        <pt x="937" y="423" on="0"/>
        <pt x="975" y="608" on="1"/>
        <pt x="1014" y="807" on="0"/>
        <pt x="873" y="1054" on="0"/>
        <pt x="732" y="1054" on="1"/>
        <pt x="602" y="1054" on="0"/>
        <pt x="346" y="792" on="0"/>
      </contour>
    </TTGlyph>
    <TTGlyph name="cyrillicbreve" xMin="237" yMin="1160" xMax="864" yMax="1456">
      <component glyphName="breve" x="0" y="0" flags="0x204"/>
    </TTGlyph>
    <TTGlyph name="cyrillichook" xMin="-231" yMin="-437" xMax="357" yMax="258">
      <contour>
        <pt x="357" y="258" on="1"/>
        <pt x="298" y="-33" on="1"/>
        <pt x="257" y="-239" on="0"/>
        <pt x="48" y="-437" on="0"/>
        <pt x="-110" y="-437" on="1"/>
        <pt x="-141" y="-437" on="0"/>
        <pt x="-199" y="-428" on="0"/>
        <pt x="-231" y="-419" on="1"/>
        <pt x="-174" y="-195" on="1"/>
        <pt x="-153" y="-201" on="0"/>
        <pt x="-120" y="-208" on="0"/>
        <pt x="-99" y="-208" on="1"/>
        <pt x="-62" y="-208" on="0"/>
        <pt x="0" y="-117" on="0"/>
        <pt x="16" y="-33" on="1"/>
        <pt x="75" y="258" on="1"/>
      </contour>
    </TTGlyph>
    <TTGlyph name="cyrillichookleft" xMin="-128" yMin="-412" xMax="302" yMax="58">
      <contour>
        <pt x="192" y="58" on="1"/>
        <pt x="259" y="7" on="0"/>
        <pt x="302" y="-128" on="0"/>
        <pt x="287" y="-204" on="1"/>
        <pt x="266" y="-309" on="0"/>
        <pt x="123" y="-412" on="0"/>
        <pt x="25" y="-412" on="1"/>
        <pt x="-24" y="-412" on="0"/>
        <pt x="-102" y="-386" on="0"/>
        <pt x="-128" y="-368" on="1"/>
        <pt x="-66" y="-216" on="1"/>
        <pt x="-51" y="-225" on="0"/>
        <pt x="-17" y="-237" on="0"/>
        <pt x="6" y="-237" on="1"/>
        <pt x="44" y="-237" on="0"/>
        <pt x="83" y="-191" on="0"/>
        <pt x="87" y="-171" on="1"/>
        <pt x="96" y="-119" on="0"/>
        <pt x="78" y="-53" on="0"/>
        <pt x="52" y="0" on="1"/>
      </contour>
    </TTGlyph>
    <TTGlyph name="cyrillictic" xMin="-84" yMin="-356" xMax="309" yMax="202">
      <contour>
        <pt x="198" y="-356" on="1"/>
        <pt x="-84" y="-356" on="1"/>
        <pt x="27" y="202" on="1"/>
        <pt x="309" y="202" on="1"/>
      </contour>
    </TTGlyph>
    <TTGlyph name="d" xMin="28" yMin="-21" xMax="1096" yMax="1560">
      <contour>
        <pt x="80" y="555" on="1"/>
        <pt x="134" y="827" on="0"/>
        <pt x="350" y="1102" on="0"/>
        <pt x="517" y="1102" on="1"/>
        <pt x="573" y="1102" on="0"/>
        <pt x="667" y="1048" on="0"/>
        <pt x="701" y="998" on="1"/>
        <pt x="814" y="1560" on="1"/>
        <pt x="1096" y="1560" on="1"/>
        <pt x="784" y="0" on="1"/>
        <pt x="539" y="0" on="1"/>
        <pt x="543" y="97" on="1"/>
        <pt x="493" y="40" on="0"/>
        <pt x="381" y="-21" on="0"/>
        <pt x="322" y="-21" on="1"/>
        <pt x="170" y="-21" on="0"/>
        <pt x="28" y="298" on="0"/>
        <pt x="76" y="534" on="1"/>
      </contour>
      <contour>
        <pt x="358" y="534" on="1"/>
        <pt x="326" y="377" on="0"/>
        <pt x="352" y="207" on="0"/>
        <pt x="425" y="207" on="1"/>
        <pt x="461" y="207" on="0"/>
        <pt x="532" y="260" on="0"/>
        <pt x="563" y="307" on="1"/>
        <pt x="663" y="805" on="1"/>
        <pt x="650" y="839" on="0"/>
        <pt x="599" y="874" on="0"/>
        <pt x="562" y="874" on="1"/>
        <pt x="494" y="874" on="0"/>
        <pt x="391" y="702" on="0"/>
        <pt x="362" y="555" on="1"/>
      </contour>
    </TTGlyph>
    <TTGlyph name="dagger" xMin="120" yMin="0" xMax="957" yMax="1456">
      <contour>
        <pt x="919" y="846" on="1"/>
        <pt x="656" y="846" on="1"/>
        <pt x="521" y="0" on="1"/>
        <pt x="240" y="0" on="1"/>
        <pt x="375" y="846" on="1"/>
        <pt x="120" y="846" on="1"/>
        <pt x="158" y="1082" on="1"/>
        <pt x="413" y="1082" on="1"/>
        <pt x="473" y="1456" on="1"/>
        <pt x="754" y="1456" on="1"/>
        <pt x="694" y="1082" on="1"/>
        <pt x="957" y="1082" on="1"/>
      </contour>
    </TTGlyph>
    <TTGlyph name="daggerdbl" xMin="26" yMin="-416" xMax="996" yMax="1456">
      <contour>
        <pt x="823" y="0" on="1"/>
        <pt x="563" y="0" on="1"/>
        <pt x="497" y="-416" on="1"/>
        <pt x="215" y="-416" on="1"/>
        <pt x="281" y="0" on="1"/>
        <pt x="26" y="0" on="1"/>
        <pt x="62" y="227" on="1"/>
        <pt x="318" y="227" on="1"/>
        <pt x="418" y="854" on="1"/>
        <pt x="163" y="854" on="1"/>
        <pt x="199" y="1082" on="1"/>
        <pt x="455" y="1082" on="1"/>
        <pt x="515" y="1456" on="1"/>
        <pt x="797" y="1456" on="1"/>
        <pt x="737" y="1082" on="1"/>
        <pt x="996" y="1082" on="1"/>
        <pt x="960" y="854" on="1"/>
        <pt x="700" y="854" on="1"/>
        <pt x="600" y="227" on="1"/>
        <pt x="859" y="227" on="1"/>
      </contour>
    </TTGlyph>
    <TTGlyph name="dasiaoxia" xMin="244" yMin="1135" xMax="815" yMax="1477">
      <contour>
        <pt x="490" y="1164" on="1"/>
        <pt x="634" y="1477" on="1"/>
        <pt x="815" y="1477" on="1"/>
        <pt x="811" y="1456" on="1"/>
        <pt x="556" y="1137" on="1"/>
        <pt x="484" y="1137" on="1"/>
      </contour>
      <contour>
        <pt x="276" y="1293" on="1"/>
        <pt x="436" y="1476" on="1"/>
        <pt x="527" y="1476" on="1"/>
        <pt x="421" y="1272" on="1"/>
        <pt x="394" y="1135" on="1"/>
        <pt x="244" y="1135" on="1"/>
      </contour>
    </TTGlyph>
    <TTGlyph name="dcaron" xMin="28" yMin="-21" xMax="1372" yMax="1560">
      <component glyphName="d" x="0" y="0" flags="0x4"/>
      <component glyphName="commaaccent" x="1135" y="1293" flags="0x4"/>
    </TTGlyph>
    <TTGlyph name="dcroat" xMin="28" yMin="-21" xMax="1168" yMax="1560">
      <contour>
        <pt x="1133" y="1223" on="1"/>
        <pt x="1028" y="1223" on="1"/>
        <pt x="784" y="0" on="1"/>
        <pt x="539" y="0" on="1"/>
        <pt x="543" y="97" on="1"/>
        <pt x="493" y="40" on="0"/>
        <pt x="381" y="-21" on="0"/>
        <pt x="322" y="-21" on="1"/>
        <pt x="170" y="-21" on="0"/>
        <pt x="28" y="298" on="0"/>
        <pt x="76" y="534" on="1"/>
        <pt x="80" y="555" on="1"/>
        <pt x="134" y="827" on="0"/>
        <pt x="350" y="1102" on="0"/>
        <pt x="517" y="1102" on="1"/>
        <pt x="573" y="1102" on="0"/>
        <pt x="667" y="1048" on="0"/>
        <pt x="701" y="998" on="1"/>
        <pt x="746" y="1223" on="1"/>
        <pt x="576" y="1223" on="1"/>
        <pt x="611" y="1398" on="1"/>
        <pt x="781" y="1398" on="1"/>
        <pt x="814" y="1560" on="1"/>
        <pt x="1096" y="1560" on="1"/>
        <pt x="1063" y="1398" on="1"/>
        <pt x="1168" y="1398" on="1"/>
      </contour>
      <contour>
        <pt x="358" y="534" on="1"/>
        <pt x="326" y="377" on="0"/>
        <pt x="352" y="207" on="0"/>
        <pt x="425" y="207" on="1"/>
        <pt x="461" y="207" on="0"/>
        <pt x="532" y="260" on="0"/>
        <pt x="563" y="307" on="1"/>
        <pt x="663" y="805" on="1"/>
        <pt x="650" y="839" on="0"/>
        <pt x="599" y="874" on="0"/>
        <pt x="562" y="874" on="1"/>
        <pt x="494" y="874" on="0"/>
        <pt x="391" y="702" on="0"/>
        <pt x="362" y="555" on="1"/>
      </contour>
    </TTGlyph>
    <TTGlyph name="degree" xMin="249" yMin="932" xMax="763" yMax="1477">
      <contour>
        <pt x="272" y="1203" on="1"/>
        <pt x="295" y="1322" on="0"/>
        <pt x="463" y="1477" on="0"/>
        <pt x="562" y="1477" on="1"/>
        <pt x="651" y="1477" on="0"/>
        <pt x="763" y="1313" on="0"/>
        <pt x="741" y="1203" on="1"/>
        <pt x="716" y="1082" on="0"/>
        <pt x="551" y="932" on="0"/>
        <pt x="453" y="932" on="1"/>
        <pt x="362" y="932" on="0"/>
        <pt x="249" y="1092" on="0"/>
      </contour>
      <contour>
        <pt x="408" y="1203" on="1"/>
        <pt x="396" y="1144" on="0"/>
        <pt x="440" y="1074" on="0"/>
        <pt x="482" y="1074" on="1"/>
        <pt x="520" y="1074" on="0"/>
        <pt x="594" y="1148" on="0"/>
        <pt x="605" y="1203" on="1"/>
        <pt x="616" y="1262" on="0"/>
        <pt x="575" y="1335" on="0"/>
        <pt x="534" y="1335" on="1"/>
        <pt x="495" y="1335" on="0"/>
        <pt x="418" y="1257" on="0"/>
      </contour>
    </TTGlyph>
    <TTGlyph name="delta" xMin="29" yMin="-21" xMax="1019" yMax="1456">
      <contour>
        <pt x="1019" y="1456" on="1"/>
        <pt x="974" y="1229" on="1"/>
        <pt x="690" y="1229" on="1"/>
        <pt x="810" y="1075" on="0"/>
        <pt x="963" y="738" on="0"/>
        <pt x="926" y="551" on="1"/>
        <pt x="922" y="529" on="1"/>
        <pt x="869" y="268" on="0"/>
        <pt x="594" y="-21" on="0"/>
        <pt x="392" y="-21" on="1"/>
        <pt x="204" y="-21" on="0"/>
        <pt x="29" y="272" on="0"/>
        <pt x="75" y="499" on="1"/>
        <pt x="79" y="521" on="1"/>
        <pt x="121" y="733" on="0"/>
        <pt x="342" y="994" on="0"/>
        <pt x="481" y="1021" on="1"/>
        <pt x="481" y="1021" on="0"/>
        <pt x="476" y="1021" on="0"/>
        <pt x="474" y="1021" on="1"/>
        <pt x="440" y="1090" on="0"/>
        <pt x="362" y="1218" on="0"/>
        <pt x="320" y="1272" on="1"/>
        <pt x="357" y="1456" on="1"/>
      </contour>
      <contour>
        <pt x="361" y="529" on="1"/>
        <pt x="329" y="370" on="0"/>
        <pt x="356" y="208" on="0"/>
        <pt x="435" y="214" on="1"/>
        <pt x="441" y="213" on="1"/>
        <pt x="509" y="208" on="0"/>
        <pt x="610" y="383" on="0"/>
        <pt x="640" y="529" on="1"/>
        <pt x="644" y="551" on="1"/>
        <pt x="668" y="670" on="0"/>
        <pt x="635" y="826" on="0"/>
        <pt x="588" y="866" on="1"/>
        <pt x="580" y="871" on="0"/>
        <pt x="575" y="874" on="0"/>
        <pt x="570" y="874" on="1"/>
        <pt x="498" y="874" on="0"/>
        <pt x="393" y="693" on="0"/>
        <pt x="365" y="551" on="1"/>
      </contour>
    </TTGlyph>
    <TTGlyph name="dieresis" xMin="273" yMin="1258" xMax="980" yMax="1456">
      <contour>
        <pt x="948" y="1258" on="1"/>
        <pt x="703" y="1258" on="1"/>
        <pt x="735" y="1456" on="1"/>
        <pt x="980" y="1456" on="1"/>
      </contour>
      <contour>
        <pt x="518" y="1258" on="1"/>
        <pt x="273" y="1258" on="1"/>
        <pt x="305" y="1456" on="1"/>
        <pt x="550" y="1456" on="1"/>
      </contour>
    </TTGlyph>
    <TTGlyph name="dieresistonos" xMin="300" yMin="1259" xMax="1026" yMax="1755">
      <contour>
        <pt x="987" y="1259" on="1"/>
        <pt x="758" y="1259" on="1"/>
        <pt x="797" y="1456" on="1"/>
        <pt x="1026" y="1456" on="1"/>
      </contour>
      <contour>
        <pt x="530" y="1259" on="1"/>
        <pt x="300" y="1259" on="1"/>
        <pt x="339" y="1456" on="1"/>
        <pt x="569" y="1456" on="1"/>
      </contour>
      <contour>
        <pt x="708" y="1755" on="1"/>
        <pt x="965" y="1755" on="1"/>
        <pt x="753" y="1480" on="1"/>
        <pt x="619" y="1480" on="1"/>
      </contour>
    </TTGlyph>
    <TTGlyph name="divide" xMin="91" yMin="167" xMax="974" yMax="1201">
      <contour>
        <pt x="929" y="577" on="1"/>
        <pt x="91" y="577" on="1"/>
        <pt x="136" y="798" on="1"/>
        <pt x="974" y="798" on="1"/>
      </contour>
      <contour>
        <pt x="727" y="971" on="1"/>
        <pt x="450" y="971" on="1"/>
        <pt x="496" y="1201" on="1"/>
        <pt x="773" y="1201" on="1"/>
      </contour>
      <contour>
        <pt x="566" y="167" on="1"/>
        <pt x="289" y="167" on="1"/>
        <pt x="335" y="397" on="1"/>
        <pt x="612" y="397" on="1"/>
      </contour>
    </TTGlyph>
    <TTGlyph name="dollar" xMin="47" yMin="-215" xMax="1024" yMax="1685">
      <contour>
        <pt x="609" y="381" on="1"/>
        <pt x="622" y="468" on="0"/>
        <pt x="580" y="563" on="0"/>
        <pt x="513" y="610" on="1"/>
        <pt x="341" y="697" on="0"/>
        <pt x="196" y="890" on="0"/>
        <pt x="226" y="1072" on="1"/>
        <pt x="253" y="1244" on="0"/>
        <pt x="464" y="1454" on="0"/>
        <pt x="618" y="1473" on="1"/>
        <pt x="653" y="1685" on="1"/>
        <pt x="795" y="1685" on="1"/>
        <pt x="760" y="1468" on="1"/>
        <pt x="893" y="1438" on="0"/>
        <pt x="1024" y="1196" on="0"/>
        <pt x="994" y="1008" on="1"/>
        <pt x="712" y="1008" on="1"/>
        <pt x="731" y="1130" on="0"/>
        <pt x="689" y="1251" on="0"/>
        <pt x="639" y="1251" on="1"/>
        <pt x="589" y="1251" on="0"/>
        <pt x="519" y="1149" on="0"/>
        <pt x="507" y="1071" on="1"/>
        <pt x="494" y="993" on="0"/>
        <pt x="538" y="898" on="0"/>
        <pt x="607" y="849" on="1"/>
        <pt x="776" y="757" on="0"/>
        <pt x="919" y="562" on="0"/>
        <pt x="891" y="383" on="1"/>
        <pt x="862" y="205" on="0"/>
        <pt x="656" y="2" on="0"/>
        <pt x="502" y="-16" on="1"/>
        <pt x="471" y="-215" on="1"/>
        <pt x="328" y="-215" on="1"/>
        <pt x="359" y="-15" on="1"/>
        <pt x="213" y="7" on="0"/>
        <pt x="47" y="237" on="0"/>
        <pt x="82" y="456" on="1"/>
        <pt x="364" y="456" on="1"/>
        <pt x="341" y="315" on="0"/>
        <pt x="401" y="204" on="0"/>
        <pt x="467" y="204" on="1"/>
        <pt x="520" y="204" on="0"/>
        <pt x="596" y="303" on="0"/>
      </contour>
    </TTGlyph>
    <TTGlyph name="dotaccent" xMin="288" yMin="1229" xMax="623" yMax="1470">
      <contour>
        <pt x="575" y="1229" on="1"/>
        <pt x="288" y="1229" on="1"/>
        <pt x="336" y="1470" on="1"/>
        <pt x="623" y="1470" on="1"/>
      </contour>
    </TTGlyph>
    <TTGlyph name="dotbelow" xMin="-783" yMin="-353" xMax="-422" yMax="-112">
      <contour>
        <pt x="-471" y="-353" on="1"/>
        <pt x="-783" y="-353" on="1"/>
        <pt x="-734" y="-112" on="1"/>
        <pt x="-422" y="-112" on="1"/>
      </contour>
    </TTGlyph>
    <TTGlyph name="dotlessi" xMin="26" yMin="0" xMax="525" yMax="1082">
      <contour>
        <pt x="309" y="0" on="1"/>
        <pt x="26" y="0" on="1"/>
        <pt x="242" y="1082" on="1"/>
        <pt x="525" y="1082" on="1"/>
      </contour>
    </TTGlyph>
    <TTGlyph name="e" xMin="40" yMin="-21" xMax="919" yMax="1102">
      <contour>
        <pt x="423" y="-21" on="1"/>
        <pt x="234" y="-21" on="0"/>
        <pt x="40" y="249" on="0"/>
        <pt x="73" y="451" on="1"/>
        <pt x="97" y="603" on="1"/>
        <pt x="133" y="830" on="0"/>
        <pt x="387" y="1102" on="0"/>
        <pt x="578" y="1102" on="1"/>
        <pt x="754" y="1102" on="0"/>
        <pt x="919" y="845" on="0"/>
        <pt x="885" y="629" on="1"/>
        <pt x="857" y="455" on="1"/>
        <pt x="353" y="455" on="1"/>
        <pt x="353" y="451" on="1"/>
        <pt x="335" y="340" on="0"/>
        <pt x="401" y="206" on="0"/>
        <pt x="493" y="206" on="1"/>
        <pt x="565" y="206" on="0"/>
        <pt x="670" y="243" on="0"/>
        <pt x="741" y="284" on="1"/>
        <pt x="783" y="103" on="1"/>
        <pt x="721" y="49" on="0"/>
        <pt x="531" y="-21" on="0"/>
      </contour>
      <contour>
        <pt x="542" y="874" on="1"/>
        <pt x="484" y="874" on="0"/>
        <pt x="406" y="749" on="0"/>
        <pt x="384" y="645" on="1"/>
        <pt x="610" y="645" on="1"/>
        <pt x="617" y="685" on="1"/>
        <pt x="632" y="779" on="0"/>
        <pt x="599" y="874" on="0"/>
      </contour>
    </TTGlyph>
    <TTGlyph name="eacute" xMin="40" yMin="-21" xMax="941" yMax="1505">
      <component glyphName="e" x="0" y="0" flags="0x204"/>
      <component glyphName="acute" x="210" y="27" flags="0x4"/>
    </TTGlyph>
    <TTGlyph name="ebreve" xMin="40" yMin="-21" xMax="931" yMax="1576">
      <component glyphName="e" x="0" y="0" flags="0x204"/>
      <component glyphName="breve" x="67" y="120" flags="0x4"/>
    </TTGlyph>
    <TTGlyph name="ecaron" xMin="40" yMin="-21" xMax="970" yMax="1551">
      <component glyphName="e" x="0" y="0" flags="0x204"/>
      <component glyphName="caron" x="1" y="29" flags="0x4"/>
    </TTGlyph>
    <TTGlyph name="ecircumflex" xMin="40" yMin="-21" xMax="919" yMax="1532">
      <component glyphName="e" x="0" y="0" flags="0x204"/>
      <component glyphName="circumflex" x="-20" y="18" flags="0x4"/>
    </TTGlyph>
    <TTGlyph name="edieresis" xMin="40" yMin="-21" xMax="955" yMax="1482">
      <component glyphName="e" x="0" y="0" flags="0x204"/>
      <component glyphName="dieresis" x="-25" y="26" flags="0x4"/>
    </TTGlyph>
    <TTGlyph name="edotaccent" xMin="40" yMin="-21" xMax="919" yMax="1527">
      <component glyphName="e" x="0" y="0" flags="0x204"/>
      <component glyphName="dotaccent" x="148" y="57" flags="0x4"/>
    </TTGlyph>
    <TTGlyph name="egrave" xMin="40" yMin="-21" xMax="919" yMax="1504">
      <component glyphName="e" x="0" y="0" flags="0x204"/>
      <component glyphName="grave" x="58" y="27" flags="0x4"/>
    </TTGlyph>
    <TTGlyph name="eight" xMin="39" yMin="-21" xMax="1043" yMax="1477">
      <contour>
        <pt x="1005" y="1070" on="1"/>
        <pt x="981" y="952" on="0"/>
        <pt x="854" y="784" on="0"/>
        <pt x="761" y="740" on="1"/>
        <pt x="842" y="689" on="0"/>
        <pt x="916" y="511" on="0"/>
        <pt x="894" y="398" on="1"/>
        <pt x="850" y="181" on="0"/>
        <pt x="591" y="-21" on="0"/>
        <pt x="403" y="-21" on="1"/>
        <pt x="232" y="-21" on="0"/>
        <pt x="39" y="199" on="0"/>
        <pt x="79" y="398" on="1"/>
        <pt x="103" y="524" on="0"/>
        <pt x="247" y="703" on="0"/>
        <pt x="352" y="749" on="1"/>
        <pt x="279" y="797" on="0"/>
        <pt x="215" y="964" on="0"/>
        <pt x="237" y="1070" on="1"/>
        <pt x="278" y="1277" on="0"/>
        <pt x="524" y="1477" on="0"/>
        <pt x="702" y="1477" on="1"/>
        <pt x="864" y="1477" on="0"/>
        <pt x="1043" y="1260" on="0"/>
      </contour>
      <contour>
        <pt x="616" y="419" on="1"/>
        <pt x="636" y="523" on="0"/>
        <pt x="591" y="632" on="0"/>
        <pt x="533" y="632" on="1"/>
        <pt x="479" y="632" on="0"/>
        <pt x="385" y="515" on="0"/>
        <pt x="366" y="419" on="1"/>
        <pt x="344" y="313" on="0"/>
        <pt x="388" y="206" on="0"/>
        <pt x="448" y="206" on="1"/>
        <pt x="501" y="206" on="0"/>
        <pt x="596" y="321" on="0"/>
      </contour>
      <contour>
        <pt x="718" y="1056" on="1"/>
        <pt x="736" y="1151" on="0"/>
        <pt x="707" y="1249" on="0"/>
        <pt x="657" y="1249" on="1"/>
        <pt x="610" y="1249" on="0"/>
        <pt x="535" y="1145" on="0"/>
        <pt x="518" y="1056" on="1"/>
        <pt x="498" y="958" on="0"/>
        <pt x="528" y="859" on="0"/>
        <pt x="579" y="859" on="1"/>
        <pt x="626" y="859" on="0"/>
        <pt x="699" y="965" on="0"/>
      </contour>
    </TTGlyph>
    <TTGlyph name="eight.lnum" xMin="30" yMin="-21" xMax="1070" yMax="1477">
      <contour>
        <pt x="1032" y="1070" on="1"/>
        <pt x="1008" y="951" on="0"/>
        <pt x="877" y="784" on="0"/>
        <pt x="780" y="740" on="1"/>
        <pt x="865" y="689" on="0"/>
        <pt x="944" y="511" on="0"/>
        <pt x="922" y="398" on="1"/>
        <pt x="878" y="181" on="0"/>
        <pt x="610" y="-21" on="0"/>
        <pt x="414" y="-21" on="1"/>
        <pt x="235" y="-21" on="0"/>
        <pt x="30" y="199" on="0"/>
        <pt x="70" y="398" on="1"/>
        <pt x="94" y="524" on="0"/>
        <pt x="243" y="704" on="0"/>
        <pt x="352" y="750" on="1"/>
        <pt x="275" y="798" on="0"/>
        <pt x="207" y="965" on="0"/>
        <pt x="229" y="1070" on="1"/>
        <pt x="270" y="1277" on="0"/>
        <pt x="526" y="1477" on="0"/>
        <pt x="711" y="1477" on="1"/>
        <pt x="882" y="1477" on="0"/>
        <pt x="1070" y="1260" on="0"/>
      </contour>
      <contour>
        <pt x="646" y="419" on="1"/>
        <pt x="666" y="523" on="0"/>
        <pt x="609" y="632" on="0"/>
        <pt x="542" y="632" on="1"/>
        <pt x="479" y="632" on="0"/>
        <pt x="375" y="515" on="0"/>
        <pt x="356" y="419" on="1"/>
        <pt x="334" y="313" on="0"/>
        <pt x="389" y="206" on="0"/>
        <pt x="459" y="206" on="1"/>
        <pt x="521" y="206" on="0"/>
        <pt x="626" y="321" on="0"/>
      </contour>
      <contour>
        <pt x="747" y="1056" on="1"/>
        <pt x="765" y="1151" on="0"/>
        <pt x="726" y="1249" on="0"/>
        <pt x="666" y="1249" on="1"/>
        <pt x="611" y="1249" on="0"/>
        <pt x="525" y="1145" on="0"/>
        <pt x="508" y="1056" on="1"/>
        <pt x="488" y="958" on="0"/>
        <pt x="529" y="859" on="0"/>
        <pt x="590" y="859" on="1"/>
        <pt x="644" y="859" on="0"/>
        <pt x="728" y="965" on="0"/>
      </contour>
    </TTGlyph>
    <TTGlyph name="eight.smcp" xMin="14" yMin="-17" xMax="958" yMax="1181">
      <contour>
        <pt x="928" y="861" on="1"/>
        <pt x="909" y="768" on="0"/>
        <pt x="794" y="636" on="0"/>
        <pt x="709" y="600" on="1"/>
        <pt x="789" y="559" on="0"/>
        <pt x="868" y="416" on="0"/>
        <pt x="850" y="326" on="1"/>
        <pt x="815" y="154" on="0"/>
        <pt x="561" y="-17" on="0"/>
        <pt x="386" y="-17" on="1"/>
        <pt x="222" y="-17" on="0"/>
        <pt x="14" y="168" on="0"/>
        <pt x="46" y="326" on="1"/>
        <pt x="66" y="426" on="0"/>
        <pt x="203" y="569" on="0"/>
        <pt x="305" y="607" on="1"/>
        <pt x="232" y="647" on="0"/>
        <pt x="162" y="778" on="0"/>
        <pt x="179" y="861" on="1"/>
        <pt x="211" y="1023" on="0"/>
        <pt x="456" y="1181" on="0"/>
        <pt x="625" y="1181" on="1"/>
        <pt x="775" y="1181" on="0"/>
        <pt x="958" y="1011" on="0"/>
      </contour>
      <contour>
        <pt x="572" y="348" on="1"/>
        <pt x="585" y="415" on="0"/>
        <pt x="535" y="490" on="0"/>
        <pt x="487" y="490" on="1"/>
        <pt x="437" y="490" on="0"/>
        <pt x="345" y="409" on="0"/>
        <pt x="333" y="348" on="1"/>
        <pt x="319" y="281" on="0"/>
        <pt x="376" y="208" on="0"/>
        <pt x="431" y="208" on="1"/>
        <pt x="475" y="208" on="0"/>
        <pt x="559" y="285" on="0"/>
      </contour>
      <contour>
        <pt x="644" y="839" on="1"/>
        <pt x="655" y="896" on="0"/>
        <pt x="617" y="956" on="0"/>
        <pt x="580" y="956" on="1"/>
        <pt x="541" y="956" on="0"/>
        <pt x="468" y="892" on="0"/>
        <pt x="458" y="839" on="1"/>
        <pt x="446" y="782" on="0"/>
        <pt x="491" y="716" on="0"/>
        <pt x="532" y="716" on="1"/>
        <pt x="566" y="716" on="0"/>
        <pt x="633" y="786" on="0"/>
      </contour>
    </TTGlyph>
    <TTGlyph name="eight.sup" xMin="17" yMin="-11" xMax="693" yMax="812">
      <contour>
        <pt x="672" y="592" on="1"/>
        <pt x="659" y="528" on="0"/>
        <pt x="579" y="437" on="0"/>
        <pt x="519" y="412" on="1"/>
        <pt x="575" y="383" on="0"/>
        <pt x="631" y="286" on="0"/>
        <pt x="620" y="225" on="1"/>
        <pt x="596" y="105" on="0"/>
        <pt x="415" y="-11" on="0"/>
        <pt x="288" y="-11" on="1"/>
        <pt x="169" y="-11" on="0"/>
        <pt x="17" y="115" on="0"/>
        <pt x="40" y="225" on="1"/>
        <pt x="53" y="293" on="0"/>
        <pt x="150" y="391" on="0"/>
        <pt x="223" y="418" on="1"/>
        <pt x="171" y="445" on="0"/>
        <pt x="121" y="535" on="0"/>
        <pt x="133" y="592" on="1"/>
        <pt x="155" y="703" on="0"/>
        <pt x="330" y="812" on="0"/>
        <pt x="451" y="812" on="1"/>
        <pt x="560" y="812" on="0"/>
        <pt x="693" y="695" on="0"/>
      </contour>
      <contour>
        <pt x="425" y="237" on="1"/>
        <pt x="435" y="285" on="0"/>
        <pt x="394" y="339" on="0"/>
        <pt x="357" y="339" on="1"/>
        <pt x="319" y="339" on="0"/>
        <pt x="248" y="281" on="0"/>
        <pt x="239" y="237" on="1"/>
        <pt x="229" y="190" on="0"/>
        <pt x="275" y="141" on="0"/>
        <pt x="318" y="141" on="1"/>
        <pt x="352" y="141" on="0"/>
        <pt x="416" y="193" on="0"/>
      </contour>
      <contour>
        <pt x="474" y="578" on="1"/>
        <pt x="481" y="618" on="0"/>
        <pt x="451" y="659" on="0"/>
        <pt x="421" y="659" on="1"/>
        <pt x="390" y="659" on="0"/>
        <pt x="336" y="616" on="0"/>
        <pt x="329" y="578" on="1"/>
        <pt x="320" y="536" on="0"/>
        <pt x="355" y="491" on="0"/>
        <pt x="388" y="491" on="1"/>
        <pt x="415" y="491" on="0"/>
        <pt x="466" y="539" on="0"/>
      </contour>
    </TTGlyph>
    <TTGlyph name="ellipsis" xMin="40" yMin="0" xMax="1163" yMax="258">
      <component glyphName="period" x="3" y="0" flags="0x4"/>
      <component glyphName="period" x="402" y="0" flags="0x4"/>
      <component glyphName="period" x="796" y="0" flags="0x4"/>
    </TTGlyph>
    <TTGlyph name="emacron" xMin="40" yMin="-21" xMax="929" yMax="1457">
      <component glyphName="e" x="0" y="0" flags="0x204"/>
      <component glyphName="macron" x="-10" y="0" flags="0x4"/>
    </TTGlyph>
    <TTGlyph name="emdash" xMin="209" yMin="600" xMax="1358" yMax="830">
      <component glyphName="minus" x="-47" y="0" scalex="1.59997558594" scaley="1.0" flags="0x4"/>
    </TTGlyph>
    <TTGlyph name="endash" xMin="196" yMin="600" xMax="1129" yMax="830">
      <component glyphName="minus" x="-12" y="0" scalex="1.29998779297" scaley="1.0" flags="0x4"/>
    </TTGlyph>
    <TTGlyph name="eng" xMin="0" yMin="-437" xMax="966" yMax="1102">
      <contour>
        <pt x="463" y="946" on="1"/>
        <pt x="520" y="1021" on="0"/>
        <pt x="659" y="1102" on="0"/>
        <pt x="734" y="1102" on="1"/>
        <pt x="855" y="1102" on="0"/>
        <pt x="966" y="883" on="0"/>
        <pt x="921" y="656" on="1"/>
        <pt x="783" y="-33" on="1"/>
        <pt x="742" y="-239" on="0"/>
        <pt x="532" y="-437" on="0"/>
        <pt x="374" y="-437" on="1"/>
        <pt x="343" y="-437" on="0"/>
        <pt x="284" y="-428" on="0"/>
        <pt x="254" y="-419" on="1"/>
        <pt x="310" y="-195" on="1"/>
        <pt x="331" y="-201" on="0"/>
        <pt x="363" y="-208" on="0"/>
        <pt x="385" y="-208" on="1"/>
        <pt x="421" y="-208" on="0"/>
        <pt x="483" y="-117" on="0"/>
        <pt x="500" y="-33" on="1"/>
        <pt x="638" y="656" on="1"/>
        <pt x="663" y="784" on="0"/>
        <pt x="634" y="874" on="0"/>
        <pt x="581" y="874" on="1"/>
        <pt x="545" y="874" on="0"/>
        <pt x="473" y="832" on="0"/>
        <pt x="442" y="796" on="1"/>
        <pt x="283" y="0" on="1"/>
        <pt x="0" y="0" on="1"/>
        <pt x="216" y="1082" on="1"/>
        <pt x="479" y="1082" on="1"/>
      </contour>
    </TTGlyph>
    <TTGlyph name="eogonek" xMin="40" yMin="-375" xMax="919" yMax="1102">
      <component glyphName="e" x="0" y="0" flags="0x204"/>
      <component glyphName="ogonek" x="393" y="40" flags="0x4"/>
    </TTGlyph>
    <TTGlyph name="epsilon" xMin="31" yMin="-19" xMax="982" yMax="1100">
      <contour>
        <pt x="61" y="304" on="1"/>
        <pt x="80" y="402" on="0"/>
        <pt x="194" y="530" on="0"/>
        <pt x="283" y="560" on="1"/>
        <pt x="219" y="596" on="0"/>
        <pt x="159" y="717" on="0"/>
        <pt x="173" y="787" on="1"/>
        <pt x="205" y="946" on="0"/>
        <pt x="455" y="1100" on="0"/>
        <pt x="643" y="1100" on="1"/>
        <pt x="793" y="1100" on="0"/>
        <pt x="982" y="921" on="0"/>
        <pt x="949" y="778" on="1"/>
        <pt x="946" y="772" on="1"/>
        <pt x="671" y="772" on="1"/>
        <pt x="683" y="830" on="0"/>
        <pt x="635" y="889" on="0"/>
        <pt x="585" y="889" on="1"/>
        <pt x="533" y="889" on="0"/>
        <pt x="459" y="814" on="0"/>
        <pt x="450" y="764" on="1"/>
        <pt x="438" y="706" on="0"/>
        <pt x="485" y="646" on="0"/>
        <pt x="539" y="646" on="1"/>
        <pt x="688" y="646" on="1"/>
        <pt x="676" y="586" on="1"/>
        <pt x="651" y="460" on="1"/>
        <pt x="502" y="460" on="1"/>
        <pt x="446" y="460" on="0"/>
        <pt x="361" y="394" on="0"/>
        <pt x="347" y="327" on="1"/>
        <pt x="335" y="266" on="0"/>
        <pt x="382" y="191" on="0"/>
        <pt x="444" y="191" on="1"/>
        <pt x="502" y="191" on="0"/>
        <pt x="585" y="263" on="0"/>
        <pt x="596" y="318" on="1"/>
        <pt x="868" y="318" on="1"/>
        <pt x="870" y="312" on="1"/>
        <pt x="840" y="140" on="0"/>
        <pt x="583" y="-19" on="0"/>
        <pt x="419" y="-19" on="1"/>
        <pt x="246" y="-19" on="0"/>
        <pt x="31" y="157" on="0"/>
      </contour>
    </TTGlyph>
    <TTGlyph name="epsilontonos" xMin="31" yMin="-19" xMax="982" yMax="1559">
      <component glyphName="epsilon" x="0" y="0" flags="0x204"/>
      <component glyphName="tonos" x="157" y="-64" flags="0x4"/>
    </TTGlyph>
    <TTGlyph name="equal" xMin="99" yMin="323" xMax="970" yMax="984">
      <contour>
        <pt x="924" y="756" on="1"/>
        <pt x="185" y="756" on="1"/>
        <pt x="231" y="984" on="1"/>
        <pt x="970" y="984" on="1"/>
      </contour>
      <contour>
        <pt x="838" y="323" on="1"/>
        <pt x="99" y="323" on="1"/>
        <pt x="144" y="552" on="1"/>
        <pt x="883" y="552" on="1"/>
      </contour>
    </TTGlyph>
    <TTGlyph name="estimated" xMin="110" yMin="-20" xMax="1024" yMax="1102">
      <contour>
        <pt x="786" y="94" on="1"/>
        <pt x="705" y="39" on="0"/>
        <pt x="541" y="-20" on="0"/>
        <pt x="464" y="-20" on="1"/>
        <pt x="301" y="-20" on="0"/>
        <pt x="110" y="313" on="0"/>
        <pt x="155" y="541" on="1"/>
        <pt x="203" y="782" on="0"/>
        <pt x="523" y="1102" on="0"/>
        <pt x="688" y="1102" on="1"/>
        <pt x="844" y="1102" on="0"/>
        <pt x="1024" y="788" on="0"/>
        <pt x="979" y="561" on="1"/>
        <pt x="970" y="514" on="1"/>
        <pt x="351" y="514" on="1"/>
        <pt x="285" y="186" on="1"/>
        <pt x="320" y="133" on="0"/>
        <pt x="421" y="76" on="0"/>
        <pt x="483" y="75" on="1"/>
        <pt x="555" y="76" on="0"/>
        <pt x="724" y="137" on="0"/>
        <pt x="805" y="198" on="1"/>
      </contour>
      <contour>
        <pt x="670" y="1007" on="1"/>
        <pt x="615" y="1008" on="0"/>
        <pt x="482" y="942" on="0"/>
        <pt x="425" y="886" on="1"/>
        <pt x="370" y="609" on="1"/>
        <pt x="806" y="609" on="1"/>
        <pt x="863" y="895" on="1"/>
        <pt x="829" y="948" on="0"/>
        <pt x="730" y="1008" on="0"/>
      </contour>
    </TTGlyph>
    <TTGlyph name="eta" xMin="0" yMin="-415" xMax="966" yMax="1102">
      <contour>
        <pt x="463" y="945" on="1"/>
        <pt x="520" y="1021" on="0"/>
        <pt x="660" y="1102" on="0"/>
        <pt x="734" y="1102" on="1"/>
        <pt x="855" y="1102" on="0"/>
        <pt x="966" y="885" on="0"/>
        <pt x="921" y="656" on="1"/>
        <pt x="707" y="-415" on="1"/>
        <pt x="424" y="-415" on="1"/>
        <pt x="638" y="656" on="1"/>
        <pt x="663" y="784" on="0"/>
        <pt x="634" y="874" on="0"/>
        <pt x="581" y="874" on="1"/>
        <pt x="545" y="874" on="0"/>
        <pt x="473" y="832" on="0"/>
        <pt x="441" y="795" on="1"/>
        <pt x="441" y="794" on="1"/>
        <pt x="282" y="0" on="1"/>
        <pt x="0" y="0" on="1"/>
        <pt x="216" y="1082" on="1"/>
        <pt x="479" y="1082" on="1"/>
      </contour>
    </TTGlyph>
    <TTGlyph name="etatonos" xMin="0" yMin="-415" xMax="966" yMax="1560">
      <component glyphName="eta" x="0" y="0" flags="0x204"/>
      <component glyphName="tonos" x="140" y="-63" flags="0x4"/>
    </TTGlyph>
    <TTGlyph name="eth" xMin="5" yMin="-21" xMax="1081" yMax="1517">
      <contour>
        <pt x="923" y="1284" on="1"/>
        <pt x="994" y="1167" on="0"/>
        <pt x="1036" y="852" on="0"/>
        <pt x="999" y="664" on="1"/>
        <pt x="985" y="593" on="1"/>
        <pt x="927" y="305" on="0"/>
        <pt x="602" y="-21" on="0"/>
        <pt x="401" y="-21" on="1"/>
        <pt x="214" y="-21" on="0"/>
        <pt x="5" y="263" on="0"/>
        <pt x="46" y="466" on="1"/>
        <pt x="94" y="707" on="0"/>
        <pt x="359" y="963" on="0"/>
        <pt x="554" y="963" on="1"/>
        <pt x="607" y="963" on="0"/>
        <pt x="703" y="921" on="0"/>
        <pt x="741" y="883" on="1"/>
        <pt x="741" y="962" on="0"/>
        <pt x="709" y="1088" on="0"/>
        <pt x="681" y="1138" on="1"/>
        <pt x="483" y="1019" on="1"/>
        <pt x="434" y="1130" on="1"/>
        <pt x="603" y="1231" on="1"/>
        <pt x="578" y="1251" on="0"/>
        <pt x="523" y="1285" on="0"/>
        <pt x="493" y="1300" on="1"/>
        <pt x="624" y="1517" on="1"/>
        <pt x="689" y="1496" on="0"/>
        <pt x="802" y="1426" on="0"/>
        <pt x="849" y="1379" on="1"/>
        <pt x="1034" y="1490" on="1"/>
        <pt x="1081" y="1380" on="1"/>
      </contour>
      <contour>
        <pt x="717" y="666" on="1"/>
        <pt x="717" y="667" on="1"/>
        <pt x="698" y="703" on="0"/>
        <pt x="618" y="750" on="0"/>
        <pt x="561" y="750" on="1"/>
        <pt x="482" y="750" on="0"/>
        <pt x="353" y="592" on="0"/>
        <pt x="328" y="466" on="1"/>
        <pt x="304" y="349" on="0"/>
        <pt x="368" y="206" on="0"/>
        <pt x="449" y="206" on="1"/>
        <pt x="526" y="206" on="0"/>
        <pt x="669" y="426" on="0"/>
        <pt x="703" y="593" on="1"/>
      </contour>
    </TTGlyph>
    <TTGlyph name="exclam" xMin="29" yMin="0" xMax="599" yMax="1456">
      <contour>
        <pt x="409" y="506" on="1"/>
        <pt x="126" y="506" on="1"/>
        <pt x="316" y="1456" on="1"/>
        <pt x="599" y="1456" on="1"/>
      </contour>
      <contour>
        <pt x="305" y="0" on="1"/>
        <pt x="29" y="0" on="1"/>
        <pt x="81" y="258" on="1"/>
        <pt x="357" y="258" on="1"/>
      </contour>
    </TTGlyph>
    <TTGlyph name="exclamdbl" xMin="29" yMin="0" xMax="1099" yMax="1456">
      <component glyphName="exclam" x="0" y="0" flags="0x4"/>
      <component glyphName="exclam" x="500" y="0" flags="0x4"/>
    </TTGlyph>
    <TTGlyph name="exclamdown" xMin="-37" yMin="-374" xMax="534" yMax="1082">
      <contour>
        <pt x="246" y="-374" on="1"/>
        <pt x="-37" y="-374" on="1"/>
        <pt x="153" y="575" on="1"/>
        <pt x="436" y="575" on="1"/>
      </contour>
      <contour>
        <pt x="482" y="821" on="1"/>
        <pt x="206" y="821" on="1"/>
        <pt x="258" y="1082" on="1"/>
        <pt x="534" y="1082" on="1"/>
      </contour>
    </TTGlyph>
    <TTGlyph name="f" xMin="66" yMin="0" xMax="861" yMax="1581">
      <contour>
        <pt x="66" y="0" on="1"/>
        <pt x="241" y="876" on="1"/>
        <pt x="115" y="876" on="1"/>
        <pt x="156" y="1082" on="1"/>
        <pt x="282" y="1082" on="1"/>
        <pt x="306" y="1202" on="1"/>
        <pt x="345" y="1396" on="0"/>
        <pt x="560" y="1581" on="0"/>
        <pt x="729" y="1581" on="1"/>
        <pt x="759" y="1581" on="0"/>
        <pt x="823" y="1570" on="0"/>
        <pt x="861" y="1560" on="1"/>
        <pt x="794" y="1342" on="1"/>
        <pt x="777" y="1346" on="0"/>
        <pt x="742" y="1352" on="0"/>
        <pt x="718" y="1352" on="1"/>
        <pt x="672" y="1352" on="0"/>
        <pt x="602" y="1273" on="0"/>
        <pt x="588" y="1202" on="1"/>
        <pt x="564" y="1082" on="1"/>
        <pt x="726" y="1082" on="1"/>
        <pt x="685" y="876" on="1"/>
        <pt x="523" y="876" on="1"/>
        <pt x="348" y="0" on="1"/>
      </contour>
    </TTGlyph>
    <TTGlyph name="fi" xMin="61" yMin="0" xMax="1102" yMax="1581">
      <contour>
        <pt x="61" y="0" on="1"/>
        <pt x="236" y="876" on="1"/>
        <pt x="110" y="876" on="1"/>
        <pt x="151" y="1082" on="1"/>
        <pt x="277" y="1082" on="1"/>
        <pt x="291" y="1152" on="1"/>
        <pt x="335" y="1372" on="0"/>
        <pt x="589" y="1581" on="0"/>
        <pt x="792" y="1581" on="1"/>
        <pt x="855" y="1581" on="0"/>
        <pt x="988" y="1550" on="0"/>
        <pt x="1061" y="1522" on="1"/>
        <pt x="976" y="1290" on="1"/>
        <pt x="918" y="1312" on="0"/>
        <pt x="826" y="1336" on="0"/>
        <pt x="761" y="1336" on="1"/>
        <pt x="691" y="1336" on="0"/>
        <pt x="590" y="1240" on="0"/>
        <pt x="573" y="1152" on="1"/>
        <pt x="559" y="1082" on="1"/>
        <pt x="720" y="1082" on="1"/>
        <pt x="679" y="876" on="1"/>
        <pt x="518" y="876" on="1"/>
        <pt x="343" y="0" on="1"/>
      </contour>
      <contour>
        <pt x="886" y="0" on="1"/>
        <pt x="603" y="0" on="1"/>
        <pt x="819" y="1082" on="1"/>
        <pt x="1102" y="1082" on="1"/>
      </contour>
    </TTGlyph>
    <TTGlyph name="five" xMin="41" yMin="-21" xMax="1023" yMax="1456">
      <contour>
        <pt x="140" y="644" on="1"/>
        <pt x="339" y="1456" on="1"/>
        <pt x="1023" y="1456" on="1"/>
        <pt x="986" y="1223" on="1"/>
        <pt x="532" y="1223" on="1"/>
        <pt x="448" y="880" on="1"/>
        <pt x="481" y="911" on="0"/>
        <pt x="575" y="952" on="0"/>
        <pt x="621" y="954" on="1"/>
        <pt x="796" y="957" on="0"/>
        <pt x="941" y="700" on="0"/>
        <pt x="904" y="467" on="1"/>
        <pt x="869" y="252" on="0"/>
        <pt x="616" y="-21" on="0"/>
        <pt x="417" y="-21" on="1"/>
        <pt x="255" y="-21" on="0"/>
        <pt x="41" y="205" on="0"/>
        <pt x="73" y="398" on="1"/>
        <pt x="356" y="413" on="1"/>
        <pt x="340" y="311" on="0"/>
        <pt x="394" y="206" on="0"/>
        <pt x="453" y="206" on="1"/>
        <pt x="518" y="206" on="0"/>
        <pt x="603" y="351" on="0"/>
        <pt x="622" y="465" on="1"/>
        <pt x="643" y="598" on="0"/>
        <pt x="600" y="744" on="0"/>
        <pt x="527" y="744" on="1"/>
        <pt x="477" y="744" on="0"/>
        <pt x="407" y="679" on="0"/>
        <pt x="388" y="627" on="1"/>
      </contour>
    </TTGlyph>
    <TTGlyph name="five.lnum" xMin="35" yMin="-21" xMax="1066" yMax="1456">
      <contour>
        <pt x="152" y="644" on="1"/>
        <pt x="383" y="1456" on="1"/>
        <pt x="1066" y="1456" on="1"/>
        <pt x="1020" y="1223" on="1"/>
        <pt x="566" y="1223" on="1"/>
        <pt x="470" y="887" on="1"/>
        <pt x="474" y="883" on="1"/>
        <pt x="505" y="911" on="0"/>
        <pt x="599" y="952" on="0"/>
        <pt x="644" y="954" on="1"/>
        <pt x="820" y="957" on="0"/>
        <pt x="955" y="700" on="0"/>
        <pt x="908" y="467" on="1"/>
        <pt x="864" y="247" on="0"/>
        <pt x="601" y="-21" on="0"/>
        <pt x="402" y="-21" on="1"/>
        <pt x="244" y="-21" on="0"/>
        <pt x="35" y="206" on="0"/>
        <pt x="74" y="398" on="1"/>
        <pt x="358" y="413" on="1"/>
        <pt x="337" y="309" on="0"/>
        <pt x="387" y="206" on="0"/>
        <pt x="447" y="206" on="1"/>
        <pt x="510" y="206" on="0"/>
        <pt x="603" y="352" on="0"/>
        <pt x="626" y="465" on="1"/>
        <pt x="653" y="602" on="0"/>
        <pt x="615" y="744" on="0"/>
        <pt x="543" y="744" on="1"/>
        <pt x="493" y="744" on="0"/>
        <pt x="419" y="679" on="0"/>
        <pt x="398" y="627" on="1"/>
      </contour>
    </TTGlyph>
</ttFont>
